<svg width="311" height="386" viewBox="0 0 311 386" fill="none" xmlns="http://www.w3.org/2000/svg">
<path d="M310 175.596C305 51.5957 211.89 -48.6038 1 25.0958V347.596C1 347.596 55.5 314.596 154.5 371.596C253.5 428.596 315 299.596 310 175.596Z" fill="url(#paint0_linear_25_824)"/>
<g clip-path="url(#clip0_25_824)">
<path d="M277.999 288.136C277.999 290.323 215.767 292.096 139 292.096C62.232 292.096 -7.62939e-06 290.322 -7.62939e-06 288.136C-7.62939e-06 285.949 62.232 284.177 139 284.177C215.768 284.177 277.999 285.949 277.999 288.136Z" fill="#E2E3E3"/>
<path d="M220.066 59.0959H9.61328V286.651H220.066V59.0959Z" fill="url(#paint1_linear_25_824)"/>
<path d="M44.5973 71.3779H15.6836V75.192H44.5973V71.3779Z" fill="#8B8B8B"/>
<path d="M44.5973 71.3779H15.6836V75.192H44.5973V71.3779Z" fill="#8B8B8B"/>
<path d="M44.5973 71.3779H15.6836V75.192H44.5973V71.3779Z" fill="#8B8B8B"/>
<path d="M77.2184 71.3779H48.3047V75.192H77.2184V71.3779Z" fill="#8B8B8B"/>
<path d="M77.2184 71.3779H48.3047V75.192H77.2184V71.3779Z" fill="#8B8B8B"/>
<path d="M77.2184 71.3779H48.3047V75.192H77.2184V71.3779Z" fill="#8B8B8B"/>
<path d="M109.835 71.3779H80.9217V75.192H109.835V71.3779Z" fill="#8B8B8B"/>
<path d="M109.835 71.3779H80.9217V75.192H109.835V71.3779Z" fill="#8B8B8B"/>
<path d="M109.835 71.3779H80.9217V75.192H109.835V71.3779Z" fill="#8B8B8B"/>
<path d="M142.453 71.3779H113.539V75.192H142.453V71.3779Z" fill="#8B8B8B"/>
<path d="M142.453 71.3779H113.539V75.192H142.453V71.3779Z" fill="#8B8B8B"/>
<path d="M142.453 71.3779H113.539V75.192H142.453V71.3779Z" fill="#8B8B8B"/>
<path d="M175.074 71.3779H146.16V75.192H175.074V71.3779Z" fill="#8B8B8B"/>
<path d="M175.074 71.3779H146.16V75.192H175.074V71.3779Z" fill="#8B8B8B"/>
<path d="M175.074 71.3779H146.16V75.192H175.074V71.3779Z" fill="#8B8B8B"/>
<path d="M44.5973 78.5486H15.6836V82.3627H44.5973V78.5486Z" fill="#8B8B8B"/>
<path d="M44.5973 78.5486H15.6836V82.3627H44.5973V78.5486Z" fill="#8B8B8B"/>
<path d="M44.5973 78.5486H15.6836V82.3627H44.5973V78.5486Z" fill="#8B8B8B"/>
<path d="M77.2184 78.5486H48.3047V82.3627H77.2184V78.5486Z" fill="#8B8B8B"/>
<path d="M77.2184 78.5486H48.3047V82.3627H77.2184V78.5486Z" fill="#8B8B8B"/>
<path d="M77.2184 78.5486H48.3047V82.3627H77.2184V78.5486Z" fill="#8B8B8B"/>
<path d="M109.835 78.5485H80.9217V82.3626H109.835V78.5485Z" fill="#8B8B8B"/>
<path d="M109.835 78.5485H80.9217V82.3626H109.835V78.5485Z" fill="#8B8B8B"/>
<path d="M109.835 78.5485H80.9217V82.3626H109.835V78.5485Z" fill="#8B8B8B"/>
<path d="M142.453 78.5486H113.539V82.3627H142.453V78.5486Z" fill="#8B8B8B"/>
<path d="M142.453 78.5486H113.539V82.3627H142.453V78.5486Z" fill="#8B8B8B"/>
<path d="M142.453 78.5486H113.539V82.3627H142.453V78.5486Z" fill="#8B8B8B"/>
<path d="M175.074 78.5486H146.16V82.3627H175.074V78.5486Z" fill="#8B8B8B"/>
<path d="M175.074 78.5486H146.16V82.3627H175.074V78.5486Z" fill="#8B8B8B"/>
<path d="M175.074 78.5486H146.16V82.3627H175.074V78.5486Z" fill="#8B8B8B"/>
<path d="M44.5973 85.719H15.6836V89.5331H44.5973V85.719Z" fill="#8B8B8B"/>
<path d="M44.5973 85.719H15.6836V89.5331H44.5973V85.719Z" fill="#8B8B8B"/>
<path d="M44.5973 85.719H15.6836V89.5331H44.5973V85.719Z" fill="#8B8B8B"/>
<path d="M77.2184 85.719H48.3047V89.5331H77.2184V85.719Z" fill="#8B8B8B"/>
<path d="M77.2184 85.719H48.3047V89.5331H77.2184V85.719Z" fill="#8B8B8B"/>
<path d="M77.2184 85.719H48.3047V89.5331H77.2184V85.719Z" fill="#8B8B8B"/>
<path d="M109.835 85.7191H80.9217V89.5332H109.835V85.7191Z" fill="#8B8B8B"/>
<path d="M109.835 85.7191H80.9217V89.5332H109.835V85.7191Z" fill="#8B8B8B"/>
<path d="M109.835 85.7191H80.9217V89.5332H109.835V85.7191Z" fill="#8B8B8B"/>
<path d="M142.453 85.719H113.539V89.5331H142.453V85.719Z" fill="#8B8B8B"/>
<path d="M142.453 85.719H113.539V89.5331H142.453V85.719Z" fill="#8B8B8B"/>
<path d="M142.453 85.719H113.539V89.5331H142.453V85.719Z" fill="#8B8B8B"/>
<path d="M175.074 85.719H146.16V89.5331H175.074V85.719Z" fill="#8B8B8B"/>
<path d="M175.074 85.719H146.16V89.5331H175.074V85.719Z" fill="#8B8B8B"/>
<path d="M175.074 85.719H146.16V89.5331H175.074V85.719Z" fill="#8B8B8B"/>
<path d="M44.5973 92.8896H15.6836V96.7037H44.5973V92.8896Z" fill="#8B8B8B"/>
<path d="M44.5973 92.8896H15.6836V96.7037H44.5973V92.8896Z" fill="#8B8B8B"/>
<path d="M44.5973 92.8896H15.6836V96.7037H44.5973V92.8896Z" fill="#8B8B8B"/>
<path d="M77.2184 92.8896H48.3047V96.7037H77.2184V92.8896Z" fill="#8B8B8B"/>
<path d="M77.2184 92.8896H48.3047V96.7037H77.2184V92.8896Z" fill="#8B8B8B"/>
<path d="M77.2184 92.8896H48.3047V96.7037H77.2184V92.8896Z" fill="#8B8B8B"/>
<path d="M109.835 92.8897H80.9217V96.7037H109.835V92.8897Z" fill="#8B8B8B"/>
<path d="M109.835 92.8897H80.9217V96.7037H109.835V92.8897Z" fill="#8B8B8B"/>
<path d="M109.835 92.8897H80.9217V96.7037H109.835V92.8897Z" fill="#8B8B8B"/>
<path d="M142.453 92.8896H113.539V96.7037H142.453V92.8896Z" fill="#8B8B8B"/>
<path d="M142.453 92.8896H113.539V96.7037H142.453V92.8896Z" fill="#8B8B8B"/>
<path d="M142.453 92.8896H113.539V96.7037H142.453V92.8896Z" fill="#8B8B8B"/>
<path d="M175.074 92.8896H146.16V96.7037H175.074V92.8896Z" fill="#8B8B8B"/>
<path d="M175.074 92.8896H146.16V96.7037H175.074V92.8896Z" fill="#8B8B8B"/>
<path d="M175.074 92.8896H146.16V96.7037H175.074V92.8896Z" fill="#8B8B8B"/>
<path d="M44.5973 100.06H15.6836V103.874H44.5973V100.06Z" fill="#8B8B8B"/>
<path d="M44.5973 100.06H15.6836V103.874H44.5973V100.06Z" fill="#8B8B8B"/>
<path d="M44.5973 100.06H15.6836V103.874H44.5973V100.06Z" fill="#8B8B8B"/>
<path d="M77.2184 100.06H48.3047V103.874H77.2184V100.06Z" fill="#8B8B8B"/>
<path d="M77.2184 100.06H48.3047V103.874H77.2184V100.06Z" fill="#8B8B8B"/>
<path d="M77.2184 100.06H48.3047V103.874H77.2184V100.06Z" fill="#8B8B8B"/>
<path d="M109.835 100.06H80.9217V103.874H109.835V100.06Z" fill="#8B8B8B"/>
<path d="M109.835 100.06H80.9217V103.874H109.835V100.06Z" fill="#8B8B8B"/>
<path d="M109.835 100.06H80.9217V103.874H109.835V100.06Z" fill="#8B8B8B"/>
<path d="M142.453 100.06H113.539V103.874H142.453V100.06Z" fill="#8B8B8B"/>
<path d="M142.453 100.06H113.539V103.874H142.453V100.06Z" fill="#8B8B8B"/>
<path d="M142.453 100.06H113.539V103.874H142.453V100.06Z" fill="#8B8B8B"/>
<path d="M175.074 100.06H146.16V103.874H175.074V100.06Z" fill="#8B8B8B"/>
<path d="M175.074 100.06H146.16V103.874H175.074V100.06Z" fill="#8B8B8B"/>
<path d="M175.074 100.06H146.16V103.874H175.074V100.06Z" fill="#8B8B8B"/>
<path d="M44.5973 107.231H15.6836V111.045H44.5973V107.231Z" fill="#8B8B8B"/>
<path d="M44.5973 107.231H15.6836V111.045H44.5973V107.231Z" fill="#8B8B8B"/>
<path d="M44.5973 107.231H15.6836V111.045H44.5973V107.231Z" fill="#8B8B8B"/>
<path d="M77.2184 107.231H48.3047V111.045H77.2184V107.231Z" fill="#8B8B8B"/>
<path d="M77.2184 107.231H48.3047V111.045H77.2184V107.231Z" fill="#8B8B8B"/>
<path d="M77.2184 107.231H48.3047V111.045H77.2184V107.231Z" fill="#8B8B8B"/>
<path d="M109.835 107.231H80.9217V111.045H109.835V107.231Z" fill="#8B8B8B"/>
<path d="M109.835 107.231H80.9217V111.045H109.835V107.231Z" fill="#8B8B8B"/>
<path d="M109.835 107.231H80.9217V111.045H109.835V107.231Z" fill="#8B8B8B"/>
<path d="M142.453 107.231H113.539V111.045H142.453V107.231Z" fill="#8B8B8B"/>
<path d="M142.453 107.231H113.539V111.045H142.453V107.231Z" fill="#8B8B8B"/>
<path d="M142.453 107.231H113.539V111.045H142.453V107.231Z" fill="#8B8B8B"/>
<path d="M175.074 107.231H146.16V111.045H175.074V107.231Z" fill="#8B8B8B"/>
<path d="M175.074 107.231H146.16V111.045H175.074V107.231Z" fill="#8B8B8B"/>
<path d="M175.074 107.231H146.16V111.045H175.074V107.231Z" fill="#8B8B8B"/>
<path d="M44.5973 114.402H15.6836V118.216H44.5973V114.402Z" fill="#8B8B8B"/>
<path d="M44.5973 114.402H15.6836V118.216H44.5973V114.402Z" fill="#8B8B8B"/>
<path d="M44.5973 114.402H15.6836V118.216H44.5973V114.402Z" fill="#8B8B8B"/>
<path d="M77.2184 114.402H48.3047V118.216H77.2184V114.402Z" fill="#8B8B8B"/>
<path d="M77.2184 114.402H48.3047V118.216H77.2184V114.402Z" fill="#8B8B8B"/>
<path d="M77.2184 114.402H48.3047V118.216H77.2184V114.402Z" fill="#8B8B8B"/>
<path d="M109.835 114.402H80.9217V118.216H109.835V114.402Z" fill="#8B8B8B"/>
<path d="M109.835 114.402H80.9217V118.216H109.835V114.402Z" fill="#8B8B8B"/>
<path d="M109.835 114.402H80.9217V118.216H109.835V114.402Z" fill="#8B8B8B"/>
<path d="M142.453 114.402H113.539V118.216H142.453V114.402Z" fill="#8B8B8B"/>
<path d="M142.453 114.402H113.539V118.216H142.453V114.402Z" fill="#8B8B8B"/>
<path d="M142.453 114.402H113.539V118.216H142.453V114.402Z" fill="#8B8B8B"/>
<path d="M175.074 114.402H146.16V118.216H175.074V114.402Z" fill="#8B8B8B"/>
<path d="M175.074 114.402H146.16V118.216H175.074V114.402Z" fill="#8B8B8B"/>
<path d="M175.074 114.402H146.16V118.216H175.074V114.402Z" fill="#8B8B8B"/>
<path d="M44.5973 121.573H15.6836V125.387H44.5973V121.573Z" fill="#8B8B8B"/>
<path d="M44.5973 121.573H15.6836V125.387H44.5973V121.573Z" fill="#8B8B8B"/>
<path d="M44.5973 121.573H15.6836V125.387H44.5973V121.573Z" fill="#8B8B8B"/>
<path d="M77.2184 121.573H48.3047V125.387H77.2184V121.573Z" fill="#8B8B8B"/>
<path d="M77.2184 121.573H48.3047V125.387H77.2184V121.573Z" fill="#8B8B8B"/>
<path d="M77.2184 121.573H48.3047V125.387H77.2184V121.573Z" fill="#8B8B8B"/>
<path d="M109.835 121.573H80.9217V125.387H109.835V121.573Z" fill="#8B8B8B"/>
<path d="M109.835 121.573H80.9217V125.387H109.835V121.573Z" fill="#8B8B8B"/>
<path d="M109.835 121.573H80.9217V125.387H109.835V121.573Z" fill="#8B8B8B"/>
<path d="M142.453 121.573H113.539V125.387H142.453V121.573Z" fill="#8B8B8B"/>
<path d="M142.453 121.573H113.539V125.387H142.453V121.573Z" fill="#8B8B8B"/>
<path d="M142.453 121.573H113.539V125.387H142.453V121.573Z" fill="#8B8B8B"/>
<path d="M175.074 121.573H146.16V125.387H175.074V121.573Z" fill="#8B8B8B"/>
<path d="M175.074 121.573H146.16V125.387H175.074V121.573Z" fill="#8B8B8B"/>
<path d="M175.074 121.573H146.16V125.387H175.074V121.573Z" fill="#8B8B8B"/>
<path d="M44.5973 128.743H15.6836V132.557H44.5973V128.743Z" fill="#8B8B8B"/>
<path d="M44.5973 128.743H15.6836V132.557H44.5973V128.743Z" fill="#8B8B8B"/>
<path d="M44.5973 128.743H15.6836V132.557H44.5973V128.743Z" fill="#8B8B8B"/>
<path d="M77.2184 128.743H48.3047V132.557H77.2184V128.743Z" fill="#8B8B8B"/>
<path d="M77.2184 128.743H48.3047V132.557H77.2184V128.743Z" fill="#8B8B8B"/>
<path d="M77.2184 128.743H48.3047V132.557H77.2184V128.743Z" fill="#8B8B8B"/>
<path d="M109.835 128.743H80.9217V132.557H109.835V128.743Z" fill="#8B8B8B"/>
<path d="M109.835 128.743H80.9217V132.557H109.835V128.743Z" fill="#8B8B8B"/>
<path d="M109.835 128.743H80.9217V132.557H109.835V128.743Z" fill="#8B8B8B"/>
<path d="M142.453 128.743H113.539V132.557H142.453V128.743Z" fill="#8B8B8B"/>
<path d="M142.453 128.743H113.539V132.557H142.453V128.743Z" fill="#8B8B8B"/>
<path d="M142.453 128.743H113.539V132.557H142.453V128.743Z" fill="#8B8B8B"/>
<path d="M175.074 128.743H146.16V132.557H175.074V128.743Z" fill="#8B8B8B"/>
<path d="M175.074 128.743H146.16V132.557H175.074V128.743Z" fill="#8B8B8B"/>
<path d="M175.074 128.743H146.16V132.557H175.074V128.743Z" fill="#8B8B8B"/>
<path d="M44.5973 135.914H15.6836V139.728H44.5973V135.914Z" fill="#8B8B8B"/>
<path d="M44.5973 135.914H15.6836V139.728H44.5973V135.914Z" fill="#8B8B8B"/>
<path d="M44.5973 135.914H15.6836V139.728H44.5973V135.914Z" fill="#8B8B8B"/>
<path d="M77.2184 135.914H48.3047V139.728H77.2184V135.914Z" fill="#8B8B8B"/>
<path d="M77.2184 135.914H48.3047V139.728H77.2184V135.914Z" fill="#8B8B8B"/>
<path d="M77.2184 135.914H48.3047V139.728H77.2184V135.914Z" fill="#8B8B8B"/>
<path d="M109.835 135.914H80.9217V139.728H109.835V135.914Z" fill="#8B8B8B"/>
<path d="M109.835 135.914H80.9217V139.728H109.835V135.914Z" fill="#8B8B8B"/>
<path d="M109.835 135.914H80.9217V139.728H109.835V135.914Z" fill="#8B8B8B"/>
<path d="M142.453 135.914H113.539V139.728H142.453V135.914Z" fill="#8B8B8B"/>
<path d="M142.453 135.914H113.539V139.728H142.453V135.914Z" fill="#8B8B8B"/>
<path d="M142.453 135.914H113.539V139.728H142.453V135.914Z" fill="#8B8B8B"/>
<path d="M175.074 135.914H146.16V139.728H175.074V135.914Z" fill="#8B8B8B"/>
<path d="M175.074 135.914H146.16V139.728H175.074V135.914Z" fill="#8B8B8B"/>
<path d="M175.074 135.914H146.16V139.728H175.074V135.914Z" fill="#8B8B8B"/>
<path d="M44.5973 143.084H15.6836V146.899H44.5973V143.084Z" fill="#8B8B8B"/>
<path d="M44.5973 143.084H15.6836V146.899H44.5973V143.084Z" fill="#8B8B8B"/>
<path d="M44.5973 143.084H15.6836V146.899H44.5973V143.084Z" fill="#8B8B8B"/>
<path d="M77.2184 143.084H48.3047V146.899H77.2184V143.084Z" fill="#8B8B8B"/>
<path d="M77.2184 143.084H48.3047V146.899H77.2184V143.084Z" fill="#8B8B8B"/>
<path d="M77.2184 143.084H48.3047V146.899H77.2184V143.084Z" fill="#8B8B8B"/>
<path d="M109.835 143.084H80.9217V146.899H109.835V143.084Z" fill="#8B8B8B"/>
<path d="M109.835 143.084H80.9217V146.899H109.835V143.084Z" fill="#8B8B8B"/>
<path d="M109.835 143.084H80.9217V146.899H109.835V143.084Z" fill="#8B8B8B"/>
<path d="M142.453 143.084H113.539V146.899H142.453V143.084Z" fill="#8B8B8B"/>
<path d="M142.453 143.084H113.539V146.899H142.453V143.084Z" fill="#8B8B8B"/>
<path d="M142.453 143.084H113.539V146.899H142.453V143.084Z" fill="#8B8B8B"/>
<path d="M175.074 143.084H146.16V146.899H175.074V143.084Z" fill="#8B8B8B"/>
<path d="M175.074 143.084H146.16V146.899H175.074V143.084Z" fill="#8B8B8B"/>
<path d="M175.074 143.084H146.16V146.899H175.074V143.084Z" fill="#8B8B8B"/>
<path d="M44.5973 150.255H15.6836V154.069H44.5973V150.255Z" fill="#8B8B8B"/>
<path d="M44.5973 150.255H15.6836V154.069H44.5973V150.255Z" fill="#8B8B8B"/>
<path d="M44.5973 150.255H15.6836V154.069H44.5973V150.255Z" fill="#8B8B8B"/>
<path d="M77.2184 150.255H48.3047V154.069H77.2184V150.255Z" fill="#8B8B8B"/>
<path d="M77.2184 150.255H48.3047V154.069H77.2184V150.255Z" fill="#8B8B8B"/>
<path d="M77.2184 150.255H48.3047V154.069H77.2184V150.255Z" fill="#8B8B8B"/>
<path d="M109.835 150.255H80.9217V154.069H109.835V150.255Z" fill="#8B8B8B"/>
<path d="M109.835 150.255H80.9217V154.069H109.835V150.255Z" fill="#8B8B8B"/>
<path d="M109.835 150.255H80.9217V154.069H109.835V150.255Z" fill="#8B8B8B"/>
<path d="M142.453 150.255H113.539V154.069H142.453V150.255Z" fill="#8B8B8B"/>
<path d="M142.453 150.255H113.539V154.069H142.453V150.255Z" fill="#8B8B8B"/>
<path d="M142.453 150.255H113.539V154.069H142.453V150.255Z" fill="#8B8B8B"/>
<path d="M175.074 150.255H146.16V154.069H175.074V150.255Z" fill="#8B8B8B"/>
<path d="M175.074 150.255H146.16V154.069H175.074V150.255Z" fill="#8B8B8B"/>
<path d="M175.074 150.255H146.16V154.069H175.074V150.255Z" fill="#8B8B8B"/>
<path d="M44.5973 157.426H15.6836V161.24H44.5973V157.426Z" fill="#8B8B8B"/>
<path d="M44.5973 157.426H15.6836V161.24H44.5973V157.426Z" fill="#8B8B8B"/>
<path d="M44.5973 157.426H15.6836V161.24H44.5973V157.426Z" fill="#8B8B8B"/>
<path d="M77.2184 157.426H48.3047V161.24H77.2184V157.426Z" fill="#8B8B8B"/>
<path d="M77.2184 157.426H48.3047V161.24H77.2184V157.426Z" fill="#8B8B8B"/>
<path d="M77.2184 157.426H48.3047V161.24H77.2184V157.426Z" fill="#8B8B8B"/>
<path d="M109.835 157.426H80.9217V161.24H109.835V157.426Z" fill="#8B8B8B"/>
<path d="M109.835 157.426H80.9217V161.24H109.835V157.426Z" fill="#8B8B8B"/>
<path d="M109.835 157.426H80.9217V161.24H109.835V157.426Z" fill="#8B8B8B"/>
<path d="M142.453 157.426H113.539V161.24H142.453V157.426Z" fill="#8B8B8B"/>
<path d="M142.453 157.426H113.539V161.24H142.453V157.426Z" fill="#8B8B8B"/>
<path d="M142.453 157.426H113.539V161.24H142.453V157.426Z" fill="#8B8B8B"/>
<path d="M175.074 157.426H146.16V161.24H175.074V157.426Z" fill="#8B8B8B"/>
<path d="M175.074 157.426H146.16V161.24H175.074V157.426Z" fill="#8B8B8B"/>
<path d="M175.074 157.426H146.16V161.24H175.074V157.426Z" fill="#8B8B8B"/>
<path d="M44.5973 164.597H15.6836V168.411H44.5973V164.597Z" fill="#8B8B8B"/>
<path d="M44.5973 164.597H15.6836V168.411H44.5973V164.597Z" fill="#8B8B8B"/>
<path d="M44.5973 164.597H15.6836V168.411H44.5973V164.597Z" fill="#8B8B8B"/>
<path d="M77.2184 164.597H48.3047V168.411H77.2184V164.597Z" fill="#8B8B8B"/>
<path d="M77.2184 164.597H48.3047V168.411H77.2184V164.597Z" fill="#8B8B8B"/>
<path d="M77.2184 164.597H48.3047V168.411H77.2184V164.597Z" fill="#8B8B8B"/>
<path d="M109.835 164.597H80.9217V168.411H109.835V164.597Z" fill="#8B8B8B"/>
<path d="M109.835 164.597H80.9217V168.411H109.835V164.597Z" fill="#8B8B8B"/>
<path d="M109.835 164.597H80.9217V168.411H109.835V164.597Z" fill="#8B8B8B"/>
<path d="M142.453 164.597H113.539V168.411H142.453V164.597Z" fill="#8B8B8B"/>
<path d="M142.453 164.597H113.539V168.411H142.453V164.597Z" fill="#8B8B8B"/>
<path d="M142.453 164.597H113.539V168.411H142.453V164.597Z" fill="#8B8B8B"/>
<path d="M175.074 164.597H146.16V168.411H175.074V164.597Z" fill="#8B8B8B"/>
<path d="M175.074 164.597H146.16V168.411H175.074V164.597Z" fill="#8B8B8B"/>
<path d="M175.074 164.597H146.16V168.411H175.074V164.597Z" fill="#8B8B8B"/>
<path d="M44.5973 171.768H15.6836V175.582H44.5973V171.768Z" fill="#8B8B8B"/>
<path d="M44.5973 171.768H15.6836V175.582H44.5973V171.768Z" fill="#8B8B8B"/>
<path d="M44.5973 171.768H15.6836V175.582H44.5973V171.768Z" fill="#8B8B8B"/>
<path d="M77.2184 171.768H48.3047V175.582H77.2184V171.768Z" fill="#8B8B8B"/>
<path d="M77.2184 171.768H48.3047V175.582H77.2184V171.768Z" fill="#8B8B8B"/>
<path d="M77.2184 171.768H48.3047V175.582H77.2184V171.768Z" fill="#8B8B8B"/>
<path d="M109.835 171.767H80.9217V175.582H109.835V171.767Z" fill="#8B8B8B"/>
<path d="M109.835 171.767H80.9217V175.582H109.835V171.767Z" fill="#8B8B8B"/>
<path d="M109.835 171.767H80.9217V175.582H109.835V171.767Z" fill="#8B8B8B"/>
<path d="M142.453 171.768H113.539V175.582H142.453V171.768Z" fill="#8B8B8B"/>
<path d="M142.453 171.768H113.539V175.582H142.453V171.768Z" fill="#8B8B8B"/>
<path d="M142.453 171.768H113.539V175.582H142.453V171.768Z" fill="#8B8B8B"/>
<path d="M175.074 171.768H146.16V175.582H175.074V171.768Z" fill="#8B8B8B"/>
<path d="M175.074 171.768H146.16V175.582H175.074V171.768Z" fill="#8B8B8B"/>
<path d="M175.074 171.768H146.16V175.582H175.074V171.768Z" fill="#8B8B8B"/>
<path d="M44.5973 178.938H15.6836V182.752H44.5973V178.938Z" fill="#8B8B8B"/>
<path d="M44.5973 178.938H15.6836V182.752H44.5973V178.938Z" fill="#8B8B8B"/>
<path d="M44.5973 178.938H15.6836V182.752H44.5973V178.938Z" fill="#8B8B8B"/>
<path d="M77.2184 178.938H48.3047V182.752H77.2184V178.938Z" fill="#8B8B8B"/>
<path d="M77.2184 178.938H48.3047V182.752H77.2184V178.938Z" fill="#8B8B8B"/>
<path d="M77.2184 178.938H48.3047V182.752H77.2184V178.938Z" fill="#8B8B8B"/>
<path d="M109.835 178.938H80.9217V182.752H109.835V178.938Z" fill="#8B8B8B"/>
<path d="M109.835 178.938H80.9217V182.752H109.835V178.938Z" fill="#8B8B8B"/>
<path d="M109.835 178.938H80.9217V182.752H109.835V178.938Z" fill="#8B8B8B"/>
<path d="M142.453 178.938H113.539V182.752H142.453V178.938Z" fill="#8B8B8B"/>
<path d="M142.453 178.938H113.539V182.752H142.453V178.938Z" fill="#8B8B8B"/>
<path d="M142.453 178.938H113.539V182.752H142.453V178.938Z" fill="#8B8B8B"/>
<path d="M175.074 178.938H146.16V182.752H175.074V178.938Z" fill="#8B8B8B"/>
<path d="M175.074 178.938H146.16V182.752H175.074V178.938Z" fill="#8B8B8B"/>
<path d="M175.074 178.938H146.16V182.752H175.074V178.938Z" fill="#8B8B8B"/>
<path d="M44.5973 186.109H15.6836V189.923H44.5973V186.109Z" fill="#8B8B8B"/>
<path d="M44.5973 186.109H15.6836V189.923H44.5973V186.109Z" fill="#8B8B8B"/>
<path d="M44.5973 186.109H15.6836V189.923H44.5973V186.109Z" fill="#8B8B8B"/>
<path d="M77.2184 186.109H48.3047V189.923H77.2184V186.109Z" fill="#8B8B8B"/>
<path d="M77.2184 186.109H48.3047V189.923H77.2184V186.109Z" fill="#8B8B8B"/>
<path d="M77.2184 186.109H48.3047V189.923H77.2184V186.109Z" fill="#8B8B8B"/>
<path d="M109.835 186.109H80.9217V189.923H109.835V186.109Z" fill="#8B8B8B"/>
<path d="M109.835 186.109H80.9217V189.923H109.835V186.109Z" fill="#8B8B8B"/>
<path d="M109.835 186.109H80.9217V189.923H109.835V186.109Z" fill="#8B8B8B"/>
<path d="M142.453 186.109H113.539V189.923H142.453V186.109Z" fill="#8B8B8B"/>
<path d="M142.453 186.109H113.539V189.923H142.453V186.109Z" fill="#8B8B8B"/>
<path d="M142.453 186.109H113.539V189.923H142.453V186.109Z" fill="#8B8B8B"/>
<path d="M175.074 186.109H146.16V189.923H175.074V186.109Z" fill="#8B8B8B"/>
<path d="M175.074 186.109H146.16V189.923H175.074V186.109Z" fill="#8B8B8B"/>
<path d="M175.074 186.109H146.16V189.923H175.074V186.109Z" fill="#8B8B8B"/>
<path d="M44.5973 193.28H15.6836V197.094H44.5973V193.28Z" fill="#8B8B8B"/>
<path d="M44.5973 193.28H15.6836V197.094H44.5973V193.28Z" fill="#8B8B8B"/>
<path d="M44.5973 193.28H15.6836V197.094H44.5973V193.28Z" fill="#8B8B8B"/>
<path d="M77.2184 193.28H48.3047V197.094H77.2184V193.28Z" fill="#8B8B8B"/>
<path d="M77.2184 193.28H48.3047V197.094H77.2184V193.28Z" fill="#8B8B8B"/>
<path d="M77.2184 193.28H48.3047V197.094H77.2184V193.28Z" fill="#8B8B8B"/>
<path d="M109.835 193.28H80.9217V197.094H109.835V193.28Z" fill="#8B8B8B"/>
<path d="M109.835 193.28H80.9217V197.094H109.835V193.28Z" fill="#8B8B8B"/>
<path d="M109.835 193.28H80.9217V197.094H109.835V193.28Z" fill="#8B8B8B"/>
<path d="M142.453 193.28H113.539V197.094H142.453V193.28Z" fill="#8B8B8B"/>
<path d="M142.453 193.28H113.539V197.094H142.453V193.28Z" fill="#8B8B8B"/>
<path d="M142.453 193.28H113.539V197.094H142.453V193.28Z" fill="#8B8B8B"/>
<path d="M175.074 193.28H146.16V197.094H175.074V193.28Z" fill="#8B8B8B"/>
<path d="M175.074 193.28H146.16V197.094H175.074V193.28Z" fill="#8B8B8B"/>
<path d="M175.074 193.28H146.16V197.094H175.074V193.28Z" fill="#8B8B8B"/>
<path d="M44.5973 200.45H15.6836V204.265H44.5973V200.45Z" fill="#8B8B8B"/>
<path d="M44.5973 200.45H15.6836V204.265H44.5973V200.45Z" fill="#8B8B8B"/>
<path d="M44.5973 200.45H15.6836V204.265H44.5973V200.45Z" fill="#8B8B8B"/>
<path d="M77.2184 200.45H48.3047V204.265H77.2184V200.45Z" fill="#8B8B8B"/>
<path d="M77.2184 200.45H48.3047V204.265H77.2184V200.45Z" fill="#8B8B8B"/>
<path d="M77.2184 200.45H48.3047V204.265H77.2184V200.45Z" fill="#8B8B8B"/>
<path d="M109.835 200.45H80.9217V204.265H109.835V200.45Z" fill="#8B8B8B"/>
<path d="M109.835 200.45H80.9217V204.265H109.835V200.45Z" fill="#8B8B8B"/>
<path d="M109.835 200.45H80.9217V204.265H109.835V200.45Z" fill="#8B8B8B"/>
<path d="M142.453 200.45H113.539V204.265H142.453V200.45Z" fill="#8B8B8B"/>
<path d="M142.453 200.45H113.539V204.265H142.453V200.45Z" fill="#8B8B8B"/>
<path d="M142.453 200.45H113.539V204.265H142.453V200.45Z" fill="#8B8B8B"/>
<path d="M175.074 200.45H146.16V204.265H175.074V200.45Z" fill="#8B8B8B"/>
<path d="M175.074 200.45H146.16V204.265H175.074V200.45Z" fill="#8B8B8B"/>
<path d="M175.074 200.45H146.16V204.265H175.074V200.45Z" fill="#8B8B8B"/>
<path d="M44.5973 207.621H15.6836V211.435H44.5973V207.621Z" fill="#8B8B8B"/>
<path d="M44.5973 207.621H15.6836V211.435H44.5973V207.621Z" fill="#8B8B8B"/>
<path d="M44.5973 207.621H15.6836V211.435H44.5973V207.621Z" fill="#8B8B8B"/>
<path d="M77.2184 207.621H48.3047V211.435H77.2184V207.621Z" fill="#8B8B8B"/>
<path d="M77.2184 207.621H48.3047V211.435H77.2184V207.621Z" fill="#8B8B8B"/>
<path d="M77.2184 207.621H48.3047V211.435H77.2184V207.621Z" fill="#8B8B8B"/>
<path d="M109.835 207.621H80.9217V211.435H109.835V207.621Z" fill="#8B8B8B"/>
<path d="M109.835 207.621H80.9217V211.435H109.835V207.621Z" fill="#8B8B8B"/>
<path d="M109.835 207.621H80.9217V211.435H109.835V207.621Z" fill="#8B8B8B"/>
<path d="M142.453 207.621H113.539V211.435H142.453V207.621Z" fill="#8B8B8B"/>
<path d="M142.453 207.621H113.539V211.435H142.453V207.621Z" fill="#8B8B8B"/>
<path d="M142.453 207.621H113.539V211.435H142.453V207.621Z" fill="#8B8B8B"/>
<path d="M175.074 207.621H146.16V211.435H175.074V207.621Z" fill="#8B8B8B"/>
<path d="M175.074 207.621H146.16V211.435H175.074V207.621Z" fill="#8B8B8B"/>
<path d="M175.074 207.621H146.16V211.435H175.074V207.621Z" fill="#8B8B8B"/>
<path fill-rule="evenodd" clip-rule="evenodd" d="M206.386 66.2051C206.283 66.3904 206.231 66.6019 206.231 66.8401C206.231 66.8522 206.231 66.8638 206.232 66.8753H206.831C206.83 66.8638 206.83 66.8522 206.83 66.8401C206.83 66.6298 206.886 66.4615 206.999 66.3357C207.111 66.21 207.258 66.1468 207.439 66.1468C207.552 66.1468 207.652 66.1729 207.739 66.2258C207.828 66.2786 207.898 66.3552 207.946 66.4554H208.593C208.524 66.1948 208.388 65.9888 208.184 65.8375C207.979 65.6868 207.733 65.6108 207.446 65.6108C207.212 65.6108 207.002 65.6637 206.816 65.7688C206.632 65.8715 206.488 66.0173 206.386 66.2045L206.386 66.2051ZM206.833 66.913H206.233C206.243 67.1214 206.294 67.3085 206.386 67.475C206.489 67.6604 206.633 67.8056 206.816 67.9107C207.003 68.0134 207.212 68.065 207.447 68.065C207.733 68.065 207.979 67.9903 208.184 67.842C208.388 67.6907 208.525 67.4854 208.594 67.2241H207.946C207.898 67.325 207.829 67.4015 207.739 67.4538C207.652 67.506 207.553 67.5328 207.44 67.5328C207.259 67.5328 207.111 67.4702 207 67.3438C206.9 67.2326 206.845 67.0886 206.833 66.9124V66.913ZM204.916 66.6031L204.916 66.1535H204.327L204.327 68.0547H204.919V67.5844H204.916V67.0558H205.705V66.6025H204.916V66.6031ZM205.808 66.1158H204.925H204.327V65.6455H205.808V66.1158H205.808ZM204.957 67.585V68.0553H205.808V67.585H204.957ZM194.036 65.6479H194.63V66.1182H194.625V66.6055H195.414V67.0582H194.625V67.5492H194.036V65.6479ZM194.036 67.5868V68.0571H195.517V67.5868H194.625H194.036ZM195.517 66.1176H194.668V65.6473H195.517V66.1176ZM193.789 65.654H191.688V66.089H192.915L193.789 65.654ZM192.964 66.1073L192.009 67.5656H192.651L193.801 65.6904L192.964 66.1073ZM191.688 68.0565L191.984 67.6032H192.628H193.823V68.0565H191.688ZM196.421 67.6032H196.416V65.6467H195.828V68.0559H196.422V67.6026L196.421 67.6032ZM196.459 67.6032V68.0565H197.187V67.6032H196.459ZM197.403 65.6467H197.997V66.148H197.992V67.5486H198.27C198.493 67.5486 198.667 67.4878 198.791 67.3669C198.902 67.2581 198.964 67.108 198.974 66.9172H199.574C199.565 67.1263 199.513 67.314 199.417 67.4799C199.314 67.6628 199.166 67.805 198.973 67.9052C198.783 68.0061 198.561 68.0559 198.308 68.0559H197.403V65.6467ZM198.27 66.148H198.034V65.6467H198.308C198.563 65.6467 198.786 65.6971 198.977 65.798C199.167 65.8989 199.314 66.0404 199.417 66.2233C199.523 66.4038 199.576 66.6134 199.576 66.8516C199.576 66.8607 199.575 66.8698 199.575 66.879H198.976C198.976 66.8698 198.976 66.8607 198.976 66.8516C198.976 66.6298 198.914 66.4567 198.79 66.3333C198.666 66.21 198.493 66.148 198.27 66.148H198.27ZM201.296 67.6385H201.296L201.141 67.1779H201.142L200.842 66.2956L200.546 67.1779H201.1L201.253 67.6312H200.39L200.246 68.0565H199.629L200.504 65.6473H201.186L202.061 68.0565H201.437L201.295 67.6391L201.296 67.6385ZM202.145 65.6467H203.378V66.117H203.374V68.0559H202.785V66.117H202.145V65.6467H202.145ZM204.015 66.117H203.416V65.6467H204.015V66.117ZM210.983 65.6467V68.0559H210.394V67.0691H210.394V66.5758H210.394V65.6467H210.983ZM210.356 66.5903V67.0637H209.478V67.0667H208.891V67.1044H209.478V68.0553H208.889V65.6461H209.478V66.5897H210.356V66.5903Z" fill="black"/>
<path fill-rule="evenodd" clip-rule="evenodd" d="M209.234 70.0666C210.246 70.5363 211.482 70.4196 212.4 69.6643C213.672 68.618 213.852 66.7416 212.801 65.4741C212.364 64.9455 211.781 64.6058 211.158 64.4661C211.548 64.6471 211.906 64.9157 212.198 65.2687C213.248 66.5362 213.068 68.4126 211.796 69.4589C211.054 70.069 210.105 70.2628 209.234 70.0666Z" fill="black"/>
<path fill-rule="evenodd" clip-rule="evenodd" d="M212.659 70.3001C213.961 69.4925 214.755 67.9868 214.572 66.3657C214.318 64.1199 212.286 62.5042 210.032 62.757C209.093 62.8621 208.263 63.2759 207.633 63.8848C208.135 63.573 208.713 63.3658 209.341 63.2954C211.595 63.0426 213.627 64.6583 213.88 66.9041C214.028 68.2135 213.539 69.4476 212.658 70.2995L212.659 70.3001Z" fill="black"/>
<path d="M191.854 68.7007V69.2068H191.73V68.7007H191.854ZM192.702 69.2068H192.578L192.371 68.8945V69.2068H192.248V68.7007H192.371L192.578 69.0142V68.7007H192.702V69.2068ZM193.549 69.2068H193.426L193.219 68.8945V69.2068H193.095V68.7007H193.219L193.426 69.0142V68.7007H193.549V69.2068ZM194.183 69.2117C194.135 69.2117 194.091 69.2007 194.051 69.1782C194.012 69.1564 193.98 69.1254 193.956 69.0859C193.933 69.0458 193.922 69.0014 193.922 68.9516C193.922 68.9024 193.933 68.8574 193.956 68.8185C193.98 68.779 194.012 68.7487 194.051 68.7262C194.091 68.7043 194.135 68.6934 194.183 68.6934C194.231 68.6934 194.274 68.7043 194.313 68.7262C194.353 68.7487 194.385 68.779 194.408 68.8185C194.431 68.858 194.442 68.9024 194.442 68.9516C194.442 69.0008 194.431 69.0458 194.408 69.0859C194.385 69.1254 194.353 69.1558 194.313 69.1782C194.274 69.2001 194.23 69.2117 194.183 69.2117ZM194.183 69.0993C194.223 69.0993 194.256 69.0859 194.28 69.0592C194.304 69.0324 194.316 68.9966 194.316 68.9528C194.316 68.9079 194.304 68.8726 194.28 68.8459C194.256 68.8191 194.223 68.8058 194.183 68.8058C194.142 68.8058 194.109 68.8191 194.084 68.8453C194.06 68.8714 194.048 68.9072 194.048 68.9528C194.048 68.9978 194.06 69.0336 194.084 69.0604C194.109 69.0865 194.142 69.0999 194.183 69.0999V69.0993ZM195.291 68.7007L195.111 69.2068H194.956L194.776 68.7007H194.907L195.033 69.0828L195.16 68.7007H195.291H195.291ZM195.962 69.1175H195.773L195.743 69.2068H195.613L195.797 68.7007H195.94L196.124 69.2068H195.993L195.962 69.1175ZM195.931 69.0221L195.867 68.8368L195.805 69.0221H195.931ZM196.848 68.7007V68.7991H196.714V69.2062H196.59V68.7991H196.456V68.7007H196.848ZM197.338 68.7007V69.2068H197.214V68.7007H197.338ZM197.971 69.2117C197.924 69.2117 197.88 69.2007 197.84 69.1782C197.801 69.1564 197.769 69.1254 197.745 69.0859C197.722 69.0458 197.71 69.0014 197.71 68.9516C197.71 68.9024 197.722 68.8574 197.745 68.8185C197.769 68.779 197.8 68.7487 197.84 68.7262C197.88 68.7043 197.924 68.6934 197.971 68.6934C198.02 68.6934 198.063 68.7043 198.102 68.7262C198.142 68.7487 198.174 68.779 198.196 68.8185C198.219 68.858 198.231 68.9024 198.231 68.9516C198.231 69.0008 198.219 69.0458 198.196 69.0859C198.173 69.1254 198.142 69.1558 198.102 69.1782C198.063 69.2001 198.02 69.2117 197.971 69.2117ZM197.971 69.0993C198.012 69.0993 198.044 69.0859 198.068 69.0592C198.093 69.0324 198.105 68.9966 198.105 68.9528C198.105 68.9079 198.093 68.8726 198.068 68.8459C198.045 68.8191 198.012 68.8058 197.971 68.8058C197.93 68.8058 197.897 68.8191 197.873 68.8453C197.849 68.8714 197.836 68.9072 197.836 68.9528C197.836 68.9978 197.849 69.0336 197.873 69.0604C197.897 69.0865 197.93 69.0999 197.971 69.0999V69.0993ZM199.058 69.2068H198.933L198.727 68.8945V69.2068H198.603V68.7007H198.727L198.933 69.0142V68.7007H199.058V69.2068ZM199.634 69.2117C199.597 69.2117 199.564 69.2056 199.535 69.1934C199.505 69.1813 199.482 69.1637 199.463 69.14C199.446 69.1163 199.437 69.0883 199.436 69.0549H199.568C199.57 69.0737 199.577 69.0883 199.588 69.098C199.599 69.1078 199.613 69.1126 199.631 69.1126C199.649 69.1126 199.664 69.1084 199.675 69.1005C199.685 69.092 199.69 69.0798 199.69 69.0652C199.69 69.0531 199.686 69.0427 199.678 69.0342C199.669 69.0257 199.659 69.019 199.646 69.0142C199.634 69.0087 199.617 69.0026 199.594 68.996C199.561 68.9856 199.535 68.9759 199.514 68.9656C199.493 68.9552 199.475 68.9407 199.46 68.9206C199.445 68.9012 199.438 68.875 199.438 68.8434C199.438 68.7967 199.455 68.7596 199.489 68.7335C199.523 68.7067 199.568 68.6934 199.623 68.6934C199.679 68.6934 199.724 68.7067 199.758 68.7335C199.792 68.7596 199.81 68.7967 199.813 68.8447H199.679C199.678 68.8283 199.672 68.8155 199.661 68.8064C199.65 68.7967 199.636 68.7918 199.619 68.7918C199.603 68.7918 199.592 68.796 199.583 68.8039C199.574 68.8118 199.569 68.8228 199.569 68.838C199.569 68.8544 199.577 68.8671 199.592 68.8763C199.608 68.8854 199.631 68.8951 199.664 68.906C199.696 68.917 199.723 68.9279 199.743 68.9376C199.764 68.948 199.782 68.9625 199.797 68.9814C199.812 69.0008 199.819 69.0251 199.819 69.0555C199.819 69.0841 199.812 69.1102 199.797 69.1339C199.782 69.1576 199.761 69.1764 199.733 69.1904C199.705 69.2044 199.672 69.2111 199.634 69.2111L199.634 69.2117ZM201.044 68.8635C201.044 68.8927 201.037 68.9194 201.024 68.9443C201.01 68.968 200.989 68.9881 200.961 69.0026C200.934 69.0178 200.899 69.0251 200.857 69.0251H200.781V69.2068H200.657V68.7007H200.857C200.898 68.7007 200.932 68.7079 200.96 68.7213C200.988 68.7353 201.009 68.7541 201.023 68.779C201.037 68.8033 201.044 68.8319 201.044 68.8635ZM200.848 68.9267C200.871 68.9267 200.889 68.9212 200.901 68.9103C200.912 68.8993 200.918 68.8835 200.918 68.8635C200.918 68.8434 200.912 68.8276 200.901 68.8167C200.889 68.8058 200.871 68.8003 200.848 68.8003H200.781V68.9273H200.848V68.9267ZM201.671 69.2062L201.565 69.0154H201.536V69.2062H201.412V68.7H201.619C201.659 68.7 201.693 68.7073 201.721 68.7207C201.75 68.7347 201.771 68.7535 201.785 68.7784C201.799 68.8021 201.806 68.8295 201.806 68.8592C201.806 68.8933 201.796 68.923 201.777 68.9492C201.758 68.9759 201.731 68.9941 201.693 69.0057L201.81 69.2062H201.671ZM201.536 68.9279H201.612C201.635 68.9279 201.651 68.9224 201.662 68.9115C201.674 68.9006 201.679 68.8848 201.679 68.8647C201.679 68.8453 201.674 68.8307 201.662 68.8191C201.651 68.8082 201.634 68.8027 201.612 68.8027H201.536V68.9279ZM202.311 68.7V69.2062H202.187V68.7H202.311ZM203.181 68.7L203.001 69.2062H202.846L202.666 68.7H202.797L202.923 69.0822L203.05 68.7H203.181H203.181ZM203.853 69.1169H203.664L203.633 69.2062H203.504L203.687 68.7H203.831L204.015 69.2062H203.884L203.854 69.1169H203.853ZM203.821 69.0215L203.759 68.8362L203.697 69.0215H203.822H203.821ZM204.739 68.7V68.7985H204.604V69.2056H204.48V68.7985H204.346V68.7H204.738H204.739ZM205.229 68.7985V68.9012H205.394V68.9966H205.229V69.1078H205.416V69.2062H205.105V68.7H205.416V68.7985H205.229ZM206.38 69.1108H206.542V69.2062H206.257V68.7H206.38V69.1108ZM207.029 68.7V69.2062H206.906V68.7H207.029ZM207.997 68.7V69.2062H207.874V68.903L207.76 69.2062H207.66L207.546 68.9018V69.2062H207.422V68.7H207.568L207.711 69.0506L207.852 68.7H207.997H207.997ZM208.514 68.7V69.2062H208.39V68.7H208.514ZM209.273 68.7V68.7985H209.138V69.2056H209.015V68.7985H208.879V68.7H209.272H209.273ZM209.762 68.7985V68.9012H209.928V68.9966H209.762V69.1078H209.95V69.2062H209.639V68.7H209.95V68.7985H209.762ZM210.524 68.7C210.578 68.7 210.625 68.7104 210.664 68.7316C210.704 68.7529 210.735 68.7827 210.757 68.821C210.779 68.8592 210.79 68.903 210.79 68.9528C210.79 69.002 210.779 69.0464 210.757 69.0847C210.735 69.123 210.704 69.1527 210.663 69.174C210.623 69.1953 210.576 69.2056 210.524 69.2056H210.333V68.6994H210.524L210.524 68.7ZM210.516 69.0993C210.563 69.0993 210.6 69.0865 210.625 69.061C210.651 69.0355 210.664 68.9996 210.664 68.9528C210.664 68.906 210.651 68.8702 210.625 68.8441C210.599 68.8179 210.563 68.8052 210.516 68.8052H210.458V69.0993H210.516Z" fill="black"/>
<path d="M253.621 234.332C254.144 233.829 255.657 231.271 256.754 229.544C257.852 227.817 258.954 226.586 261.297 225.417C262.83 224.651 264.203 224.197 264.203 224.197C264.203 224.197 262.201 228.565 259.94 229.988C257.679 231.411 256.012 232.865 255.302 233.577C254.592 234.288 253.739 236.185 253.739 236.185L253.621 234.332V234.332Z" fill="#668C5B"/>
<path d="M252.708 218.134C252.883 218.691 253.243 219.275 253.605 219.866C253.597 219.923 253.599 219.985 253.617 220.052C253.788 220.668 253.78 221.262 253.787 221.892C253.79 222.149 253.812 222.405 253.837 222.661C253.501 221.988 253.139 221.374 252.769 220.955C249.752 217.533 245.054 215.346 240.594 204.226C246.147 205.592 250.188 210.105 252.708 218.135V218.134Z" fill="#92CA6A"/>
<path d="M253.198 238.928C253.284 234.278 253.225 226.383 253.215 221.437C253.211 219.156 253.269 217.287 253.263 217.041C253.15 212.188 251.402 206.111 253.527 199.484C254.4 196.763 256.226 193.99 258.302 190.835C259.548 199.993 256.123 207.522 255.189 213.729C254.761 216.568 254.101 221.886 254.521 224.371C255.839 223.021 256.555 219.65 257.366 217.956C260.053 212.347 263.942 209.8 268.101 207.17C268.101 207.17 265.015 216.112 261.899 219.495C257.716 224.034 256.704 223.563 254.545 226.736C254.589 227.462 254.242 232.475 254.51 239.079C254.685 243.4 256.029 247.201 256.132 251.264C256.272 256.855 255.842 260.699 255.842 260.699L250.874 261.188C250.874 261.188 250.63 256.105 251.267 250.129C251.808 245.059 253.097 244.359 253.198 238.928Z" fill="#7DA75B"/>
<path d="M247.638 253.286H259.789C260.514 253.286 261.138 253.803 261.27 254.516L265.492 277.308C266.673 283.685 261.069 289.473 253.714 289.473H253.713C246.359 289.473 240.754 283.685 241.935 277.308L246.156 254.516C246.288 253.803 246.912 253.286 247.638 253.286Z" fill="#B8DBEB"/>
<path d="M242.453 274.502L244.577 263.035H262.846L264.97 274.502H242.453Z" fill="#8AC1E9"/>
<path d="M254.101 229.373C253.528 228.87 251.868 226.312 250.664 224.585C249.459 222.858 248.251 221.628 245.681 220.458C243.999 219.692 242.492 219.239 242.492 219.239C242.492 219.239 244.689 223.608 247.169 225.03C249.65 226.453 251.477 227.907 252.256 228.619C253.036 229.33 253.971 231.227 253.971 231.227L254.1 229.373H254.101Z" fill="#7DA75B"/>
<path d="M199.295 172H208.203C208.366 172 208.497 172.131 208.497 172.293V173.834C208.497 173.996 208.366 174.127 208.203 174.127H199.295C199.132 174.127 199 173.996 199 173.834V172.293C199 172.132 199.131 172 199.295 172Z" fill="#4A4E6B"/>
<path d="M199.634 171.849H200.598C200.832 171.849 201.022 171.659 201.022 171.426V170.463C201.022 170.23 200.833 170.041 200.598 170.041H199.634C199.401 170.041 199.211 170.229 199.211 170.463V171.426C199.211 171.659 199.401 171.849 199.634 171.849Z" fill="#6F739F"/>
<path d="M194.352 154H213.648C214.396 154 215 154.637 215 155.423V168.577C215 169.363 214.396 170 213.648 170H194.352C193.606 170 193 169.363 193 168.577V155.423C193 154.637 193.606 154 194.352 154Z" fill="#8385B3"/>
<path d="M194.471 155H213.531C213.789 155 214 155.227 214 155.509V168.49C214 168.77 213.789 169 213.531 169H194.471C194.212 169 194 168.772 194 168.49V155.509C194 155.227 194.211 155 194.471 155Z" fill="#F2FCFF"/>
<path d="M201.295 167.487C200.395 168.196 199.194 168.89 198.584 168.791C197.835 168.67 197.945 168.369 197.945 168.369C196.817 169.197 195.888 170.346 195.508 171.534C195.338 172.067 195.01 173.667 193 175.913C193.894 176.833 194.779 177.763 195.663 178.691L195.671 178.68C197.229 176.261 198.005 175.101 198.994 174.769C199.983 174.437 201.326 174.039 201.469 173.436C201.612 172.832 201.682 173.034 201.966 172.431C202.251 171.828 201.989 171.917 201.85 171.38C201.711 170.842 202.165 170.891 202.167 170.287C202.17 169.683 201.685 169.789 202.014 169.102C202.141 168.836 201.753 168.052 201.389 167.795C201.254 167.699 201.248 167.592 201.295 167.487L201.295 167.487Z" fill="#F9B2A0"/>
<path d="M198.482 170.125C198.608 169.388 198.308 168.932 198.548 168.662C198.705 168.486 198.935 168.523 199.31 168.341C199.955 168.027 199.973 167.364 199.591 167.38C199.21 167.394 197.895 167.555 197.566 167.835C197.236 168.115 196.198 169.675 195.897 170.383C195.597 171.09 195.324 172.262 195.324 172.262L198.13 171.463L198.482 170.126V170.125Z" fill="#F9B2A0"/>
<path d="M179.651 152.031C182.154 153.129 184.259 159.633 185.471 162.741C186.683 165.848 189.259 175.135 187.403 180.33C185.547 185.525 182.91 185.656 180.986 184.168C179.062 182.68 177.427 176.046 175.432 169.926C173.144 162.913 171.91 159.366 173.133 155.61C174.356 151.854 176.409 150.608 179.651 152.031Z" fill="#CDECFA"/>
<path d="M185 176.5C182.527 178.325 180.579 182.586 180.983 184.168C181.389 185.75 183 185.6 190 183.5C195 182 198 175.5 198 175.5C198 175.5 197.326 172.397 195 172C195 172 188.48 173.933 185 176.5Z" fill="#CDECFA"/>
<path d="M154.014 149.831C150.407 152.701 148.17 157.867 147.424 162.253C146.677 166.639 146.251 175.461 146.145 178.506C146.038 181.552 146.358 183.404 147.317 186.815C148.276 190.227 155.216 200.667 155.216 200.667C155.216 200.667 159.042 196.075 159.042 195.685C159.042 195.295 156.91 188.409 155.631 185.761C154.352 183.112 154.032 180.285 154.032 180.285C154.032 180.285 155.951 170.928 156.803 165.372C157.656 159.816 158.527 154.001 156.27 151.916C154.014 149.831 154.014 149.831 154.014 149.831Z" fill="#CDECFA"/>
<path d="M172.676 272.743L173.388 284.649L177.825 285.65L178.538 272.638L172.676 272.743Z" fill="#F9B2A0"/>
<path d="M180.157 286.6C177.129 284.761 176.372 286.676 172.318 285.228C172.066 285.6 171.803 286.041 171.743 286.833C171.717 287.187 171.352 288.765 173.019 288.765C173.939 288.765 181.45 288.751 182.85 288.751C182.85 288.751 183.247 288.551 182.945 287.788C182.945 287.788 181.625 287.165 180.157 286.601V286.6Z" fill="#FEFEFE"/>
<path d="M172.2 284.07C172.679 282.735 174.862 282.778 176.204 283.59C178.582 285.03 177.639 282.895 179.361 284.22C181.584 285.929 182.715 286.149 182.945 287.788C182.945 287.788 176.982 287.595 175.513 287.295C173.584 286.902 172.88 286.199 171.744 286.832C171.744 286.832 171.392 286.323 172.201 284.069L172.2 284.07Z" fill="#5654A1"/>
<path d="M156.445 272.743L157.157 284.649L161.595 285.65L162.306 272.638L156.445 272.743Z" fill="#F9B2A0"/>
<path d="M163.923 286.6C160.894 284.761 160.138 286.676 156.084 285.228C155.832 285.6 155.568 286.041 155.509 286.833C155.482 287.187 155.118 288.765 156.785 288.765C157.705 288.765 165.216 288.751 166.616 288.751C166.616 288.751 167.013 288.551 166.71 287.788C166.71 287.788 165.39 287.165 163.923 286.601L163.923 286.6Z" fill="#FEFEFE"/>
<path d="M155.966 284.07C156.444 282.735 158.627 282.778 159.97 283.59C162.348 285.03 161.405 282.895 163.127 284.22C165.349 285.929 166.481 286.149 166.711 287.788C166.711 287.788 160.749 287.595 159.279 287.295C157.35 286.902 156.646 286.199 155.51 286.832C155.51 286.832 155.158 286.323 155.966 284.069L155.966 284.07Z" fill="#5654A1"/>
<path d="M169.076 204.434C169.256 207.373 169.337 208.843 169.48 211.783C169.48 211.783 167.751 212.694 167.64 214.321C166.552 230.23 165.446 246.451 163.952 262.249C163.14 270.828 161.963 281.298 161.963 281.298C159.777 281.152 157.47 281.079 155.284 280.932C155 276.252 154.271 271.303 154.086 266.264C153.896 261.104 154.249 255.85 153.888 250.693C153.535 245.649 153.447 241.759 153.078 237.081C152.495 229.69 151.883 222.28 151.694 217.124C151.329 207.181 152.626 201.673 152.626 201.673C159.208 202.734 162.498 203.286 169.076 204.433V204.434Z" fill="#5654A1"/>
<path d="M175.146 130.051C175.678 130.73 175.774 133.544 175.454 134.92C175.195 136.042 174.879 137.104 174.884 137.632C174.893 138.808 174.286 142.213 173.826 143.662C173.365 145.11 172.09 145.045 171.471 145.04C171.471 145.04 171.164 146.699 171.32 148.56C171.32 148.56 165.76 150.216 160.613 149.079C160.613 149.079 162.015 147.925 162.187 144.241C162.187 144.241 164.705 135.052 168.601 133.04C172.495 131.027 174.056 128.661 175.145 130.051H175.146Z" fill="#F8AA94"/>
<path d="M174.496 132.788C176.544 131.505 176.553 129.48 176.56 127.726C176.567 126.215 174.729 124.08 173.049 124.091C169.786 124.112 167.978 123.85 165.593 123.786C162.414 123.703 160.415 125.18 159.356 126.687C158.297 128.195 158.841 129.791 158.841 129.791C158.841 129.791 157.16 130.166 156.509 132.505C155.858 134.843 156.785 136.695 158.583 138.81C160.381 140.926 162.188 144.241 162.188 144.241C162.188 144.241 167.195 143.35 168.492 143.599C168.492 143.599 170.535 141.638 171.093 140.741C171.093 140.741 169.816 138.253 171.188 136.469C171.832 135.631 172.551 136.723 172.514 137.953C172.477 139.182 172.455 140.127 172.455 140.127C172.719 139.898 172.851 139.784 173.115 139.555C173.115 139.555 173.749 136.848 173.863 135.571C173.978 134.293 174.496 132.789 174.496 132.789V132.788Z" fill="#3A3033"/>
<path d="M162.879 204.867C162.935 205.803 162.983 206.588 163.025 207.319C163.156 209.584 166.161 211.719 167.268 213.699C167.403 213.941 165.298 214.212 165.346 214.514C166.974 224.81 169.645 235.827 169.912 246.343C170.056 252.004 170.846 257.826 170.94 263.413C171.088 272.161 171.656 280.699 171.656 280.699C173.842 280.846 176.547 280.557 178.934 280.557C181.384 266.323 180.18 250.611 181.27 236.005C182.946 213.549 181.295 203.882 181.295 203.882C174.812 204.276 169.362 204.473 162.879 204.868V204.867Z" fill="#5654A1"/>
<path d="M160.561 147.779L154.012 149.831C154.012 149.831 151.6 152.028 151.037 156.439C150.197 163.018 150.255 172.755 150.29 175.811C150.37 182.669 150.645 187.594 150.165 193.478C149.685 199.363 150.02 207.375 150.02 207.375C150.02 207.375 153.397 211.625 163.101 211.897C175.009 212.233 182.598 206.773 182.598 206.773C182.598 206.773 181.963 188.157 181.129 176.658C180.294 165.16 180.214 164.631 180.214 164.631C179.811 157.734 179.65 152.031 179.65 152.031C179.65 152.031 175.146 147.961 171.984 147.671C168.17 146.92 161.566 147.287 160.561 147.779Z" fill="#CDECFA"/>
<path d="M179.488 159.727C179.489 159.729 180.406 172.738 180.958 178.062C181.232 180.708 181.507 185.52 181.713 189.664C181.816 191.737 181.902 193.643 181.963 195.032C182.023 196.42 182.057 197.288 182.057 197.29L182.544 197.271C182.544 197.268 181.995 183.345 181.442 178.012C181.167 175.36 180.8 170.778 180.502 166.862C180.353 164.904 180.221 163.111 180.127 161.808C180.032 160.506 179.974 159.694 179.974 159.693L179.488 159.727V159.727Z" fill="#67A8C4"/>
<path d="M188.282 177.053C188.282 177.05 188.286 176.919 188.286 176.677C188.285 175.348 188.168 170.696 186.616 165.904L186.152 166.053C187.68 170.765 187.799 175.378 187.798 176.677C187.798 176.913 187.794 177.037 187.794 177.038L188.281 177.053H188.282Z" fill="#67A8C4"/>
<path d="M150.22 199.4C150.231 199.342 150.238 199.272 150.247 199.165C150.316 198.35 150.432 195.574 150.568 191.849C150.979 180.679 151.571 161.043 151.571 161.043L151.084 161.029C151.084 161.03 151.066 161.61 151.035 162.629C150.926 166.197 150.651 175.131 150.378 183.295C150.242 187.377 150.106 191.267 149.992 194.197C149.936 195.661 149.884 196.886 149.841 197.775C149.819 198.219 149.799 198.579 149.782 198.842C149.774 198.973 149.766 199.08 149.759 199.16C149.752 199.239 149.745 199.295 149.742 199.305L150.22 199.4Z" fill="#67A8C4"/>
<path d="M76.6369 259.551L72.5474 252.119H71.3992V259.551H66.6094V239.863H74.6478C76.1976 239.863 77.5143 240.134 78.5974 240.676C79.6987 241.218 80.5207 241.966 81.0623 242.92C81.6038 243.855 81.8746 244.902 81.8746 246.061C81.8746 247.369 81.501 248.538 80.7538 249.567C80.026 250.595 78.9424 251.324 77.5046 251.754L82.0419 259.551H76.6363L76.6369 259.551ZM71.3992 248.726H74.3679C75.2453 248.726 75.8988 248.511 76.3284 248.08C76.7768 247.65 77.0008 247.043 77.0008 246.258C77.0008 245.51 76.7768 244.921 76.3284 244.491C75.8988 244.06 75.2453 243.845 74.3679 243.845H71.3992V248.725V248.726ZM94.1802 259.747C92.3316 259.747 90.6322 259.317 89.0824 258.457C87.5515 257.598 86.3285 256.401 85.4134 254.868C84.5171 253.316 84.0687 251.577 84.0687 249.651C84.0687 247.726 84.5165 245.996 85.4134 244.463C86.3285 242.93 87.5515 241.733 89.0824 240.873C90.6322 240.013 92.3316 239.583 94.1802 239.583C96.0287 239.583 97.719 240.013 99.2499 240.873C100.8 241.733 102.014 242.93 102.891 244.463C103.787 245.996 104.236 247.725 104.236 249.651C104.236 251.577 103.787 253.316 102.891 254.868C101.995 256.401 100.781 257.597 99.2499 258.457C97.719 259.318 96.0287 259.747 94.1802 259.747ZM94.1802 255.373C95.7488 255.373 96.9998 254.849 97.9332 253.802C98.8854 252.755 99.3619 251.371 99.3619 249.651C99.3619 247.912 98.8854 246.529 97.9332 245.5C96.9992 244.453 95.7482 243.93 94.1802 243.93C92.5927 243.93 91.3234 244.444 90.3712 245.472C89.4378 246.501 88.9711 247.894 88.9711 249.651C88.9711 251.39 89.4378 252.783 90.3712 253.83C91.3234 254.858 92.5933 255.372 94.1802 255.372V255.373ZM118.944 259.551L114.939 253.522L111.409 259.551H105.976L112.278 249.539L105.835 239.864H111.409L115.358 245.81L118.831 239.864H124.265L118.019 249.792L124.518 259.552H118.944V259.551Z" fill="black"/>
<path fill-rule="evenodd" clip-rule="evenodd" d="M124.391 232.791H64.4043H64.3417H63.4314V232.795H62.7852H48.4498H47.6715V233.574V257.993V258.772H48.4498H62.7852H63.5634V257.993V254.481V253.702H62.7852H54.7699H53.9917V252.923V248.783V248.004H54.7699H61.6766H62.4548V247.225V243.899V243.12H61.6766H54.7699H53.9917V242.341V238.644V237.865H54.7699H62.7852H63.4314H63.4704H64.3417H64.4043H124.391V232.791ZM63.471 232.012V232.017H47.6728H46.8945V232.796V258.772V259.551H47.6728H63.5641H64.3423V258.772V253.703V252.924H63.5641H54.7705V248.784H62.4554H63.2337V248.005V243.12V242.341H62.4554H54.7705V238.644H63.471H63.5641H64.2486H64.3417H124.391H125.168V237.865V232.791V232.012H124.391H64.248H63.4697H63.471Z" fill="black"/>
<g clip-path="url(#clip1_25_824)">
<path d="M197.358 158.008L197.145 157.605H197.086V158.008H196.837V156.942H197.255C197.335 156.942 197.404 156.957 197.46 156.986C197.517 157.016 197.56 157.056 197.588 157.108C197.616 157.158 197.63 157.215 197.63 157.278C197.63 157.349 197.611 157.412 197.572 157.467C197.534 157.523 197.478 157.562 197.403 157.586L197.639 158.008H197.358ZM197.086 157.422H197.24C197.286 157.422 197.32 157.41 197.342 157.387C197.365 157.364 197.377 157.331 197.377 157.288C197.377 157.248 197.365 157.216 197.342 157.193C197.32 157.17 197.286 157.158 197.24 157.158H197.086V157.422ZM198.27 158.018C198.174 158.018 198.086 157.995 198.005 157.948C197.925 157.902 197.862 157.837 197.814 157.754C197.768 157.67 197.744 157.576 197.744 157.472C197.744 157.368 197.768 157.274 197.814 157.191C197.862 157.108 197.925 157.044 198.005 156.997C198.086 156.951 198.174 156.927 198.27 156.927C198.366 156.927 198.454 156.951 198.533 156.997C198.614 157.044 198.677 157.108 198.723 157.191C198.769 157.274 198.793 157.368 198.793 157.472C198.793 157.576 198.769 157.67 198.723 157.754C198.676 157.837 198.613 157.902 198.533 157.948C198.454 157.995 198.366 158.018 198.27 158.018ZM198.27 157.781C198.351 157.781 198.416 157.753 198.465 157.696C198.515 157.64 198.539 157.565 198.539 157.472C198.539 157.378 198.515 157.303 198.465 157.247C198.416 157.191 198.351 157.162 198.27 157.162C198.187 157.162 198.121 157.19 198.072 157.246C198.023 157.302 197.999 157.377 197.999 157.472C197.999 157.566 198.023 157.641 198.072 157.698C198.121 157.754 198.187 157.781 198.27 157.781ZM199.557 158.008L199.349 157.681L199.166 158.008H198.883L199.211 157.466L198.876 156.942H199.166L199.371 157.264L199.551 156.942H199.834L199.509 157.48L199.847 158.008H199.557Z" fill="black"/>
<path fill-rule="evenodd" clip-rule="evenodd" d="M199.898 156.079L196.643 156.078H196.638H196.552V156.079H196.492H195.146H195.073V156.157V158.611V158.689H195.146H196.492H196.565V158.611V158.258V158.18H196.492H195.739H195.666V158.101V157.685V157.607H195.739H196.388H196.461V157.529V157.194V157.116H196.388H195.739H195.666V157.038V156.666V156.588H195.739H196.492H196.552H196.556H196.638H196.643L199.898 156.588V156.079ZM196.556 156V156H195.073H195V156.079V158.689V158.767H195.073H196.565H196.638V158.689V158.18V158.101H196.565H195.739V157.685H196.461H196.534V157.607V157.116V157.038H196.461H195.739V156.666H196.556H196.565H196.629H196.638L199.898 156.667H199.971V156.588V156.079V156H199.898L196.629 156H196.556Z" fill="black"/>
<path d="M196.832 158.782V158.127H197.085C197.131 158.127 197.17 158.137 197.204 158.156C197.237 158.175 197.263 158.202 197.281 158.236C197.299 158.27 197.308 158.309 197.308 158.354C197.308 158.399 197.299 158.439 197.28 158.472C197.262 158.506 197.236 158.532 197.202 158.551C197.168 158.569 197.127 158.579 197.08 158.579H196.924V158.454H197.053C197.075 158.454 197.094 158.45 197.109 158.441C197.124 158.433 197.135 158.422 197.143 158.407C197.151 158.392 197.155 158.374 197.155 158.354C197.155 158.334 197.151 158.316 197.143 158.301C197.135 158.287 197.124 158.275 197.109 158.267C197.094 158.259 197.075 158.255 197.053 158.255H196.98V158.782H196.832ZM197.381 158.782V158.127H197.634C197.68 158.127 197.72 158.136 197.753 158.154C197.786 158.171 197.812 158.196 197.83 158.229C197.848 158.262 197.857 158.301 197.857 158.345C197.857 158.391 197.848 158.429 197.83 158.461C197.811 158.492 197.785 158.517 197.751 158.533C197.717 158.55 197.676 158.558 197.63 158.558H197.47V158.433H197.602C197.624 158.433 197.643 158.43 197.658 158.424C197.673 158.417 197.685 158.408 197.692 158.395C197.7 158.382 197.704 158.366 197.704 158.345C197.704 158.325 197.7 158.308 197.692 158.295C197.685 158.282 197.673 158.272 197.658 158.265C197.643 158.258 197.624 158.255 197.602 158.255H197.529V158.782H197.381ZM197.726 158.483L197.878 158.782H197.717L197.567 158.483H197.726ZM198.087 158.127V158.782H197.939V158.127H198.087ZM198.701 158.127V158.782H198.575L198.331 158.404H198.327V158.782H198.179V158.127H198.307L198.548 158.504H198.553V158.127H198.701ZM198.774 158.256V158.127H199.291V158.256H199.105V158.782H198.96V158.256H198.774ZM199.694 158.324C199.692 158.3 199.683 158.282 199.668 158.269C199.652 158.256 199.63 158.249 199.601 158.249C199.582 158.249 199.566 158.252 199.553 158.257C199.54 158.262 199.531 158.27 199.524 158.279C199.518 158.288 199.515 158.299 199.515 158.311C199.514 158.321 199.516 158.329 199.52 158.337C199.524 158.344 199.53 158.351 199.538 158.356C199.546 158.362 199.555 158.367 199.567 158.371C199.578 158.375 199.59 158.379 199.604 158.382L199.657 158.395C199.687 158.402 199.714 158.412 199.737 158.423C199.76 158.435 199.78 158.449 199.796 158.465C199.812 158.481 199.824 158.5 199.832 158.521C199.84 158.542 199.844 158.566 199.844 158.592C199.844 158.633 199.834 158.669 199.815 158.698C199.796 158.728 199.768 158.751 199.732 158.766C199.696 158.782 199.652 158.79 199.601 158.79C199.55 158.79 199.505 158.782 199.467 158.766C199.429 158.749 199.399 158.724 199.378 158.691C199.357 158.657 199.346 158.615 199.346 158.564H199.487C199.489 158.585 199.494 158.603 199.503 158.617C199.513 158.631 199.525 158.641 199.542 158.649C199.558 158.656 199.577 158.659 199.599 158.659C199.619 158.659 199.636 158.657 199.65 158.651C199.664 158.645 199.675 158.637 199.683 158.627C199.69 158.617 199.694 158.605 199.694 158.592C199.694 158.579 199.69 158.569 199.684 158.56C199.677 158.551 199.666 158.543 199.651 158.537C199.637 158.53 199.619 158.524 199.596 158.519L199.532 158.503C199.479 158.49 199.437 158.469 199.407 158.44C199.376 158.411 199.361 158.371 199.362 158.322C199.361 158.281 199.372 158.246 199.392 158.215C199.413 158.185 199.441 158.161 199.477 158.144C199.514 158.127 199.555 158.118 199.601 158.118C199.649 158.118 199.69 158.127 199.725 158.144C199.76 158.161 199.787 158.185 199.806 158.216C199.826 158.247 199.836 158.283 199.836 158.324H199.694Z" fill="#00C2FF"/>
</g>
<rect x="199" y="163" width="10" height="3" rx="1.5" fill="#00C2FF"/>
<path d="M202.578 164.518C202.578 164.555 202.569 164.59 202.551 164.623C202.534 164.656 202.506 164.682 202.468 164.702C202.431 164.722 202.383 164.732 202.326 164.732H202.209V165H202.069V164.302H202.326C202.38 164.302 202.426 164.311 202.464 164.33C202.502 164.349 202.53 164.374 202.549 164.407C202.568 164.44 202.578 164.477 202.578 164.518ZM202.32 164.619C202.359 164.619 202.387 164.61 202.406 164.593C202.425 164.575 202.434 164.55 202.434 164.518C202.434 164.45 202.396 164.416 202.32 164.416H202.209V164.619H202.32ZM203.037 165L202.883 164.728H202.817V165H202.677V164.302H202.939C202.993 164.302 203.039 164.312 203.077 164.331C203.115 164.35 203.144 164.375 203.162 164.408C203.182 164.44 203.191 164.476 203.191 164.516C203.191 164.562 203.178 164.604 203.151 164.641C203.125 164.678 203.085 164.703 203.032 164.717L203.199 165H203.037ZM202.817 164.623H202.934C202.972 164.623 203.001 164.614 203.019 164.596C203.038 164.577 203.047 164.552 203.047 164.519C203.047 164.487 203.038 164.462 203.019 164.445C203.001 164.427 202.972 164.418 202.934 164.418H202.817V164.623ZM203.458 164.302V165H203.318V164.302H203.458ZM204.193 165H204.053L203.736 164.521V165H203.596V164.301H203.736L204.053 164.781V164.301H204.193V165ZM204.807 164.302V164.415H204.621V165H204.481V164.415H204.295V164.302H204.807Z" fill="white"/>
</g>
<defs>
<linearGradient id="paint0_linear_25_824" x1="155.642" y1="0" x2="155.642" y2="385.48" gradientUnits="userSpaceOnUse">
<stop stop-color="#D7F5FF"/>
<stop offset="0.471119" stop-color="#E5F9FF" stop-opacity="0.65"/>
<stop offset="1" stop-color="#AAE8FC"/>
</linearGradient>
<linearGradient id="paint1_linear_25_824" x1="114.839" y1="59.0959" x2="114.839" y2="286.651" gradientUnits="userSpaceOnUse">
<stop stop-color="#0095FF"/>
<stop offset="0.188235" stop-color="#99DBFA"/>
<stop offset="0.388235" stop-color="#8ADEFF"/>
<stop offset="0.678431" stop-color="#61B8FF"/>
<stop offset="1" stop-color="#2ED5FF"/>
</linearGradient>
<clipPath id="clip0_25_824">
<rect width="278" height="233" fill="white" transform="translate(0 59.0957)"/>
</clipPath>
<clipPath id="clip1_25_824">
<rect width="5" height="3" fill="white" transform="translate(195 156)"/>
</clipPath>
</defs>
</svg>
