<svg width="310" height="386" viewBox="0 0 310 386" fill="none" xmlns="http://www.w3.org/2000/svg">
<path d="M0.283515 175.596C5.28351 51.5957 98.3931 -48.6038 309.284 25.0958V347.596C309.284 347.596 254.784 314.596 155.784 371.596C56.7835 428.596 -4.71649 299.596 0.283515 175.596Z" fill="url(#paint0_linear_19_821)"/>
<path d="M153.812 141.41C138.828 141.41 126.682 129.252 126.682 114.253C126.682 99.2545 138.828 87.0957 153.812 87.0957C168.795 87.0957 180.941 99.2545 180.941 114.253C180.941 129.252 168.795 141.41 153.812 141.41Z" fill="#59C0EE"/>
<path d="M224.335 160.739C218.296 160.739 213.401 155.838 213.401 149.793C213.401 143.748 218.296 138.847 224.335 138.847C230.374 138.847 235.269 143.748 235.269 149.793C235.269 155.838 230.374 160.739 224.335 160.739Z" fill="#59C0EE"/>
<path d="M138.791 190.362H113.152L98.3031 244.388H123.943L138.791 190.362Z" fill="#6A8092"/>
<path d="M170.314 220.212H96.8954C94.7844 220.212 93.0726 218.499 93.0726 216.386V166.374C93.0726 164.262 94.7844 162.549 96.8954 162.549H170.314C172.425 162.549 174.136 164.261 174.136 166.374V216.386C174.136 218.499 172.425 220.212 170.314 220.212Z" fill="#6A8092"/>
<path d="M173.427 220.212H100.008C97.8974 220.212 96.1859 218.499 96.1859 216.386V166.374C96.1859 164.262 97.8974 162.549 100.008 162.549H173.427C175.538 162.549 177.249 164.261 177.249 166.374V216.386C177.249 218.499 175.538 220.212 173.427 220.212Z" fill="#B5D0D7"/>
<path d="M100.057 211.386H174.725V165.491H100.057V211.386Z" fill="#4F4479"/>
<path d="M103.92 208.118H170.553V171.919H103.92V208.118Z" fill="#FEFEFE"/>
<path d="M141.552 211.386H124.959L126.69 208.118H143.244C142.689 209.113 142.122 210.201 141.552 211.386ZM170.552 191.968V191.933L174.725 191.369V191.728C173.386 191.754 171.985 191.828 170.552 191.968ZM174.548 177.226C174.719 175.036 174.633 172.947 174.497 171.359L174.725 172.213V177.063L174.548 177.226ZM164.86 168.839H147.482L149.254 165.491H164.251C164.682 166.556 165.086 167.327 165.095 167.344C165.026 167.764 164.945 168.268 164.86 168.839Z" fill="#7B789F"/>
<path d="M143.244 208.118H126.69L129.365 203.064C132.384 202.675 135.091 201.29 137.148 199.248C139.493 201.21 142.513 202.391 145.809 202.392C145.811 202.392 145.812 202.392 145.814 202.392C146.216 202.392 146.614 202.375 147.007 202.34C145.924 203.744 144.621 205.646 143.244 208.118ZM157.686 195.344C158.74 193.418 159.339 191.207 159.34 188.856C159.342 181.378 153.289 175.314 145.818 175.312C145.816 175.312 145.815 175.312 145.814 175.312C145.196 175.312 144.588 175.353 143.992 175.433L145.852 171.919H164.455C164.389 172.504 164.324 173.117 164.266 173.75C164.245 173.818 163.385 176.612 163.228 178.267C163.537 178.365 163.783 178.433 163.982 178.482C163.932 180.537 163.991 182.621 164.233 184.539L164.234 184.541C164.235 184.547 164.236 184.555 164.236 184.562C164.236 184.563 164.237 184.566 164.237 184.567C164.238 184.572 164.239 184.579 164.24 184.584C164.24 184.587 164.24 184.589 164.24 184.591C164.241 184.597 164.242 184.604 164.243 184.61C164.243 184.611 164.243 184.612 164.243 184.613C164.243 184.62 164.245 184.627 164.246 184.634C164.246 184.635 164.246 184.636 164.246 184.636C164.246 184.644 164.247 184.651 164.249 184.658C164.249 184.659 164.249 184.66 164.249 184.66C164.256 184.716 164.263 184.772 164.272 184.827C164.272 184.835 164.273 184.842 164.275 184.85C164.275 184.85 164.275 184.851 164.275 184.853C164.276 184.859 164.277 184.867 164.278 184.873C164.278 184.874 164.278 184.876 164.279 184.878C164.28 184.884 164.281 184.89 164.281 184.896C164.281 184.898 164.281 184.9 164.282 184.901C164.283 184.908 164.284 184.912 164.284 184.919C164.284 184.921 164.285 184.924 164.285 184.926C164.286 184.931 164.287 184.937 164.287 184.941C164.287 184.944 164.288 184.946 164.288 184.948C164.289 184.954 164.29 184.961 164.29 184.965C164.291 184.967 164.291 184.969 164.291 184.972C164.292 184.978 164.293 184.984 164.295 184.991C164.295 184.991 164.295 184.993 164.295 184.993C164.295 185 164.296 185.006 164.297 185.012C164.298 185.014 164.298 185.017 164.299 185.019C164.299 185.024 164.3 185.03 164.301 185.036C164.301 185.038 164.301 185.039 164.302 185.04C164.302 185.047 164.303 185.055 164.305 185.061C164.305 185.062 164.305 185.064 164.305 185.064C164.31 185.095 164.314 185.126 164.319 185.157C164.319 185.159 164.319 185.16 164.319 185.161C164.32 185.168 164.322 185.174 164.323 185.181C164.323 185.181 164.323 185.184 164.323 185.185C164.324 185.19 164.325 185.196 164.326 185.202C164.326 185.205 164.327 185.207 164.327 185.21C164.327 185.216 164.328 185.221 164.329 185.227C164.33 185.228 164.33 185.231 164.331 185.233C164.331 185.238 164.332 185.243 164.333 185.248C164.333 185.251 164.334 185.254 164.334 185.257C164.334 185.262 164.335 185.266 164.336 185.271C164.337 185.274 164.337 185.277 164.338 185.28C164.338 185.284 164.339 185.289 164.339 185.293C164.34 185.296 164.341 185.3 164.341 185.303C164.342 185.308 164.343 185.312 164.343 185.317C164.344 185.319 164.344 185.323 164.345 185.326C164.346 185.33 164.346 185.334 164.347 185.338C164.347 185.342 164.348 185.346 164.349 185.35C164.349 185.353 164.35 185.357 164.351 185.36C164.351 185.365 164.351 185.368 164.352 185.372C164.353 185.376 164.354 185.38 164.354 185.384C164.355 185.387 164.356 185.391 164.356 185.394C164.357 185.399 164.357 185.404 164.358 185.408C164.359 185.411 164.359 185.414 164.36 185.417C164.36 185.422 164.361 185.427 164.362 185.432C164.362 185.434 164.363 185.437 164.364 185.439C164.365 185.447 164.366 185.454 164.367 185.462C164.377 185.46 164.388 185.456 164.398 185.454C164.409 185.452 164.419 185.45 164.43 185.447L164.41 185.462L169.883 185.918L168.768 192.173L170.553 191.932V191.967C169.963 192.024 169.367 192.092 168.768 192.173C164.907 192.695 160.962 194.004 157.686 195.344Z" fill="#FEFEFE"/>
<path d="M98.3031 248.311H143.765V244.388L98.3031 244.388V248.311Z" fill="#B5D0D7"/>
<path d="M129.283 224.967H103.643L104.949 220.212H130.589L129.283 224.967Z" fill="#3D4C5C"/>
<path d="M237.895 232.882C237.895 232.882 232.76 226.549 236.173 216.64C239.585 206.73 255.195 198.469 255.195 198.469C255.195 198.469 256.065 229.716 237.895 232.882Z" fill="#4D5C71"/>
<path d="M236.362 230.283C236.362 230.283 226.036 225.299 224.452 210.635C222.868 195.972 237.801 176.094 237.801 176.094C237.801 176.094 257.602 215.359 236.362 230.283Z" fill="#4072A2"/>
<path d="M236.04 228.509L236.59 188.063L236.036 188.055L235.487 228.502L236.04 228.509Z" fill="#71C7EC"/>
<path d="M236.15 215.845L245.266 209.016L244.933 208.572L235.819 215.401L236.15 215.845Z" fill="#71C7EC"/>
<path d="M236.338 201.572L230.712 194.889L230.287 195.247L235.914 201.931L236.338 201.572Z" fill="#71C7EC"/>
<path d="M235.653 231.461C235.653 231.461 228.084 231.761 222.614 223.7C217.144 215.639 219.693 199.406 219.693 199.406C219.693 199.406 243.415 216.156 235.653 231.461Z" fill="#4D5C71"/>
<path d="M237.44 228.483C237.44 228.483 237.44 228.483 225.245 228.483C225.065 241.646 230.829 249.679 230.829 249.679H244.051C244.051 249.679 249.816 241.646 249.636 228.483C237.44 228.483 237.44 228.483 237.44 228.483Z" fill="#F1B564"/>
<path d="M237.62 248.311H229.984C228.423 245.552 225.243 238.75 225.241 229.096C225.241 228.893 225.241 228.688 225.245 228.483C225.221 230.269 225.308 231.959 225.474 233.549H233.106C233.865 240.844 236.311 245.998 237.62 248.311Z" fill="#E0965D"/>
<path d="M249.408 233.548H233.107C232.942 231.959 232.857 230.267 232.881 228.483C237.441 228.483 237.441 228.483 237.441 228.483C237.441 228.483 237.441 228.483 249.637 228.483C249.637 228.496 249.637 228.509 249.638 228.523C249.638 228.527 249.639 228.532 249.639 228.536C249.639 228.545 249.638 228.555 249.638 228.564C249.638 228.567 249.638 228.572 249.638 228.575C249.639 228.585 249.639 228.596 249.639 228.607C249.639 228.608 249.639 228.61 249.639 228.611C249.657 230.35 249.57 231.996 249.408 233.548Z" fill="#F4C98A"/>
<path d="M233.106 233.549H225.474C225.308 231.959 225.221 230.269 225.245 228.483C228.654 228.483 231.111 228.483 232.88 228.483C232.856 230.268 232.941 231.96 233.106 233.549Z" fill="#E5B086"/>
<path d="M233.127 228.355L225.487 213.62L224.995 213.875L232.635 228.61L233.127 228.355Z" fill="#71C7EC"/>
<path d="M225.475 233.826H249.408V233.271H225.475V233.826Z" fill="#AC844F"/>
<path d="M165.499 353.096C106.68 353.096 58.9985 346.856 58.9985 339.159C58.9985 336.423 65.0258 333.87 75.4379 331.717V341.089H85.8701V329.904C88.1565 329.568 90.5665 329.245 93.0889 328.939V341.089H103.521V327.824C106.607 327.535 109.819 327.266 113.137 327.021L113.399 332.647H139.407V325.644C147.755 325.369 156.499 325.223 165.499 325.223C177.557 325.223 189.145 325.484 199.953 325.967V341.089H210.385V326.517C216.132 326.867 221.595 327.282 226.73 327.754V341.089H237.162V328.849C258.567 331.398 271.998 335.073 271.998 339.159C271.998 346.855 224.317 353.096 165.499 353.096Z" fill="#59C0EE"/>
<path d="M204.889 341.089H210.384V261.812H204.889V341.089Z" fill="#B5D0D7"/>
<path d="M199.952 341.089H204.889V261.812H199.952V341.089Z" fill="#4D5C71"/>
<path d="M210.384 269.84H204.889V269.834C207.143 269.745 209.13 268.615 210.384 266.911V269.84Z" fill="#577182"/>
<path d="M204.891 269.84H204.604C204.7 269.84 204.796 269.838 204.891 269.834V269.84Z" fill="#323A4A"/>
<path d="M68.1664 261.812H244.887V254.286H68.1664V261.812Z" fill="#B5D0D7"/>
<path d="M58.9985 254.286H252.041V248.31H58.9985V254.286Z" fill="#FEFEFE"/>
<path d="M68.1664 254.756H244.887V253.817H68.1664V254.756Z" fill="#4D5C71"/>
<path d="M231.666 341.089H237.16V261.812H231.666V341.089Z" fill="#FEFEFE"/>
<path d="M226.73 341.089L231.666 341.089V261.812H226.729L226.73 341.089Z" fill="#B5D0D7"/>
<path d="M98.0257 341.089H103.52V261.812H98.0257V341.089Z" fill="#FEFEFE"/>
<path d="M93.0889 341.089L98.0257 341.089V261.812H93.0882L93.0889 341.089Z" fill="#B5D0D7"/>
<path d="M98.0257 269.84H103.52V261.812H98.0257V269.84Z" fill="#6A8092"/>
<path d="M93.0882 269.84H98.0257V261.812H93.0882V269.84Z" fill="#577182"/>
<path d="M80.3773 341.089H85.8713V261.812H80.3773V341.089Z" fill="#B5D0D7"/>
<path d="M75.4398 341.089H80.3773V261.812H75.4398V341.089Z" fill="#4D5C71"/>
<path d="M80.3773 269.84H85.8713V261.812H80.3773V269.84Z" fill="#577182"/>
<path d="M75.4398 269.84H80.3773V261.812H75.4398V269.84Z" fill="#323A4A"/>
<path d="M231.666 269.84H237.16V261.812H231.666V269.84Z" fill="#6A8092"/>
<path d="M226.729 269.84H231.666V261.812H226.729V269.84Z" fill="#577182"/>
<path d="M182.977 332.647V341.09H149.019C149.019 341.09 148.191 334.508 156.968 332.647C172.064 332.647 182.977 332.647 182.977 332.647Z" fill="#352E47"/>
<path d="M155.935 276.403C155.033 278.748 154.578 281.309 154.702 283.977L156.966 332.647H182.975V289.237H187.775L155.935 276.403Z" fill="#352E47"/>
<path d="M156.717 262.656L128.583 264.464C118.425 265.117 110.663 273.798 111.136 283.977L113.4 332.647H139.409V289.237H177.477C188.369 289.237 197.364 280.722 197.973 269.836L198.374 262.656H156.717Z" fill="#4F4479"/>
<path d="M164.264 173.749C164.264 173.749 163.385 176.592 163.225 178.267C164.693 178.733 164.773 178.547 164.773 178.547L164.264 173.749Z" fill="#C47D76"/>
<path d="M178.622 183.34L179.266 190.756L168.767 192.174L169.881 185.919L164.408 185.463L173.147 178.503L176.818 175.15L178.622 183.34Z" fill="#EC9283"/>
<path d="M174.135 180.224C172.282 180.734 170.65 181.208 169.206 181.642L164.408 185.463L169.881 185.919C169.881 185.919 173.741 183.026 174.135 180.224Z" fill="#592E2F"/>
<path d="M177.474 289.237C188.366 289.237 197.361 280.722 197.97 269.836L198.371 262.656H167.451C166.277 266.886 162.089 275.581 147.448 276.403C128.031 277.493 123.731 279.208 124.956 294.665C126.181 310.121 139.406 318.682 139.406 318.682V289.237L177.474 289.237Z" fill="#352E47"/>
<path d="M165.342 165.951C165.342 165.951 163.062 177.513 164.365 185.463C170.39 184.018 171.693 183.114 174.135 180.224C175.275 174.623 174.135 168.481 174.135 168.481L165.342 165.951Z" fill="#EC9283"/>
<path d="M164.36 185.417C164.36 185.422 164.361 185.427 164.362 185.432C164.361 185.427 164.36 185.421 164.36 185.417ZM164.352 185.372C164.353 185.376 164.354 185.38 164.354 185.384C164.353 185.38 164.353 185.376 164.352 185.372ZM164.29 184.967C164.29 184.962 164.288 184.955 164.288 184.95C164.288 184.955 164.29 184.961 164.29 184.967ZM164.283 184.92C164.283 184.914 164.282 184.909 164.281 184.902C164.282 184.908 164.283 184.914 164.283 184.92Z" fill="#FEFEFE"/>
<path d="M164.452 171.919C164.469 171.769 164.486 171.62 164.504 171.473C164.486 171.62 164.469 171.768 164.452 171.919Z" fill="#F8DCB3"/>
<path d="M164.517 171.373C164.518 171.363 164.519 171.353 164.521 171.343C164.519 171.354 164.518 171.364 164.517 171.373ZM164.529 171.265L164.53 171.265C164.53 171.265 164.53 171.265 164.529 171.265Z" fill="#F8DCB3"/>
<path d="M164.365 185.463C164.364 185.455 164.363 185.448 164.362 185.44C164.361 185.438 164.36 185.435 164.36 185.433C164.359 185.428 164.358 185.422 164.358 185.417C164.357 185.414 164.357 185.412 164.356 185.409C164.355 185.405 164.355 185.4 164.354 185.395C164.354 185.391 164.353 185.389 164.352 185.384C164.351 185.381 164.351 185.376 164.35 185.372C164.35 185.369 164.349 185.365 164.349 185.361C164.348 185.358 164.347 185.355 164.347 185.351C164.346 185.347 164.345 185.343 164.345 185.339C164.344 185.335 164.344 185.331 164.343 185.327C164.342 185.323 164.342 185.32 164.341 185.318C164.341 185.313 164.34 185.309 164.339 185.304C164.339 185.3 164.338 185.297 164.337 185.294C164.337 185.289 164.337 185.285 164.336 185.281C164.335 185.277 164.335 185.274 164.334 185.272C164.333 185.268 164.332 185.262 164.332 185.258C164.332 185.255 164.331 185.252 164.331 185.249C164.33 185.243 164.329 185.238 164.329 185.234C164.328 185.231 164.328 185.229 164.327 185.227C164.326 185.222 164.325 185.217 164.325 185.211C164.325 185.208 164.324 185.206 164.324 185.203C164.323 185.197 164.322 185.191 164.321 185.185C164.321 185.184 164.321 185.183 164.321 185.182C164.32 185.175 164.318 185.169 164.317 185.162C164.317 185.161 164.317 185.16 164.317 185.158C164.312 185.127 164.308 185.096 164.303 185.064C164.303 185.064 164.303 185.064 164.303 185.062C164.301 185.056 164.301 185.048 164.3 185.041C164.3 185.04 164.299 185.038 164.299 185.036C164.298 185.032 164.297 185.025 164.297 185.02C164.296 185.017 164.296 185.015 164.295 185.012C164.294 185.007 164.293 185 164.293 184.994C164.293 184.993 164.293 184.992 164.293 184.992C164.291 184.985 164.29 184.979 164.289 184.972C164.289 184.97 164.289 184.968 164.288 184.966C164.288 184.96 164.287 184.955 164.286 184.949C164.286 184.947 164.285 184.945 164.285 184.942C164.285 184.937 164.284 184.932 164.283 184.927C164.283 184.924 164.282 184.922 164.282 184.92C164.282 184.913 164.281 184.908 164.28 184.902C164.279 184.9 164.28 184.898 164.28 184.898C164.279 184.891 164.279 184.886 164.278 184.879C164.277 184.877 164.277 184.875 164.277 184.874C164.276 184.868 164.274 184.861 164.274 184.854C164.274 184.853 164.274 184.852 164.274 184.851C164.273 184.844 164.271 184.836 164.27 184.829L164.27 184.827C164.261 184.772 164.255 184.717 164.248 184.662C164.248 184.661 164.248 184.66 164.248 184.659C164.246 184.652 164.245 184.645 164.244 184.638C164.244 184.637 164.244 184.636 164.244 184.635C164.244 184.628 164.242 184.621 164.241 184.614C164.241 184.614 164.241 184.613 164.241 184.611C164.24 184.605 164.239 184.599 164.239 184.592C164.238 184.59 164.238 184.588 164.238 184.586C164.237 184.58 164.236 184.575 164.235 184.568C164.235 184.566 164.234 184.565 164.234 184.563C164.234 184.557 164.233 184.549 164.232 184.543C164.232 184.542 164.232 184.542 164.231 184.541C163.989 182.623 163.93 180.539 163.979 178.483C164.019 176.856 164.126 175.247 164.264 173.752C164.323 173.119 164.387 172.506 164.453 171.92C164.471 171.77 164.488 171.621 164.505 171.474C164.506 171.47 164.506 171.468 164.507 171.465C164.508 171.454 164.509 171.442 164.511 171.43C164.511 171.429 164.511 171.427 164.512 171.426C164.513 171.415 164.514 171.404 164.515 171.393C164.516 171.387 164.517 171.381 164.518 171.374C164.519 171.364 164.52 171.355 164.521 171.345C164.521 171.341 164.522 171.338 164.522 171.335C164.524 171.325 164.524 171.316 164.526 171.305C164.526 171.299 164.527 171.295 164.528 171.289C164.528 171.287 164.529 171.285 164.529 171.283C164.529 171.278 164.53 171.272 164.53 171.267C164.531 171.266 164.531 171.266 164.531 171.266C164.727 169.651 164.937 168.286 165.094 167.345C165.095 167.345 165.095 167.344 165.095 167.344L171.837 169.276C171.838 169.297 171.846 173.484 169.806 176.64C168.25 179.047 167.747 182.892 167.595 184.596C166.697 184.875 165.654 185.154 164.396 185.456C164.386 185.458 164.375 185.461 164.365 185.463Z" fill="#F3BAAF"/>
<path d="M165.094 167.345C165.094 167.345 163.225 163.801 163.225 161.351C163.225 158.9 164.707 155.611 167.574 158.19C170.44 160.77 174.95 162.64 177.977 163.414C181.005 164.188 184.87 170.765 184.161 175.15C183.452 179.535 179.781 182.373 178.621 183.34C177.14 179.084 176.108 177.397 176.108 177.397L174.111 169.927L165.094 167.345Z" fill="#4F4479"/>
<path d="M165.273 171.749C165.309 171.734 165.853 171.546 166.55 171.547C167.271 171.551 168.124 171.733 168.865 172.473C169.061 172.669 169.376 172.669 169.572 172.473C169.767 172.278 169.767 171.961 169.572 171.766C168.604 170.795 167.439 170.544 166.55 170.547C165.62 170.548 164.954 170.801 164.919 170.813C164.661 170.911 164.531 171.2 164.629 171.458C164.726 171.717 165.015 171.847 165.273 171.749Z" fill="#4F4479"/>
<path d="M166.077 193.362L169.302 189.165C169.302 189.165 176.874 187.469 184.248 189.165C186.376 192.611 186.376 192.611 186.376 192.611C186.376 192.611 171.502 192.362 166.077 193.362Z" fill="#68BEEA"/>
<path d="M186.377 192.611C186.377 192.611 205.858 196.612 206.358 201.612C206.857 206.613 200.518 265.061 200.518 265.061C200.518 265.061 174.528 267.407 156.717 262.656C152.16 212.363 149.912 199.112 149.912 199.112C149.912 199.112 159.574 193.416 168.768 192.173C177.962 190.931 186.377 192.611 186.377 192.611Z" fill="#68BEEA"/>
<path d="M126.683 233.364C126.683 233.364 117.443 232.198 115.194 235.531C113.967 237.352 113.558 240.639 113.441 243.248C113.338 245.512 114.759 247.566 116.9 248.298L122.937 250.366L126.683 233.364Z" fill="#284E6B"/>
<path d="M149.91 199.112C149.91 199.112 143.916 204.113 138.921 217.613C133.925 231.115 132.677 233.364 132.677 233.364L126.683 233.364C126.683 233.364 116.943 240.615 122.937 250.366C127.334 251.66 133.272 252.956 137.976 253.902C142.42 254.798 146.867 252.401 148.572 248.196L156.547 228.53C156.547 228.53 162.149 202.613 149.91 199.112Z" fill="#68BEEA"/>
<path d="M139.842 254.09C139.226 254.09 138.602 254.029 137.978 253.903C137.962 253.899 137.946 253.896 137.93 253.893C137.925 253.892 137.921 253.891 137.916 253.891C137.908 253.889 137.9 253.887 137.892 253.886C136.532 253.612 135.065 253.306 133.569 252.982C133.483 252.483 133.428 251.974 133.428 251.449C133.428 246.525 137.417 242.532 142.337 242.532C145.237 242.532 147.807 243.927 149.434 246.076L149.35 246.284L148.574 248.197C148.558 248.235 148.543 248.273 148.527 248.311C147.339 251.132 144.91 253.121 142.086 253.817C141.359 253.996 140.607 254.09 139.842 254.09Z" fill="#118DC7"/>
<path d="M162.44 200.629C163.58 198.171 166.067 196.468 168.952 196.468H199.566C202.544 197.668 205.101 199.083 206.012 200.62C205.557 200.53 205.086 200.481 204.604 200.481H197.994H163.893C163.396 200.481 162.909 200.533 162.44 200.629Z" fill="#118DC7"/>
<path d="M178.849 177.397C178.849 179.078 177.489 180.439 175.81 180.439C174.133 180.439 172.772 179.078 172.772 177.397C172.772 175.717 174.133 174.355 175.81 174.355C177.489 174.355 178.849 175.717 178.849 177.397Z" fill="#EC9283"/>
<path d="M173.407 169.609C173.407 169.609 172.389 175.214 172.389 176.182C172.389 177.149 174.526 176.956 174.526 176.956L175.808 174.356L175.879 171.474L174.526 166.574L173.407 169.609Z" fill="#4F4479"/>
<path d="M184.157 175.2C184.157 175.194 184.158 175.189 184.159 175.183C184.158 175.188 184.157 175.194 184.157 175.2Z" fill="#5BC6E3"/>
<path d="M181.99 179.987C180.601 175.569 181.217 167.36 174.641 165.951C168.082 164.546 166.623 157.551 166.616 157.516C166.912 157.665 167.224 157.878 167.558 158.176C167.563 158.181 167.568 158.186 167.574 158.19C167.641 158.251 167.709 158.311 167.778 158.371C170.651 160.857 175.021 162.658 177.977 163.414C180.756 164.124 184.242 169.725 184.246 174.031C184.247 174.416 184.219 174.791 184.161 175.15C184.16 175.158 184.159 175.166 184.157 175.174C184.157 175.176 184.157 175.178 184.156 175.182C184.155 175.188 184.154 175.193 184.153 175.199C184.153 175.201 184.153 175.204 184.152 175.207C184.151 175.212 184.15 175.218 184.149 175.223C184.148 175.226 184.148 175.228 184.148 175.231C184.147 175.237 184.146 175.242 184.145 175.247C184.145 175.25 184.143 175.253 184.143 175.256C184.142 175.261 184.141 175.266 184.14 175.271C184.14 175.274 184.14 175.277 184.138 175.28C184.138 175.286 184.137 175.291 184.136 175.297C184.135 175.299 184.135 175.302 184.134 175.304C184.131 175.32 184.129 175.336 184.126 175.352C184.126 175.355 184.125 175.357 184.125 175.359C184.123 175.365 184.123 175.371 184.121 175.377C184.121 175.38 184.12 175.382 184.12 175.384C184.119 175.389 184.118 175.395 184.117 175.4C184.116 175.404 184.115 175.406 184.115 175.409C184.115 175.414 184.113 175.42 184.112 175.425C184.111 175.428 184.111 175.431 184.11 175.433C184.11 175.439 184.108 175.444 184.107 175.449C184.107 175.453 184.107 175.455 184.105 175.458C184.105 175.464 184.103 175.47 184.102 175.477C184.102 175.478 184.102 175.48 184.101 175.482C184.097 175.498 184.094 175.514 184.091 175.53C184.091 175.531 184.09 175.533 184.09 175.534C184.089 175.541 184.088 175.547 184.086 175.553C184.086 175.556 184.086 175.559 184.085 175.562C184.084 175.567 184.082 175.572 184.081 175.577C184.081 175.58 184.08 175.583 184.08 175.586C184.078 175.59 184.077 175.596 184.077 175.601C184.076 175.604 184.075 175.607 184.074 175.61C184.073 175.614 184.072 175.62 184.071 175.626C184.07 175.628 184.07 175.631 184.069 175.633C184.068 175.64 184.067 175.645 184.065 175.651C184.065 175.653 184.065 175.655 184.064 175.657C184.06 175.674 184.057 175.689 184.053 175.705C184.053 175.707 184.053 175.709 184.053 175.71C184.051 175.717 184.049 175.723 184.048 175.728C184.048 175.731 184.047 175.734 184.046 175.737C184.045 175.742 184.044 175.746 184.043 175.751C184.042 175.755 184.041 175.758 184.04 175.761C184.04 175.766 184.039 175.771 184.037 175.775C184.036 175.779 184.036 175.782 184.036 175.784C184.034 175.789 184.033 175.794 184.031 175.799C184.031 175.802 184.031 175.805 184.03 175.808C184.028 175.813 184.027 175.819 184.026 175.823C184.025 175.827 184.025 175.829 184.024 175.832C184.022 175.84 184.02 175.847 184.018 175.855C184.018 175.856 184.018 175.857 184.018 175.857C184.016 175.865 184.014 175.871 184.013 175.878C184.012 175.881 184.011 175.884 184.01 175.887C184.01 175.891 184.008 175.896 184.007 175.901C184.007 175.905 184.005 175.909 184.004 175.912C184.003 175.916 184.002 175.92 184.001 175.924C184.001 175.927 183.999 175.931 183.998 175.935C183.998 175.939 183.996 175.942 183.996 175.946C183.994 175.95 183.993 175.955 183.993 175.959C183.992 175.962 183.991 175.965 183.99 175.968C183.989 175.973 183.988 175.976 183.986 175.981C183.986 175.985 183.985 175.988 183.984 175.991C183.983 175.995 183.982 176 183.98 176.005C183.98 176.008 183.979 176.01 183.978 176.014C183.975 176.022 183.974 176.031 183.972 176.04C183.971 176.043 183.97 176.046 183.969 176.048C183.967 176.053 183.967 176.059 183.965 176.063C183.964 176.066 183.964 176.068 183.964 176.07C183.962 176.075 183.96 176.081 183.96 176.086C183.959 176.088 183.958 176.09 183.957 176.093C183.955 176.097 183.955 176.102 183.953 176.108C183.952 176.11 183.952 176.113 183.952 176.115C183.95 176.12 183.948 176.125 183.947 176.13C183.947 176.132 183.946 176.134 183.946 176.136C183.944 176.142 183.943 176.147 183.941 176.153C183.941 176.153 183.941 176.154 183.941 176.155C183.933 176.182 183.925 176.21 183.917 176.238C183.915 176.244 183.913 176.251 183.912 176.258C183.912 176.258 183.911 176.259 183.911 176.26C183.909 176.266 183.908 176.272 183.905 176.278C183.905 176.28 183.905 176.28 183.904 176.282C183.489 177.712 182.773 178.951 181.989 179.986L181.99 179.987Z" fill="#5F57A3"/>
<path d="M164.834 174.283L164.89 174.272C165.007 174.249 165.302 174.201 165.687 174.201C166.179 174.201 166.816 174.28 167.425 174.58C167.548 174.641 167.698 174.59 167.759 174.466C167.82 174.342 167.769 174.192 167.645 174.131C166.943 173.786 166.231 173.701 165.687 173.701C165.118 173.701 164.73 173.794 164.717 173.797C164.583 173.83 164.5 173.965 164.533 174.099C164.565 174.233 164.701 174.315 164.834 174.283Z" fill="#4F4479"/>
<path d="M164.003 181.704C165.893 181.202 167.533 179.443 167.533 179.443L163.963 179.809C163.964 180.444 163.977 181.077 164.003 181.704Z" fill="#FEFEFE"/>
<path d="M139.407 332.647L139.407 341.09H105.449C105.449 341.09 104.621 334.508 113.399 332.647C128.495 332.647 139.407 332.647 139.407 332.647Z" fill="#352E47"/>
<path d="M166.775 192.989C166.776 192.989 167.122 192.949 167.735 192.888C169.575 192.704 173.798 192.336 178.056 192.337C181.057 192.335 184.08 192.522 186.263 193.067L186.489 192.156C184.165 191.579 181.097 191.399 178.055 191.398C172.309 191.398 166.676 192.056 166.666 192.058L166.775 192.989Z" fill="#118DC7"/>
<path d="M132.678 233.834H137.235V232.895H132.678V233.834Z" fill="#1C9AD6"/>
<path d="M197.994 269.84H163.893C159.93 269.84 156.717 266.624 156.717 262.656L156.717 207.665C156.717 203.698 159.93 200.481 163.893 200.481H197.994C201.957 200.481 205.17 203.698 205.17 207.665V262.657C205.17 266.624 201.957 269.84 197.994 269.84Z" fill="#61A8D6"/>
<path d="M204.604 269.84L170.503 269.84C166.54 269.84 163.327 266.624 163.327 262.657V207.665C163.327 203.698 166.54 200.481 170.503 200.481L204.604 200.481C208.567 200.481 211.78 203.698 211.78 207.665V262.657C211.78 266.624 208.567 269.84 204.604 269.84Z" fill="#4072A2"/>
<path d="M200.136 283.552H140.264C136.812 283.552 134.014 286.353 134.014 289.809V289.934C134.014 293.389 136.812 296.19 140.264 296.19H200.136C203.588 296.19 206.386 293.39 206.386 289.934V289.809C206.386 286.354 203.588 283.552 200.136 283.552Z" fill="#4072A2"/>
<path d="M182.881 283.552H189.125V269.84H182.881V283.552Z" fill="#FEFEFE"/>
<path d="M182.881 273.605H189.125V269.84H182.881V273.605Z" fill="#61A8D6"/>
<path d="M189.124 345.904C189.124 347.866 180.937 349.456 170.836 349.456C160.737 349.456 152.549 347.866 152.549 345.904C152.549 343.943 160.737 342.353 170.836 342.353C180.937 342.353 189.124 343.943 189.124 345.904Z" fill="#FEFEFE"/>
<path d="M152.549 345.904C152.549 345.904 158.553 335.996 171.018 335.996C183.484 335.996 189.124 345.904 189.124 345.904H152.549Z" fill="#FEFEFE"/>
<path d="M167.901 346.161H174.135V296.19H167.901V346.161Z" fill="#FEFEFE"/>
<path d="M167.901 304.525H174.135V296.19H167.901V304.525Z" fill="#61A8D6"/>
<path d="M204.604 269.84L177.807 269.84C179.52 236.006 211.78 207.665 211.78 207.665V262.657C211.78 266.528 208.722 269.683 204.891 269.834C204.796 269.838 204.7 269.84 204.604 269.84Z" fill="#1B596D"/>
<path d="M113.871 181.374L112.78 179.391H112.474V181.374H111.198V176.12H113.34C113.754 176.12 114.104 176.192 114.393 176.337C114.687 176.481 114.906 176.681 115.05 176.935C115.195 177.185 115.267 177.464 115.267 177.774C115.267 178.123 115.167 178.435 114.968 178.709C114.774 178.984 114.485 179.179 114.102 179.293L115.312 181.374H113.871ZM112.474 178.485H113.266C113.5 178.485 113.674 178.427 113.788 178.313C113.908 178.198 113.968 178.036 113.968 177.826C113.968 177.627 113.908 177.469 113.788 177.355C113.674 177.24 113.5 177.182 113.266 177.182H112.474V178.485ZM118.547 181.427C118.054 181.427 117.601 181.312 117.188 181.082C116.78 180.853 116.454 180.533 116.21 180.124C115.971 179.71 115.852 179.246 115.852 178.732C115.852 178.218 115.971 177.756 116.21 177.347C116.454 176.938 116.78 176.619 117.188 176.389C117.601 176.159 118.054 176.045 118.547 176.045C119.04 176.045 119.49 176.159 119.898 176.389C120.312 176.619 120.635 176.938 120.869 177.347C121.108 177.756 121.227 178.218 121.227 178.732C121.227 179.246 121.108 179.71 120.869 180.124C120.63 180.533 120.307 180.853 119.898 181.082C119.49 181.312 119.04 181.427 118.547 181.427ZM118.547 180.259C118.965 180.259 119.299 180.119 119.548 179.84C119.801 179.56 119.928 179.191 119.928 178.732C119.928 178.268 119.801 177.899 119.548 177.624C119.299 177.345 118.965 177.205 118.547 177.205C118.124 177.205 117.786 177.342 117.532 177.617C117.283 177.891 117.158 178.263 117.158 178.732C117.158 179.196 117.283 179.568 117.532 179.847C117.786 180.122 118.124 180.259 118.547 180.259ZM125.148 181.374L124.081 179.765L123.14 181.374H121.691L123.371 178.702L121.654 176.12H123.14L124.193 177.706L125.118 176.12H126.567L124.902 178.769L126.634 181.374H125.148Z" fill="black"/>
<path fill-rule="evenodd" clip-rule="evenodd" d="M126.602 174.232H110.352V174.233H106.151V181.166H110.387V179.813H107.836V178.292H110.092V176.988H107.836V175.586H126.602V174.232ZM110.362 174.024V174.025H105.944V181.374H110.595V179.605H108.043V178.5H110.299V176.78H108.043V175.794H126.809V174.024H110.362Z" fill="black"/>
<defs>
<linearGradient id="paint0_linear_19_821" x1="154.642" y1="0" x2="154.642" y2="385.48" gradientUnits="userSpaceOnUse">
<stop stop-color="#D7F5FF"/>
<stop offset="0.471119" stop-color="#E5F9FF" stop-opacity="0.65"/>
<stop offset="1" stop-color="#AAE8FC"/>
</linearGradient>
</defs>
</svg>
