<svg width="977" height="390" viewBox="0 0 977 390" fill="none" xmlns="http://www.w3.org/2000/svg">
<path d="M83.1694 113.436L1.16157e-05 89L60.4112 122.087L83.1694 113.436Z" fill="#82D6F4"/>
<path d="M0.000287287 89L60.4115 122.087L50.7101 142.759L0.000287287 89Z" fill="#29ABE2"/>
<path d="M0.000830107 89L48.1577 126.42L28.7986 153L0.000830107 89Z" fill="#82D6F4"/>
<path d="M50.7084 142.759L48.1554 126.42L42.5534 134.108L50.7084 142.759Z" fill="#0071BC"/>
<path d="M960.012 249.56C929.614 223.25 906.748 217.242 867.882 218.749C829.017 220.256 777.479 260.472 736.837 311.415C716.41 338.932 708.736 344.927 670.714 343.758C632.693 342.589 600.053 314.146 621.847 264.274C643.641 214.402 658.563 121.104 598.267 114.171C537.97 107.238 453.923 182.858 395.27 191.903C336.617 200.947 251.594 167.709 249.885 114.685C248.175 61.6605 295.594 37.4394 323.575 39.7355C351.556 42.0316 395.258 81.9999 388.732 120.755C382.206 159.51 322.877 200.647 244.458 200.726C166.039 200.805 116.495 190.852 62.819 151.622" stroke="black" stroke-width="2" stroke-dasharray="14 14" stroke-dashoffset="14"/>
</svg>
