<svg width="1035" height="1055" viewBox="0 0 1035 1055" fill="none" xmlns="http://www.w3.org/2000/svg">
<path d="M137.871 455.39C25.4725 574.115 104.212 805.194 287.448 807.372L578.443 812.391L747.023 815.3L785.928 681.895L758.221 498.452L753.168 209.163C591.887 186.167 262.961 94.6528 347.059 251.246C431.157 407.838 250.27 336.665 137.871 455.39Z" fill="url(#paint0_linear_104_408)"/>
<path d="M551.352 711.808C551.352 712.609 543.803 713.259 534.491 713.259C525.179 713.259 517.63 712.61 517.63 711.808C517.63 711.007 525.179 710.358 534.491 710.358C543.803 710.358 551.352 711.007 551.352 711.808Z" fill="#5B8AB5"/>
<path d="M452.823 713.982C464.455 713.982 473.884 713.171 473.884 712.17C473.884 711.169 464.455 710.358 452.823 710.358C441.192 710.358 431.762 711.169 431.762 712.17C431.762 713.171 441.192 713.982 452.823 713.982Z" fill="#5B8AB5"/>
<path d="M459.493 711.04C459.493 711.04 475.673 702.947 473.72 696.756C471.766 690.565 464.414 696.756 464.414 696.756C464.414 696.756 467.517 670.239 455.292 667.201C443.067 664.163 445.632 676.38 445.632 676.38C445.632 676.38 446.667 640.034 420.577 630.382C394.487 620.73 435.483 690.187 435.483 690.187C435.483 690.187 428.688 683.533 422.687 685.108C416.686 686.683 441.591 711.039 441.591 711.039H459.493V711.04Z" fill="#EFFDFF"/>
<path d="M451.091 711.04C451.091 711.04 427.714 641.523 413.92 630.058" stroke="#63A0ED" stroke-width="0.4826" stroke-miterlimit="10" stroke-linecap="round" stroke-linejoin="round"/>
<path d="M456.028 667.423L447.912 701.925" stroke="#63A0ED" stroke-width="0.4826" stroke-miterlimit="10" stroke-linecap="round" stroke-linejoin="round"/>
<path d="M473.307 695.762L450.141 708.267L421.797 685.975" stroke="#63A0ED" stroke-width="0.4826" stroke-miterlimit="10" stroke-linecap="round" stroke-linejoin="round"/>
<path d="M529.667 711.04C529.667 711.04 520.359 706.384 521.483 702.823C522.607 699.262 526.837 702.823 526.837 702.823C526.837 702.823 525.052 687.569 532.084 685.822C539.117 684.075 537.641 691.102 537.641 691.102C537.641 691.102 537.046 670.194 552.054 664.642C567.062 659.09 543.479 699.045 543.479 699.045C543.479 699.045 547.388 695.217 550.84 696.123C554.292 697.029 539.966 711.04 539.966 711.04H529.667Z" fill="#EFFDFF"/>
<path d="M534.501 711.04C534.501 711.04 547.949 671.05 555.884 664.455" stroke="#63A0ED" stroke-width="0.7765" stroke-miterlimit="10" stroke-linecap="round" stroke-linejoin="round"/>
<path d="M531.661 685.949L536.329 705.797" stroke="#63A0ED" stroke-width="0.7765" stroke-miterlimit="10" stroke-linecap="round" stroke-linejoin="round"/>
<path d="M521.721 702.251L535.047 709.445L551.352 696.621" stroke="#63A0ED" stroke-width="0.7765" stroke-miterlimit="10" stroke-linecap="round" stroke-linejoin="round"/>
<path d="M183.829 713.982C192.749 713.982 199.979 713.171 199.979 712.17C199.979 711.169 192.749 710.358 183.829 710.358C174.91 710.358 167.679 711.169 167.679 712.17C167.679 713.171 174.91 713.982 183.829 713.982Z" fill="#5B8AB5"/>
<path d="M180.55 711.04C180.55 711.04 171.242 706.384 172.366 702.823C173.49 699.262 177.72 702.823 177.72 702.823C177.72 702.823 175.935 687.569 182.968 685.822C190.001 684.075 188.525 691.102 188.525 691.102C188.525 691.102 187.93 670.194 202.938 664.642C217.946 659.09 194.363 699.045 194.363 699.045C194.363 699.045 198.272 695.217 201.724 696.123C205.176 697.029 190.849 711.04 190.849 711.04H180.55Z" fill="#EFFDFF"/>
<path d="M185.384 711.04C185.384 711.04 198.832 671.05 206.766 664.455" stroke="#63A0ED" stroke-width="0.7765" stroke-miterlimit="10" stroke-linecap="round" stroke-linejoin="round"/>
<path d="M182.543 685.949L187.212 705.797" stroke="#63A0ED" stroke-width="0.7765" stroke-miterlimit="10" stroke-linecap="round" stroke-linejoin="round"/>
<path d="M172.603 702.251L185.929 709.445L202.235 696.621" stroke="#63A0ED" stroke-width="0.7765" stroke-miterlimit="10" stroke-linecap="round" stroke-linejoin="round"/>
<path d="M534.491 765.813C565.367 765.813 590.396 764.539 590.396 762.966C590.396 761.394 565.367 760.119 534.491 760.119C503.616 760.119 478.586 761.394 478.586 762.966C478.586 764.539 503.616 765.813 534.491 765.813Z" fill="#5B8AB5"/>
<path d="M398.776 528.334C390.494 532.294 389.313 526.006 389.313 526.006V485.622H276.123V598.812H389.313V557.187C389.313 557.187 390.494 550.899 398.776 554.859C407.058 558.819 423.622 559.967 424.658 541.597C423.623 523.226 407.059 524.374 398.776 528.334Z" fill="#416ED2"/>
<path d="M276.123 485.622V561.655" stroke="#264782" stroke-width="1.0353" stroke-miterlimit="10" stroke-linecap="round" stroke-linejoin="round"/>
<path d="M340.914 485.622H276.123" stroke="#264782" stroke-width="1.0353" stroke-miterlimit="10" stroke-linecap="round" stroke-linejoin="round"/>
<path d="M398.776 528.334C390.494 532.294 389.313 526.006 389.313 526.006V485.622" stroke="#264782" stroke-width="1.0353" stroke-miterlimit="10" stroke-linecap="round" stroke-linejoin="round"/>
<path d="M398.776 554.859C407.058 558.819 423.622 559.967 424.658 541.597C423.623 523.227 407.058 524.375 398.776 528.334" stroke="#264782" stroke-width="1.0353" stroke-miterlimit="10" stroke-linecap="round" stroke-linejoin="round"/>
<path d="M389.313 598.812V557.187" stroke="#264782" stroke-width="1.0353" stroke-miterlimit="10" stroke-linecap="round" stroke-linejoin="round"/>
<path d="M332.201 429.83C332.201 432.022 330.424 433.799 328.232 433.799C326.04 433.799 324.263 432.022 324.263 429.83C324.263 427.638 326.04 425.862 328.232 425.862C330.424 425.862 332.201 427.639 332.201 429.83Z" fill="#264782"/>
<path d="M338.973 433.799C338.973 433.799 344.196 439.556 341.259 445.212C338.585 450.363 333.279 449.587 333.279 449.587C333.279 449.587 331.597 451.14 331.856 452.305C332.115 453.47 331.856 457.093 328.621 456.576C325.386 456.058 325.256 449.588 325.256 449.588L327.456 449.459L329.657 445.214C329.657 445.214 326.507 442.687 327.844 440.53C329.418 437.991 330.82 440.659 330.95 442.083C330.95 442.081 337.42 443.634 338.973 433.799Z" fill="#EFFDFF"/>
<path d="M332.373 429.744C327.628 429.485 322.797 433.281 323.228 439.148C323.659 445.015 328.679 447.097 328.679 447.097L329.656 445.212C329.656 445.212 326.506 442.685 327.843 440.528C329.417 437.989 330.819 440.657 330.949 442.081C330.949 442.081 337.419 443.634 338.972 433.799C338.972 433.799 342.264 437.444 342.138 441.781C342.141 441.766 342.145 441.752 342.148 441.737C343.643 433.111 337.118 430.003 332.373 429.744Z" fill="#264782"/>
<path d="M333.705 452.693C333.242 452.523 331.913 451.755 331.875 451.733C331.834 451.928 331.814 452.122 331.855 452.305C332.114 453.47 331.855 457.093 328.62 456.576C325.385 456.058 325.255 449.588 325.255 449.588C325.255 449.588 319.949 447.69 317.447 452.435C314.945 457.18 312.098 467.964 310.89 469.517C309.682 471.07 304.247 482.889 304.247 482.889C304.247 482.889 305.455 483.32 307.267 482.889C307.267 482.889 313.263 473.313 314.751 471.415C316.239 469.517 319.776 460.545 319.776 460.545C319.776 460.545 320.639 468.137 320.207 471.157C319.776 474.177 319.776 474.177 319.776 474.177C319.776 474.177 327.24 477.283 332.783 473.314C332.783 473.314 331.941 468.914 333.321 466.757C334.701 464.6 336.254 462.443 335.219 458.475C334.185 454.505 334.175 452.865 333.705 452.693Z" fill="#4270C9"/>
<path d="M340.31 472.967C339.706 470.896 338.24 461.234 337.118 457.179C335.997 453.124 333.705 452.693 333.705 452.693C334.174 452.866 334.185 454.505 335.22 458.473C336.002 461.472 335.306 463.436 334.324 465.147C334.324 465.147 335.824 471.155 336.6 473.225C337.376 475.295 341.518 483.578 341.518 483.578H344.106C344.106 483.578 340.914 475.037 340.31 472.967Z" fill="#3D6AB2"/>
<path d="M319.777 474.175C319.777 474.175 316.844 476.504 317.793 481.939C318.742 487.374 330.475 491.602 330.475 491.602C330.475 491.602 326.42 497.727 323.401 502.386C320.382 507.045 319.903 507.304 319.903 507.304C319.903 507.304 319.864 508.943 322.538 509.633C322.538 509.633 329.957 502.127 332.891 499.798C335.824 497.469 341.087 494.277 339.879 489.445C338.671 484.614 327.97 475.188 327.97 475.188C327.97 475.188 324.695 475.986 319.777 474.175Z" fill="#63A0ED"/>
<path d="M348.679 483.08C343.762 480.77 332.784 473.312 332.784 473.312C330.994 474.535 329.214 475.026 328.009 475.223C328.657 475.797 337.733 483.907 339.635 488.717L347.902 491.344C347.902 491.344 352.043 497.383 354.2 499.108C356.357 500.833 361.361 505.924 361.361 505.924C363.173 505.579 364.381 503.94 364.381 503.94C364.381 503.94 353.596 485.39 348.679 483.08Z" fill="#63A0ED"/>
<path d="M307.268 482.888C307.268 482.888 306.556 482.651 306.2 482.683C305.844 482.715 305.779 482.866 305.521 482.888C305.262 482.91 304.529 482.28 304.441 482.471C304.353 482.662 303.709 482.511 303.386 482.662C303.062 482.813 302.674 483.557 302.383 484.01C302.092 484.463 303.127 487.051 303.321 487.439C303.515 487.827 306.168 488.507 306.912 488.604C307.656 488.701 306.847 486.598 307.268 485.757C307.689 484.916 307.495 484.301 308.045 484.301C308.595 484.301 310.115 484.333 310.31 484.236C310.504 484.139 310.278 483.492 308.886 483.265C307.494 483.039 307.268 482.888 307.268 482.888Z" fill="#EFFDFF"/>
<path d="M319.903 507.303C319.903 507.303 319.196 508.322 318.513 508.711C317.633 509.211 316.978 509.837 316.837 511.949C316.696 514.06 315.57 517.228 315.922 517.861C316.274 518.494 317.224 519.339 318.121 519.691C319.019 520.043 318.315 517.72 318.878 516.524C319.441 515.327 319.927 512.512 320.388 511.879C320.849 511.246 322.538 509.634 322.538 509.634C322.538 509.634 320.036 509.201 319.903 507.303Z" fill="#264782"/>
<path d="M319.903 507.303C319.903 507.303 319.196 508.322 318.513 508.711C318.513 508.711 317.923 511.876 317.793 513.515C317.664 515.154 316.903 518.433 318.513 517.354C318.571 517.315 318.625 517.295 318.68 517.267C318.716 516.997 318.776 516.741 318.878 516.523C319.441 515.326 319.927 512.511 320.388 511.878C320.849 511.245 322.538 509.633 322.538 509.633C322.538 509.633 320.036 509.201 319.903 507.303Z" fill="#EFFDFF"/>
<path d="M361.315 505.845C361.315 505.845 362.166 506.747 362.404 507.496C362.711 508.46 363.188 509.231 365.225 509.806C367.262 510.381 370.127 512.138 370.82 511.925C371.513 511.712 372.535 510.958 373.066 510.152C373.596 509.347 371.178 509.554 370.124 508.756C369.07 507.957 366.416 506.899 365.892 506.317C365.368 505.735 364.381 503.938 364.381 503.938C364.381 503.938 363.208 506.066 361.315 505.845Z" fill="#264782"/>
<path d="M361.315 505.845C361.315 505.845 362.166 506.747 362.404 507.496C362.404 507.496 365.378 508.729 366.955 509.195C368.532 509.661 371.582 511.084 370.86 509.286C370.834 509.222 370.825 509.165 370.81 509.105C370.553 509.014 370.315 508.903 370.123 508.757C369.069 507.958 366.415 506.9 365.891 506.318C365.367 505.736 364.38 503.939 364.38 503.939C364.38 503.939 362.851 505.717 361.315 505.845Z" fill="#EFFDFF"/>
<path d="M325.256 449.587C325.256 449.587 325.299 455.195 328.621 456.575C331.942 457.955 332.068 453.015 331.876 451.732" stroke="#264782" stroke-width="0.5176" stroke-miterlimit="10" stroke-linecap="round" stroke-linejoin="round"/>
<path d="M334.324 465.147C334.324 465.147 335.704 463.085 335.505 460.003C335.306 456.92 334.288 454.345 334.288 454.345" stroke="#264782" stroke-width="0.5176" stroke-miterlimit="10" stroke-linecap="round" stroke-linejoin="round"/>
<path d="M319.777 460.544L321.503 457.265" stroke="#264782" stroke-width="0.5176" stroke-miterlimit="10" stroke-linecap="round" stroke-linejoin="round"/>
<path d="M331.322 478.33C331.322 478.33 337.58 484.364 339.636 488.716" stroke="#264782" stroke-width="0.5176" stroke-miterlimit="10" stroke-linecap="round" stroke-linejoin="round"/>
<path d="M589.742 555.661L548.749 556.623C548.747 556.623 542.436 555.588 546.2 547.217C549.964 538.844 550.723 522.257 532.334 521.653C513.993 523.119 515.529 539.652 519.682 547.839C523.833 556.023 517.582 557.353 517.577 557.354L476.584 558.316L477.546 599.309C477.546 599.309 478.874 605.567 487.061 601.414C495.248 597.261 511.781 595.725 513.247 614.066C512.643 632.455 496.056 631.696 487.684 627.932C479.311 624.168 478.278 630.481 478.278 630.481L479.24 671.474L592.398 668.819L589.742 555.661Z" fill="#416ED2"/>
<path d="M479.239 671.475L592.398 668.819" stroke="#264782" stroke-width="1.0353" stroke-miterlimit="10" stroke-linecap="round" stroke-linejoin="round"/>
<path d="M546.2 547.217C549.964 538.844 550.723 522.257 532.334 521.653C513.993 523.119 515.529 539.652 519.682 547.839" stroke="#264782" stroke-width="1.0353" stroke-miterlimit="10" stroke-linecap="round" stroke-linejoin="round"/>
<path d="M592.398 668.819L589.742 555.661" stroke="#264782" stroke-width="1.0353" stroke-miterlimit="10" stroke-linecap="round" stroke-linejoin="round"/>
<path d="M487.684 627.932C479.311 624.168 478.278 630.481 478.278 630.481L479.24 671.474" stroke="#264782" stroke-width="1.0353" stroke-miterlimit="10" stroke-linecap="round" stroke-linejoin="round"/>
<path d="M476.584 558.316L477.546 599.309C477.546 599.309 478.874 605.567 487.061 601.414" stroke="#264782" stroke-width="1.0353" stroke-miterlimit="10" stroke-linecap="round" stroke-linejoin="round"/>
<path d="M517.577 557.354L476.584 558.316" stroke="#264782" stroke-width="1.0353" stroke-miterlimit="10" stroke-linecap="round" stroke-linejoin="round"/>
<path d="M548.672 556.694C548.67 556.694 542.359 555.659 546.123 547.288" stroke="#264782" stroke-width="1.0353" stroke-miterlimit="10" stroke-linecap="round" stroke-linejoin="round"/>
<path d="M347.867 714.668C390.1 714.668 424.336 713.55 424.336 712.17C424.336 710.791 390.1 709.672 347.867 709.672C305.635 709.672 271.398 710.791 271.398 712.17C271.398 713.55 305.635 714.668 347.867 714.668Z" fill="#5B8AB5"/>
<path d="M398.776 644.222C390.494 648.182 389.313 641.894 389.313 641.894V598.812H348.309C348.309 598.812 342.022 597.631 345.981 589.348C349.941 581.066 351.089 564.501 332.718 563.466C314.348 564.501 315.496 581.066 319.455 589.348C323.415 597.63 317.127 598.812 317.127 598.812H276.123V712.001H389.313V673.075C389.313 673.075 390.494 666.787 398.776 670.747C407.058 674.707 423.622 675.855 424.658 657.484C423.623 639.115 407.059 640.263 398.776 644.222Z" fill="#90E3FF"/>
<path d="M276.123 635.969V712.001" stroke="#264782" stroke-width="1.0353" stroke-miterlimit="10" stroke-linecap="round" stroke-linejoin="round"/>
<path d="M398.776 670.926C407.058 674.886 423.622 676.034 424.658 657.663C423.623 639.293 407.058 640.441 398.776 644.4" stroke="#264782" stroke-width="1.0353" stroke-miterlimit="10" stroke-linecap="round" stroke-linejoin="round"/>
<path d="M319.679 589.348C323.638 597.63 317.351 598.812 317.351 598.812H276.967" stroke="#264782" stroke-width="1.0353" stroke-miterlimit="10" stroke-linecap="round" stroke-linejoin="round"/>
<path d="M346.204 589.348C350.164 581.066 351.312 564.501 332.941 563.466C314.571 564.501 315.719 581.066 319.678 589.348" stroke="#264782" stroke-width="1.0353" stroke-miterlimit="10" stroke-linecap="round" stroke-linejoin="round"/>
<path d="M389.313 640.328V598.704" stroke="#264782" stroke-width="1.0353" stroke-miterlimit="10" stroke-linecap="round" stroke-linejoin="round"/>
<path d="M389.313 673.075V712.001H284.492" stroke="#264782" stroke-width="1.0353" stroke-miterlimit="10" stroke-linecap="round" stroke-linejoin="round"/>
<path d="M238.871 715.624C261.742 715.624 280.282 714.292 280.282 712.648C280.282 711.005 261.742 709.672 238.871 709.672C216.001 709.672 197.46 711.005 197.46 712.648C197.46 714.292 216.001 715.624 238.871 715.624Z" fill="#5B8AB5"/>
<path d="M244.203 609.51C246.622 610.969 248.862 613.133 248.085 620.121C247.632 624.65 241.873 626.203 241.873 626.203V628.403C241.873 628.403 239.544 627.756 237.344 628.403V626.333C237.344 626.333 229.968 625.557 229.331 618.659C228.665 611.439 236.05 604.592 244.203 609.51Z" fill="#264782"/>
<path d="M237.344 628.403C237.344 628.403 232.038 630.819 232.383 636.426C232.728 642.033 233.591 653.077 231.52 657.822C231.52 657.822 238.767 659.289 245.841 657.822C245.841 657.822 247.135 650.403 246.272 640.136C245.409 629.87 241.872 628.403 241.872 628.403C241.872 628.403 238.507 627.71 237.344 628.403Z" fill="#63A0ED"/>
<path d="M241.112 637.031L247.581 637.739C247.581 637.739 247.496 632.89 248.618 630.647C248.618 630.647 244.391 628.397 241.112 628.404C237.581 628.411 233.807 635.411 241.112 637.031Z" fill="#63A0ED"/>
<path d="M248.617 630.646C248.617 630.646 255.935 632.648 259.214 633.07C262.492 633.493 273.794 630.646 273.794 630.646V633.07C273.794 633.07 266.116 636.685 259.473 637.375C252.83 638.065 247.581 637.738 247.581 637.738C247.581 637.738 247.079 633.148 248.617 630.646Z" fill="#63A0ED"/>
<path d="M231.521 657.822C231.521 657.822 228.933 664.637 227.725 667.83C226.517 671.022 220.478 686.033 220.478 686.033C220.478 686.033 213.404 701.907 209.09 709.672H213.059C213.059 709.672 224.447 692.417 226 690.002C227.553 687.586 238.423 673.783 245.843 657.822C245.843 657.822 240.148 658.771 231.521 657.822Z" fill="#264782"/>
<path d="M207.934 712.001H219.647L212.771 709.672H209.196L207.934 712.001Z" fill="#264782"/>
<path d="M262.352 712.001H273.794L266.202 709.672H262.545L262.352 712.001Z" fill="#264782"/>
<path d="M245.842 657.822C245.842 657.822 258.955 675.378 262.545 682.41C264.089 685.433 266.202 709.672 266.202 709.672H262.545C262.545 709.672 258.18 693.539 257.273 687.931C256.366 682.323 239.045 670.572 239.045 670.572L245.842 657.822Z" fill="#264782"/>
<path d="M273.794 630.646C273.794 630.646 274.053 623.917 274.225 621.932C274.398 619.948 275.347 621.414 275.519 622.967C275.691 624.52 276.123 630.731 276.123 631.422C276.123 632.112 273.794 633.07 273.794 633.07V630.646Z" fill="#EFFDFF"/>
<path d="M249.185 619.516C248.732 618.587 248.218 616.602 248.218 616.602L248.217 616.606C248.054 613.501 247.039 611.787 245.746 610.629C245.745 610.639 244.713 617.513 238.765 618.483C238.765 618.483 238.422 616.024 236.244 615.981C233.976 615.936 233.979 621.546 237.797 621.934C237.797 621.934 238.056 624.91 237.344 626.334V628.404C239.544 627.757 241.873 628.404 241.873 628.404V626.204C241.873 626.204 247.023 624.905 247.961 620.831C248.561 620.615 249.5 620.163 249.185 619.516Z" fill="#EFFDFF"/>
<path d="M245.842 637.548C245.842 637.548 236.148 638.336 237.005 632.334" stroke="#264782" stroke-width="0.5176" stroke-miterlimit="10" stroke-linecap="round" stroke-linejoin="round"/>
<path d="M239.045 670.572L243.814 661.627" stroke="#EFFDFF" stroke-width="0.5176" stroke-miterlimit="10" stroke-linecap="round" stroke-linejoin="round"/>
<path d="M344.035 767.568C374.911 767.568 399.94 766.294 399.94 764.721C399.94 763.149 374.911 761.874 344.035 761.874C313.16 761.874 288.13 763.149 288.13 764.721C288.13 766.294 313.16 767.568 344.035 767.568Z" fill="#5B8AB5"/>
<path d="M294.553 765.155L331.133 626.674" stroke="#4270C9" stroke-width="1.0353" stroke-miterlimit="10"/>
<path d="M322.432 765.155L359.012 626.674" stroke="#4270C9" stroke-width="1.0353" stroke-miterlimit="10"/>
<path d="M331.133 626.674H359.012" stroke="#4270C9" stroke-width="1.0353" stroke-miterlimit="10"/>
<path d="M329.191 634.366H357.071" stroke="#4270C9" stroke-width="1.0353" stroke-miterlimit="10"/>
<path d="M326.783 642.519H354.661" stroke="#4270C9" stroke-width="1.0353" stroke-miterlimit="10"/>
<path d="M325.057 650.671H352.936" stroke="#4270C9" stroke-width="1.0353" stroke-miterlimit="10"/>
<path d="M322.641 658.824H350.52" stroke="#4270C9" stroke-width="1.0353" stroke-miterlimit="10"/>
<path d="M320.916 666.977H348.795" stroke="#4270C9" stroke-width="1.0353" stroke-miterlimit="10"/>
<path d="M318.5 675.13H346.379" stroke="#4270C9" stroke-width="1.0353" stroke-miterlimit="10"/>
<path d="M316.115 683.283H343.994" stroke="#4270C9" stroke-width="1.0353" stroke-miterlimit="10"/>
<path d="M313.706 691.435H341.585" stroke="#4270C9" stroke-width="1.0353" stroke-miterlimit="10"/>
<path d="M312.153 699.588H340.032" stroke="#4270C9" stroke-width="1.0353" stroke-miterlimit="10"/>
<path d="M309.91 707.741H337.789" stroke="#4270C9" stroke-width="1.0353" stroke-miterlimit="10"/>
<path d="M307.753 715.893H335.632" stroke="#4270C9" stroke-width="1.0353" stroke-miterlimit="10"/>
<path d="M305.423 724.046H333.302" stroke="#4270C9" stroke-width="1.0353" stroke-miterlimit="10"/>
<path d="M302.835 732.199H330.714" stroke="#4270C9" stroke-width="1.0353" stroke-miterlimit="10"/>
<path d="M301.11 740.352H328.989" stroke="#4270C9" stroke-width="1.0353" stroke-miterlimit="10"/>
<path d="M395.173 765.155L358.593 626.674" stroke="#EFFDFF" stroke-width="1.0353" stroke-miterlimit="10"/>
<path d="M367.294 765.155L330.714 626.674" stroke="#EFFDFF" stroke-width="1.0353" stroke-miterlimit="10"/>
<path d="M358.593 626.674H330.714" stroke="#EFFDFF" stroke-width="1.0353" stroke-miterlimit="10"/>
<path d="M360.535 634.366H332.656" stroke="#EFFDFF" stroke-width="1.0353" stroke-miterlimit="10"/>
<path d="M362.944 642.519H335.065" stroke="#EFFDFF" stroke-width="1.0353" stroke-miterlimit="10"/>
<path d="M364.669 650.671H336.79" stroke="#EFFDFF" stroke-width="1.0353" stroke-miterlimit="10"/>
<path d="M367.085 658.824H339.206" stroke="#EFFDFF" stroke-width="1.0353" stroke-miterlimit="10"/>
<path d="M368.81 666.977H340.931" stroke="#EFFDFF" stroke-width="1.0353" stroke-miterlimit="10"/>
<path d="M371.226 675.13H343.347" stroke="#EFFDFF" stroke-width="1.0353" stroke-miterlimit="10"/>
<path d="M373.611 683.283H345.732" stroke="#EFFDFF" stroke-width="1.0353" stroke-miterlimit="10"/>
<path d="M376.02 691.435H348.141" stroke="#EFFDFF" stroke-width="1.0353" stroke-miterlimit="10"/>
<path d="M377.573 699.588H349.694" stroke="#EFFDFF" stroke-width="1.0353" stroke-miterlimit="10"/>
<path d="M379.816 707.741H351.937" stroke="#EFFDFF" stroke-width="1.0353" stroke-miterlimit="10"/>
<path d="M381.973 715.893H354.094" stroke="#EFFDFF" stroke-width="1.0353" stroke-miterlimit="10"/>
<path d="M384.303 724.046H356.424" stroke="#EFFDFF" stroke-width="1.0353" stroke-miterlimit="10"/>
<path d="M386.891 732.199H359.012" stroke="#EFFDFF" stroke-width="1.0353" stroke-miterlimit="10"/>
<path d="M388.616 740.352H360.737" stroke="#EFFDFF" stroke-width="1.0353" stroke-miterlimit="10"/>
<path d="M597.075 765.861C618.945 765.861 636.674 764.565 636.674 762.966C636.674 761.367 618.945 760.071 597.075 760.071C575.205 760.071 557.476 761.367 557.476 762.966C557.476 764.565 575.205 765.861 597.075 765.861Z" fill="#5B8AB5"/>
<path d="M610.422 626.752C610.422 626.752 613.916 624.035 619.998 625.846C626.08 627.658 629.371 635.293 627.467 641.893C625.563 648.493 624.269 650.514 625.434 653.192C626.599 655.87 629.285 660.657 628.007 664.669C626.728 668.681 624.312 673.634 618.834 674.269C611.966 675.065 602.423 669.01 603.681 656.161C604.406 648.752 606.566 647.451 606.165 642.86C605.763 638.27 604.081 631.152 610.422 626.752Z" fill="#264782"/>
<path d="M629.257 762.332H615.144L623.43 759.526H627.737L629.257 762.332Z" fill="#264782"/>
<path d="M575.728 762.332H561.943L571.09 759.526H575.496L575.728 762.332Z" fill="#264782"/>
<path d="M604.622 637.098C605.558 636.145 607.001 633.922 607.001 633.922L607 633.927C608.472 630.188 610.418 628.504 612.477 627.614C612.474 627.627 610.691 638.225 617.583 641.849C617.583 641.849 618.415 639.097 620.905 639.595C623.493 640.113 621.593 645.489 617.379 644.804C617.379 644.804 616.505 647.863 616.343 650.301L616.083 653.191C613.652 651.497 609.945 650.984 609.945 650.984L610.295 647.198C610.295 647.198 605.067 644.587 605.586 639.209C604.937 638.701 603.97 637.762 604.622 637.098Z" fill="#EFFDFF"/>
<path d="M613.059 689.774C613.059 689.774 616.424 715.009 617.459 725.016C618.494 735.024 623.326 737.094 627.467 759.525H623.481C623.481 759.525 614.009 736.404 610.903 731.228C607.797 726.052 602.981 715.174 597.862 692.009C597.862 692.009 608.632 694.627 613.059 689.774Z" fill="#4270C9"/>
<path d="M595.216 691.28C595.216 691.28 582.26 710.522 577.429 717.769C572.598 725.016 570.872 759.525 570.872 759.525H575.358C575.358 759.525 580.362 735.714 582.001 728.122C583.64 720.53 604.29 709.765 609.177 702.585C614.324 695.023 613.059 689.774 613.059 689.774C613.059 689.774 609.537 695.68 595.216 691.28Z" fill="#4270C9"/>
<path d="M617.798 659.234C617.38 654.058 615.493 652.84 615.493 652.84C613.768 651.518 609.942 650.985 609.942 650.985C609.368 651.497 608.82 652.034 608.285 652.583L608.287 652.571C608.287 652.571 602.01 656.29 599.163 658.086C596.316 659.882 596.206 663.544 597.093 666.611C597.979 669.678 597.673 670.516 597.673 670.516L597.677 670.515C594.947 679.984 595.216 691.282 595.216 691.282C608.114 695.405 613.059 689.776 613.059 689.776C613.059 689.776 611.701 683.092 611.716 677.094C611.73 671.458 618.216 664.41 617.798 659.234Z" fill="#00C2FF"/>
<path d="M610.365 650.985C610.365 650.985 613.46 650.836 614.884 654.396C616.308 657.956 607.027 664.008 607.027 664.008C607.027 664.008 604.916 659.765 602.662 657.496C602.662 657.496 605.371 653.27 610.365 650.985Z" fill="#90E3FF"/>
<path d="M607.027 664.008C607.027 664.008 598.37 672.255 596.026 673.649C593.682 675.044 574.538 673.066 574.538 673.066V669.664C574.538 669.664 579.918 669.72 583.873 669.138C587.829 668.556 593.208 668.082 593.208 668.082L602.662 657.496C602.662 657.496 606.29 661.199 607.027 664.008Z" fill="#EFFDFF"/>
<path d="M574.538 669.664C574.538 669.664 573.114 669.585 571.69 668.873C570.266 668.161 568.723 667.568 566.706 667.449C564.689 667.33 565.223 668.131 566.073 668.557C566.573 668.807 568.605 669.665 568.605 669.665H558.4C558.4 669.665 562.435 671.643 564.175 672.117C565.915 672.592 574.538 673.066 574.538 673.066V669.664Z" fill="#EFFDFF"/>
<path d="M602.211 709.246C602.211 709.246 609.936 704.726 612.249 696.582" stroke="#264782" stroke-width="0.5176" stroke-miterlimit="10" stroke-linecap="round" stroke-linejoin="round"/>
<path d="M607.637 663.592C607.637 663.592 614.333 659.117 614.913 655.978" stroke="#264782" stroke-width="0.5176" stroke-miterlimit="10" stroke-linecap="round" stroke-linejoin="round"/>
<path d="M602.662 657.496L604.183 655.585" stroke="#264782" stroke-width="0.5176" stroke-miterlimit="10" stroke-linecap="round" stroke-linejoin="round"/>
<path d="M480.252 765.862C500.889 765.862 517.618 764.758 517.618 763.395C517.618 762.033 500.889 760.928 480.252 760.928C459.616 760.928 442.886 762.033 442.886 763.395C442.886 764.758 459.616 765.862 480.252 765.862Z" fill="#5B8AB5"/>
<path d="M445.404 762.332H459.517L451.232 759.526H446.924L445.404 762.332Z" fill="#264782"/>
<path d="M498.933 762.332H512.718L503.571 759.526H499.165L498.933 762.332Z" fill="#264782"/>
<path d="M470.039 637.098C469.103 636.145 467.66 633.922 467.66 633.922L467.661 633.927C466.19 630.188 464.243 628.504 462.184 627.614C462.187 627.627 463.775 635.521 456.883 639.145C456.883 639.145 456.3 637.4 452.731 638.064C449.162 638.728 452.235 645.811 457.072 644.723C457.072 644.723 458.608 648.265 458.319 650.301L459.167 652.839C461.598 651.145 464.718 650.984 464.718 650.984L463.812 648.273C463.812 648.273 469.596 644.587 469.077 639.209C469.724 638.701 470.691 637.762 470.039 637.098Z" fill="#EFFDFF"/>
<path d="M459.168 652.84C459.168 652.84 455.45 654.575 455.032 659.752C454.614 664.928 459.835 676.057 460.719 681.622C461.603 687.187 461.603 689.775 461.603 689.775C461.603 689.775 468.462 695.598 481.532 691.457C481.532 691.457 484.66 665.9 464.72 650.985C464.72 650.985 460.892 651.518 459.168 652.84Z" fill="#264782"/>
<path d="M457.073 644.724C452.235 645.812 449.163 638.728 452.732 638.065C456.301 637.401 456.884 639.146 456.884 639.146C463.776 635.521 462.188 627.627 462.185 627.614C463.743 628.287 465.235 629.42 466.508 631.549L466.509 631.547C468.827 624.177 464.838 617.435 458.886 618.599C452.933 619.764 451.898 625.846 450.605 628.305C449.312 630.764 446.204 630.246 443.616 634.128C441.028 638.01 445.816 643.446 450.604 646.681C455.392 649.916 458.321 650.302 458.321 650.302C458.609 648.266 457.073 644.724 457.073 644.724Z" fill="#264782"/>
<path d="M464.719 650.985C464.719 650.985 461.344 650.823 459.791 654.705C458.238 658.587 468.359 665.187 468.359 665.187C468.359 665.187 470.661 660.56 473.12 658.086C473.12 658.086 470.165 653.477 464.719 650.985Z" fill="#264782"/>
<path d="M461.602 689.774C461.602 689.774 458.237 715.009 457.202 725.016C456.167 735.024 451.335 737.094 447.194 759.525H451.18C451.18 759.525 460.652 736.404 463.758 731.228C466.864 726.052 471.464 715.788 476.583 692.622C476.583 692.622 467.727 693.872 461.602 689.774Z" fill="#4270C9"/>
<path d="M481.531 691.457C481.531 691.457 492.401 710.523 497.233 717.77C502.064 725.017 503.79 759.526 503.79 759.526H499.304C499.304 759.526 494.3 735.715 492.661 728.123C491.022 720.531 470.372 709.766 465.485 702.586C460.338 695.024 461.603 689.775 461.603 689.775C461.603 689.775 467.21 695.856 481.531 691.457Z" fill="#4270C9"/>
<path d="M468.359 665.187C468.359 665.187 477.8 674.18 480.356 675.701C482.912 677.222 503.79 675.701 503.79 675.701V671.355C503.79 671.355 497.923 671.416 493.61 670.782C489.296 670.148 483.43 669.63 483.43 669.63L473.121 658.086C473.119 658.085 469.162 662.124 468.359 665.187Z" fill="#EFFDFF"/>
<path d="M472.425 709.225C472.425 709.225 462.435 703.28 461.889 694.758" stroke="#264782" stroke-width="0.5176" stroke-miterlimit="10" stroke-linecap="round" stroke-linejoin="round"/>
<path d="M467.177 664.367C467.177 664.367 459.273 659.794 459.791 654.704" stroke="#EFFDFF" stroke-width="0.5176" stroke-miterlimit="10" stroke-linecap="round" stroke-linejoin="round"/>
<path d="M503.789 671.355C503.789 671.355 505.342 671.269 506.895 670.492C508.448 669.716 510.13 669.068 512.33 668.939C514.53 668.81 513.948 669.683 513.02 670.147C512.474 670.42 510.259 671.355 510.259 671.355L521.388 670.978C521.388 670.978 516.988 673.512 515.09 674.03C513.192 674.548 503.788 675.701 503.788 675.701L503.789 671.355Z" fill="#EFFDFF"/>
<path d="M501.035 453.109C499.731 450.89 498.772 442.609 513.772 442.609C528.772 442.609 518.821 425.109 541.047 420.609C563.272 416.109 555.272 444.109 560.772 444.609C566.272 445.109 580.491 446.608 577.726 453.109C574.773 460.052 503.939 458.052 501.035 453.109Z" fill="#63A0ED"/>
<path d="M205.646 432.121C205.646 432.121 207.34 418.621 224.052 419.621C240.764 420.621 239.45 394.621 251.107 392.121C262.764 389.621 265.138 426.614 263.247 432.121C260.415 440.365 203.249 441.813 205.646 432.121Z" fill="#63A0ED"/>
<defs>
<linearGradient id="paint0_linear_104_408" x1="673" y1="792.5" x2="353.4" y2="282.936" gradientUnits="userSpaceOnUse">
<stop stop-color="#AAE8FC"/>
<stop offset="0.59" stop-color="#E6F9FF" stop-opacity="0.649826"/>
<stop offset="1" stop-color="#AAE8FC"/>
</linearGradient>
</defs>
</svg>
