<svg width="30" height="30" viewBox="0 0 30 30" fill="none" xmlns="http://www.w3.org/2000/svg">
<path d="M19.1734 8H11.036C10.2308 8 9.45857 8.31986 8.88921 8.88921C8.31986 9.45857 8 10.2308 8 11.036V19.3564C8 19.755 8.07853 20.1498 8.2311 20.5182C8.38367 20.8865 8.6073 21.2212 8.88921 21.5031C9.17113 21.785 9.50581 22.0087 9.87415 22.1612C10.2425 22.3138 10.6373 22.3923 11.036 22.3923H19.1734C19.572 22.3923 19.9668 22.3138 20.3352 22.1612C20.7035 22.0087 21.0382 21.785 21.3201 21.5031C21.602 21.2212 21.8257 20.8865 21.9782 20.5182C22.1308 20.1498 22.2093 19.755 22.2093 19.3564V11.051C22.2109 10.6511 22.1336 10.2549 21.9817 9.88501C21.8299 9.51512 21.6066 9.17882 21.3245 8.89539C21.0425 8.61197 20.7073 8.38698 20.3382 8.23333C19.969 8.07968 19.5732 8.00039 19.1734 8ZM15.1039 19.5844C14.2984 19.6025 13.5057 19.3803 12.827 18.946C12.1483 18.5117 11.6144 17.885 11.2935 17.1459C10.9725 16.4069 10.8791 15.5889 11.025 14.7965C11.171 14.0041 11.5497 13.2731 12.113 12.6969C12.6762 12.1207 13.3983 11.7254 14.1872 11.5614C14.9761 11.3974 15.7959 11.4721 16.5421 11.7761C17.2883 12.0801 17.927 12.5996 18.3767 13.2682C18.8264 13.9367 19.0667 14.7242 19.0669 15.5299C19.073 16.0564 18.9754 16.5789 18.7795 17.0676C18.5836 17.5563 18.2934 18.0017 17.9254 18.3782C17.5574 18.7547 17.1188 19.055 16.6347 19.262C16.1505 19.4689 15.6304 19.5785 15.1039 19.5844ZM19.5079 11.477C19.4089 11.477 19.3109 11.4572 19.2196 11.4189C19.1284 11.3806 19.0457 11.3245 18.9764 11.2538C18.9071 11.1831 18.8526 11.0993 18.8161 11.0073C18.7796 10.9153 18.7619 10.8169 18.7639 10.718C18.7639 10.5167 18.8438 10.3236 18.9862 10.1813C19.1285 10.0389 19.3216 9.95897 19.5229 9.95897C19.7242 9.95897 19.9172 10.0389 20.0595 10.1813C20.2019 10.3236 20.2818 10.5167 20.2818 10.718C20.2848 10.8251 20.2646 10.9317 20.2226 11.0303C20.1806 11.1289 20.1178 11.2173 20.0384 11.2893C19.9591 11.3614 19.8651 11.4155 19.7629 11.4479C19.6607 11.4803 19.5527 11.4902 19.4464 11.477H19.5079Z" fill="#00C2FF"/>
<path d="M15.075 0.000187759C11.0968 -0.0197032 7.27364 1.54155 4.44656 4.3405C1.61949 7.13944 0.0200787 10.9468 0.000187759 14.925C-0.0197032 18.9032 1.54155 22.7264 4.3405 25.5534C7.13944 28.3805 10.9468 29.9799 14.925 29.9998C16.8948 30.0097 18.8473 29.6314 20.6709 28.8867C22.4945 28.142 24.1536 27.0454 25.5534 25.6595C26.9533 24.2736 28.0664 22.6256 28.8293 20.8095C29.5922 18.9934 29.99 17.0448 29.9998 15.075C30.0097 13.1052 29.6314 11.1527 28.8867 9.32911C28.142 7.50548 27.0454 5.84639 25.6595 4.44656C24.2736 3.04674 22.6256 1.93359 20.8095 1.17068C18.9934 0.407771 17.0448 0.0100368 15.075 0.000187759ZM24.1844 19.0529C24.1886 19.7259 24.0591 20.393 23.8036 21.0155C23.548 21.6381 23.1714 22.2037 22.6957 22.6796C22.2199 23.1555 21.6544 23.5323 21.0319 23.788C20.4094 24.0437 19.7424 24.1734 19.0694 24.1694H11.0835C10.4107 24.1732 9.74382 24.0435 9.12146 23.7878C8.4991 23.5321 7.93363 23.1555 7.45779 22.6798C6.98195 22.2041 6.60519 21.6387 6.34931 21.0164C6.09344 20.3941 5.96353 19.7273 5.96711 19.0544V11.067C5.96293 10.3941 6.09237 9.72703 6.34792 9.10449C6.60347 8.48194 6.98005 7.91632 7.45583 7.4404C7.93161 6.96448 8.49713 6.58773 9.1196 6.332C9.74207 6.07626 10.4091 5.94663 11.082 5.95061H19.0694C19.7423 5.94663 20.4092 6.07622 21.0315 6.33186C21.6539 6.5875 22.2194 6.96411 22.6951 7.43987C23.1709 7.91563 23.5475 8.48108 23.8031 9.10345C24.0588 9.72582 24.1884 10.3927 24.1844 11.0655V19.0529Z" fill="#00C2FF"/>
<path d="M17.4011 15.4462C17.392 15.9214 17.2421 16.3832 16.9703 16.773C16.6985 17.1629 16.317 17.4633 15.8743 17.6361C15.4316 17.8089 14.9475 17.8464 14.4835 17.7438C14.0194 17.6413 13.5963 17.4032 13.2677 17.0599C12.9391 16.7165 12.7198 16.2833 12.6377 15.8152C12.5555 15.3471 12.6142 14.8652 12.8063 14.4304C12.9984 13.9957 13.3152 13.6278 13.7167 13.3734C14.1181 13.119 14.586 12.9894 15.0611 13.0012C15.6924 13.0246 16.2899 13.293 16.7267 13.7494C17.1635 14.2058 17.4054 14.8144 17.4011 15.4462Z" fill="#00C2FF"/>
</svg>
