<svg width="50" height="50" viewBox="0 0 50 50" fill="none" xmlns="http://www.w3.org/2000/svg">
<path d="M29.0226 25.6079C29.0075 26.3999 28.7576 27.1695 28.3046 27.8193C27.8516 28.4691 27.2159 28.9697 26.478 29.2578C25.7402 29.5458 24.9334 29.6083 24.16 29.4373C23.3866 29.2664 22.6813 28.8696 22.1336 28.2974C21.586 27.7251 21.2205 27.0031 21.0836 26.2229C20.9467 25.4428 21.0446 24.6395 21.3647 23.915C21.6849 23.1905 22.2129 22.5773 22.8819 22.1533C23.5509 21.7292 24.3308 21.5133 25.1227 21.533C26.1749 21.5719 27.1706 22.0192 27.8986 22.7799C28.6267 23.5406 29.0298 24.555 29.0226 25.6079Z" fill="white"/>
<path d="M31.9035 13.0828H18.3412C16.9992 13.0828 15.7122 13.6159 14.7633 14.5648C13.8143 15.5137 13.2813 16.8007 13.2812 18.1427V32.01C13.2812 32.6745 13.4121 33.3325 13.6664 33.9464C13.9207 34.5603 14.2934 35.1181 14.7633 35.5879C15.2331 36.0578 15.7909 36.4305 16.4048 36.6848C17.0187 36.9391 17.6767 37.07 18.3412 37.07H31.9035C32.568 37.07 33.226 36.9391 33.8399 36.6848C34.4538 36.4305 35.0116 36.0578 35.4814 35.5879C35.9513 35.1181 36.324 34.5603 36.5783 33.9464C36.8326 33.3325 36.9635 32.6745 36.9635 32.01V18.1677C36.9661 17.5013 36.8372 16.8409 36.5841 16.2244C36.3311 15.608 35.9589 15.0475 35.4888 14.5751C35.0188 14.1027 34.4601 13.7277 33.8449 13.4717C33.2296 13.2156 32.5699 13.0834 31.9035 13.0828ZM25.1211 32.39C23.7785 32.4203 22.4574 32.0499 21.3262 31.3261C20.1951 30.6022 19.3053 29.5578 18.7704 28.326C18.2355 27.0942 18.0797 25.731 18.323 24.4103C18.5662 23.0896 19.1975 21.8713 20.1362 20.911C21.0749 19.9506 22.2784 19.2917 23.5932 19.0184C24.908 18.745 26.2744 18.8696 27.5181 19.3763C28.7618 19.883 29.8263 20.7487 30.5757 21.863C31.3252 22.9773 31.7257 24.2897 31.726 25.6326C31.7363 26.5101 31.5735 27.3809 31.2471 28.1954C30.9206 29.01 30.4369 29.7522 29.8236 30.3797C29.2102 31.0073 28.4792 31.5078 27.6723 31.8527C26.8655 32.1977 25.9986 32.3802 25.1211 32.39ZM32.461 18.8777C32.296 18.8777 32.1327 18.8448 31.9806 18.781C31.8285 18.7171 31.6907 18.6235 31.5753 18.5057C31.4598 18.3879 31.369 18.2482 31.3081 18.0949C31.2473 17.9416 31.2177 17.7776 31.221 17.6127C31.221 17.2772 31.3543 16.9555 31.5915 16.7182C31.8288 16.481 32.1505 16.3477 32.486 16.3477C32.8215 16.3477 33.1433 16.481 33.3805 16.7182C33.6177 16.9555 33.751 17.2772 33.751 17.6127C33.756 17.7913 33.7223 17.9689 33.6522 18.1332C33.5822 18.2976 33.4775 18.4449 33.3453 18.565C33.213 18.6851 33.0564 18.7753 32.8861 18.8292C32.7158 18.8832 32.5358 18.8997 32.3585 18.8777H32.461Z" fill="white"/>
<path d="M25.125 0.000312931C18.4947 -0.0328387 12.1227 2.56926 7.41094 7.23416C2.69915 11.8991 0.0334646 18.2447 0.000312931 24.875C-0.0328387 31.5053 2.56926 37.8773 7.23416 42.5891C11.8991 47.3009 18.2447 49.9665 24.875 49.9997C28.158 50.0161 31.4121 49.3857 34.4515 48.1445C37.4909 46.9034 40.256 45.0757 42.5891 42.7658C44.9221 40.456 46.7774 37.7093 48.0489 34.6824C49.3204 31.6556 49.9833 28.408 49.9997 25.125C50.0161 21.842 49.3857 18.5879 48.1445 15.5485C46.9034 12.5091 45.0757 9.74398 42.7658 7.41094C40.456 5.0779 37.7093 3.22265 34.6824 1.95114C31.6556 0.679618 28.408 0.016728 25.125 0.000312931ZM40.3073 31.7549C40.3143 32.8765 40.0985 33.9883 39.6726 35.0259C39.2467 36.0634 38.6191 37.0061 37.8261 37.7993C37.0331 38.5925 36.0906 39.2205 35.0532 39.6467C34.0157 40.0729 32.904 40.289 31.7824 40.2823H18.4726C17.3512 40.2886 16.2397 40.0724 15.2024 39.6463C14.1652 39.2201 13.2227 38.5925 12.4297 37.7996C11.6366 37.0068 11.0086 36.0645 10.5822 35.0274C10.1557 33.9902 9.93922 32.8788 9.94519 31.7574V18.4451C9.93822 17.3235 10.1539 16.2117 10.5799 15.1741C11.0058 14.1366 11.6334 13.1939 12.4264 12.4007C13.2194 11.6075 14.1619 10.9795 15.1993 10.5533C16.2368 10.1271 17.3485 9.91105 18.4701 9.91769H31.7824C32.9038 9.91105 34.0153 10.127 35.0526 10.5531C36.0899 10.9792 37.0323 11.6068 37.8252 12.3998C38.6182 13.1927 39.2458 14.1351 39.6719 15.1724C40.098 16.2097 40.3139 17.3212 40.3073 18.4426V31.7549Z" fill="white"/>
</svg>
