<svg width="28" height="28" viewBox="0 0 28 28" fill="none" xmlns="http://www.w3.org/2000/svg">
<g clip-path="url(#clip0_506_333)">
<path d="M25 0H3C1.34315 0 0 1.34315 0 3V25C0 26.6569 1.34315 28 3 28H25C26.6569 28 28 26.6569 28 25V3C28 1.34315 26.6569 0 25 0Z" fill="#E54141"/>
<path d="M6.41421 5.70712L5.70711 6.41423C5.31658 6.80476 5.31658 7.43792 5.70711 7.82844L20.6795 22.8008C21.07 23.1913 21.7031 23.1913 22.0937 22.8008L22.8008 22.0937C23.1913 21.7032 23.1913 21.07 22.8008 20.6795L7.82843 5.70712C7.4379 5.3166 6.80474 5.3166 6.41421 5.70712Z" fill="white"/>
<path d="M5.70688 22.0936L6.41399 22.8007C6.80451 23.1912 7.43768 23.1912 7.8282 22.8007L22.8006 7.82836C23.1911 7.43783 23.1911 6.80467 22.8006 6.41414L22.0934 5.70704C21.7029 5.31651 21.0698 5.31651 20.6792 5.70704L5.70688 20.6794C5.31636 21.0699 5.31636 21.7031 5.70688 22.0936Z" fill="white"/>
</g>
<defs>
<clipPath id="clip0_506_333">
<rect width="28" height="28" fill="white"/>
</clipPath>
</defs>
</svg>
