<svg width="31" height="31" viewBox="0 0 31 31" fill="none" xmlns="http://www.w3.org/2000/svg">
<path d="M28.0147 13.4442H27.0078V13.3923H15.7578V18.3923H22.8222C21.7916 21.303 19.0222 23.3923 15.7578 23.3923C11.6159 23.3923 8.25781 20.0342 8.25781 15.8923C8.25781 11.7505 11.6159 8.39233 15.7578 8.39233C17.6697 8.39233 19.4091 9.11358 20.7334 10.2917L24.2691 6.75608C22.0366 4.67546 19.0503 3.39233 15.7578 3.39233C8.85469 3.39233 3.25781 8.98921 3.25781 15.8923C3.25781 22.7955 8.85469 28.3923 15.7578 28.3923C22.6609 28.3923 28.2578 22.7955 28.2578 15.8923C28.2578 15.0542 28.1716 14.2361 28.0147 13.4442Z" fill="#FFC107"/>
<path d="M4.69922 10.0742L8.80609 13.0861C9.91734 10.3348 12.6086 8.39233 15.758 8.39233C17.6698 8.39233 19.4092 9.11358 20.7336 10.2917L24.2692 6.75608C22.0367 4.67546 19.0505 3.39233 15.758 3.39233C10.9567 3.39233 6.79297 6.10296 4.69922 10.0742Z" fill="#FF3D00"/>
<path d="M15.757 28.3923C18.9858 28.3923 21.9195 27.1566 24.1377 25.1473L20.2689 21.8735C19.0139 22.8241 17.4539 23.3923 15.757 23.3923C12.5058 23.3923 9.74516 21.3192 8.70516 18.426L4.62891 21.5666C6.69766 25.6148 10.8989 28.3923 15.757 28.3923Z" fill="#4CAF50"/>
<path d="M28.0147 13.4442H27.0078V13.3923H15.7578V18.3923H22.8222C22.3272 19.7905 21.4278 20.9961 20.2678 21.8742L20.2697 21.873L24.1384 25.1467C23.8647 25.3955 28.2578 22.1423 28.2578 15.8923C28.2578 15.0542 28.1716 14.2361 28.0147 13.4442Z" fill="#1976D2"/>
</svg>
