<svg width="31" height="31" viewBox="0 0 31 31" fill="none" xmlns="http://www.w3.org/2000/svg">
<path d="M30.2119 14.7119H26.7664C26.5726 11.9969 25.4064 9.44286 23.4818 7.51821C21.5571 5.59357 19.0031 4.42739 16.2881 4.2336V0.788136C16.2881 0.579109 16.2051 0.378644 16.0573 0.23084C15.9095 0.0830355 15.709 0 15.5 0C15.291 0 15.0905 0.0830355 14.9427 0.23084C14.7949 0.378644 14.7119 0.579109 14.7119 0.788136V4.2336C11.9969 4.42739 9.44286 5.59357 7.51821 7.51821C5.59357 9.44286 4.42739 11.9969 4.2336 14.7119H0.788136C0.579109 14.7119 0.378644 14.7949 0.23084 14.9427C0.0830355 15.0905 0 15.291 0 15.5C0 15.709 0.0830355 15.9095 0.23084 16.0573C0.378644 16.2051 0.579109 16.2881 0.788136 16.2881H4.2336C4.42739 19.0031 5.59357 21.5571 7.51821 23.4818C9.44286 25.4064 11.9969 26.5726 14.7119 26.7664V30.2119C14.7119 30.4209 14.7949 30.6214 14.9427 30.7692C15.0905 30.917 15.291 31 15.5 31C15.709 31 15.9095 30.917 16.0573 30.7692C16.2051 30.6214 16.2881 30.4209 16.2881 30.2119V26.7664C19.0031 26.5726 21.5571 25.4064 23.4818 23.4818C25.4064 21.5571 26.5726 19.0031 26.7664 16.2881H30.2119C30.4209 16.2881 30.6214 16.2051 30.7692 16.0573C30.917 15.9095 31 15.709 31 15.5C31 15.291 30.917 15.0905 30.7692 14.9427C30.6214 14.7949 30.4209 14.7119 30.2119 14.7119ZM15.5 25.2203C13.5775 25.2203 11.6982 24.6502 10.0997 23.5822C8.50117 22.5141 7.25529 20.996 6.51958 19.2198C5.78387 17.4437 5.59137 15.4892 5.96643 13.6037C6.3415 11.7181 7.26727 9.9861 8.62668 8.62668C9.9861 7.26727 11.7181 6.3415 13.6037 5.96643C15.4892 5.59137 17.4437 5.78387 19.2198 6.51958C20.996 7.25529 22.5141 8.50117 23.5822 10.0997C24.6502 11.6982 25.2203 13.5775 25.2203 15.5C25.2172 18.077 24.1921 20.5476 22.3699 22.3699C20.5476 24.1921 18.077 25.2172 15.5 25.2203ZM15.5 10.5085C14.5128 10.5085 13.5477 10.8012 12.7269 11.3497C11.906 11.8982 11.2662 12.6777 10.8884 13.5898C10.5106 14.5019 10.4118 15.5055 10.6044 16.4738C10.797 17.4421 11.2724 18.3315 11.9705 19.0295C12.6685 19.7276 13.5579 20.203 14.5262 20.3956C15.4945 20.5882 16.4981 20.4894 17.4102 20.1116C18.3223 19.7338 19.1018 19.094 19.6503 18.2731C20.1988 17.4523 20.4915 16.4872 20.4915 15.5C20.4915 14.1762 19.9656 12.9066 19.0295 11.9705C18.0934 11.0344 16.8238 10.5085 15.5 10.5085ZM15.5 18.9153C14.8245 18.9153 14.1642 18.715 13.6026 18.3397C13.041 17.9644 12.6032 17.431 12.3447 16.807C12.0862 16.1829 12.0186 15.4962 12.1504 14.8337C12.2821 14.1712 12.6074 13.5627 13.0851 13.0851C13.5627 12.6074 14.1712 12.2821 14.8337 12.1504C15.4962 12.0186 16.1829 12.0862 16.807 12.3447C17.431 12.6032 17.9644 13.041 18.3397 13.6026C18.715 14.1642 18.9153 14.8245 18.9153 15.5C18.9153 16.4058 18.5554 17.2745 17.9149 17.9149C17.2745 18.5554 16.4058 18.9153 15.5 18.9153Z" fill="white"/>
</svg>
