<svg width="38" height="33" viewBox="0 0 38 33" fill="none" xmlns="http://www.w3.org/2000/svg">
<path d="M18.7064 10.4211L24.1818 15.9095V15.6316C24.1818 14.2497 23.6359 12.9243 22.6641 11.9472C21.6923 10.97 20.3743 10.4211 19 10.4211H18.7064ZM11.2791 11.8105L13.9564 14.5026C13.87 14.8674 13.8182 15.2321 13.8182 15.6316C13.8182 17.0135 14.3641 18.3388 15.3359 19.316C16.3077 20.2931 17.6257 20.8421 19 20.8421C19.38 20.8421 19.76 20.79 20.1227 20.7032L22.8 23.3953C21.6427 23.9684 20.3645 24.3158 19 24.3158C16.7095 24.3158 14.5128 23.4008 12.8932 21.7722C11.2735 20.1436 10.3636 17.9348 10.3636 15.6316C10.3636 14.2595 10.7091 12.9742 11.2791 11.8105ZM1.72727 2.20579L5.66545 6.16579L6.44273 6.94737C3.59273 9.20526 1.34727 12.1579 0 15.6316C2.98818 23.2563 10.3636 28.6579 19 28.6579C21.6773 28.6579 24.2336 28.1368 26.5655 27.1989L27.3082 27.9284L32.3518 33L34.5455 30.7942L3.92091 0M19 6.94737C21.2905 6.94737 23.4872 7.86231 25.1068 9.49092C26.7265 11.1195 27.6364 13.3284 27.6364 15.6316C27.6364 16.7432 27.4118 17.82 27.0145 18.7926L32.0755 23.8816C34.6664 21.7105 36.7391 18.8621 38 15.6316C35.0118 8.00684 27.6364 2.60526 19 2.60526C16.5818 2.60526 14.2673 3.03947 12.0909 3.82105L15.8391 7.55526C16.8236 7.17316 17.8773 6.94737 19 6.94737Z" fill="#0092E4"/>
</svg>
