<svg width="21" height="21" viewBox="0 0 21 21" fill="none" xmlns="http://www.w3.org/2000/svg">
<path d="M5.74544 15.0829C-1.04275 8.67069 -0.869817 3.6695 2.08448 1.31908L2.73911 0.801689C2.90619 0.671224 3.09776 0.575652 3.30246 0.520642C3.50717 0.465632 3.72084 0.452306 3.93079 0.481454C4.14075 0.510602 4.34271 0.581631 4.52469 0.690325C4.70668 0.79902 4.86498 0.943166 4.9902 1.11421L6.74406 3.49007C6.97875 3.80804 7.08756 4.20159 7.04953 4.59497C7.01151 4.98835 6.82935 5.35377 6.53811 5.62089L4.95667 7.06923C4.56132 7.43185 4.37813 7.96993 4.575 8.46936C4.93898 9.39862 5.80463 11.0321 7.79518 12.9111C9.78576 14.7911 11.4649 15.5621 12.4133 15.8735C12.9242 16.0404 13.4509 15.8277 13.7902 15.4112L15.1457 13.7515C15.3957 13.4454 15.7501 13.2426 16.1406 13.1822C16.5311 13.1217 16.9302 13.2079 17.261 13.424L19.7373 15.0403C19.915 15.1552 20.0679 15.3046 20.1867 15.4797C20.3056 15.6547 20.3881 15.8519 20.4293 16.0595C20.4705 16.2671 20.4695 16.4808 20.4265 16.688C20.3835 16.8953 20.2993 17.0917 20.179 17.2658L19.6969 17.9555C17.5205 21.0375 12.5358 21.4951 5.74544 15.0829Z" fill="#0092E4"/>
</svg>
