<svg width="426" height="238" viewBox="0 0 426 238" fill="none" xmlns="http://www.w3.org/2000/svg">
<path d="M200.898 159.267L182.787 127.369H177.701V159.267H156.488V74.7676H192.091C198.955 74.7676 204.785 75.9312 209.581 78.2579C214.461 80.5852 218.1 83.7951 220.498 87.8879C222.896 91.9001 224.095 96.3936 224.095 101.369C224.095 106.986 222.441 112.002 219.133 116.415C215.908 120.829 211.111 123.958 204.744 125.804L224.84 159.267H200.898ZM177.701 112.804H190.85C194.737 112.804 197.632 111.881 199.533 110.036C201.518 108.19 202.511 105.582 202.511 102.212C202.511 99.0016 201.518 96.474 199.533 94.6285C197.632 92.7829 194.737 91.8599 190.85 91.8599H177.701V112.804ZM278.596 160.109C270.409 160.109 262.884 158.264 256.019 154.572C249.238 150.881 243.821 145.745 239.768 139.165C235.799 132.505 233.814 125.042 233.814 116.776C233.814 108.511 235.799 101.088 239.768 94.5082C243.821 87.9277 249.238 82.7921 256.019 79.1009C262.884 75.4093 270.409 73.5637 278.596 73.5637C286.783 73.5637 294.268 75.4093 301.049 79.1009C307.913 82.7921 313.289 87.9277 317.176 94.5082C321.146 101.088 323.13 108.511 323.13 116.776C323.13 125.042 321.146 132.505 317.176 139.165C313.206 145.745 307.831 150.881 301.049 154.572C294.268 158.264 286.783 160.109 278.596 160.109ZM278.596 141.331C285.543 141.331 291.084 139.085 295.219 134.591C299.437 130.097 301.546 124.159 301.546 116.776C301.546 109.313 299.437 103.375 295.219 98.9618C291.084 94.4679 285.543 92.2208 278.596 92.2208C271.567 92.2208 265.943 94.4277 261.726 98.8411C257.591 103.255 255.523 109.233 255.523 116.776C255.523 124.239 257.591 130.218 261.726 134.711C265.943 139.125 271.567 141.331 278.596 141.331ZM388.272 159.267L370.533 133.387L354.903 159.267H330.837L358.748 116.295L330.216 74.7676H354.903L372.393 100.285L387.775 74.7676H411.841L384.178 117.378L412.958 159.267H388.272Z" fill="black"/>
<path fill-rule="evenodd" clip-rule="evenodd" d="M417.306 6.24131L140.025 6.21024H139.527H132.248V6.24131H127.083H12.4439H6.22195V12.4516V207.112V213.322H12.4439H127.083H133.305V207.112V179.119V172.909H127.083H62.9815H56.7597V166.699V133.691V127.481H62.9815H118.217H124.439V121.271V94.753V88.5425H118.217H62.9815H56.7597V82.3324V52.865V46.6545H62.9815H127.083H132.248H132.559H139.527H140.025L417.306 46.6856V6.24131ZM132.559 0V0.0310508H6.22195H0V6.24131V213.322V219.532H6.22195H133.305H139.527V213.322V172.909V166.699H133.305H62.9815V133.691H124.439H130.661V127.481V88.5425V82.3324H124.439H62.9815V52.865H132.559H133.305H138.78H139.527L417.306 52.8957H423.528V46.6856V6.24131V0.0310506H417.306L138.78 0H132.559Z" fill="black"/>
<path d="M156.09 220.691V168.764H177.638C181.543 168.764 184.914 169.524 187.749 171.045C190.602 172.55 192.801 174.654 194.346 177.359C195.892 180.047 196.664 183.174 196.664 186.74C196.664 190.324 195.874 193.459 194.296 196.147C192.733 198.818 190.5 200.888 187.597 202.359C184.693 203.83 181.246 204.565 177.256 204.565H163.96V194.677H174.913C176.814 194.677 178.402 194.347 179.675 193.688C180.966 193.028 181.942 192.107 182.604 190.924C183.267 189.724 183.598 188.329 183.598 186.74C183.598 185.135 183.267 183.748 182.604 182.582C181.942 181.399 180.966 180.486 179.675 179.844C178.385 179.201 176.797 178.88 174.913 178.88H168.698V220.691H156.09ZM202.879 220.691V168.764H224.427C228.332 168.764 231.703 169.465 234.539 170.868C237.391 172.254 239.59 174.249 241.136 176.852C242.68 179.438 243.453 182.506 243.453 186.056C243.453 189.656 242.663 192.716 241.084 195.234C239.505 197.736 237.264 199.646 234.36 200.965C231.457 202.266 228.018 202.917 224.045 202.917H210.418V193.028H221.702C223.603 193.028 225.191 192.783 226.465 192.293C227.755 191.786 228.731 191.025 229.394 190.011C230.056 188.98 230.387 187.662 230.387 186.056C230.387 184.45 230.056 183.123 229.394 182.075C228.731 181.01 227.755 180.216 226.465 179.692C225.174 179.151 223.586 178.88 221.702 178.88H215.487V220.691H202.879ZM232.246 196.958L245.236 220.691H231.482L218.747 196.958H232.246ZM262.976 168.764V220.691H250.368V168.764H262.976ZM315.286 168.764V220.691H304.588L283.83 190.721H283.499V220.691H270.891V168.764H281.742L302.27 198.683H302.703V168.764H315.286ZM321.507 178.956V168.764H365.596V178.956H349.779V220.691H337.349V178.956H321.507ZM399.949 184.332C399.78 182.472 399.024 181.027 397.682 179.996C396.358 178.948 394.465 178.424 392.003 178.424C390.372 178.424 389.014 178.635 387.927 179.058C386.841 179.48 386.026 180.063 385.482 180.807C384.939 181.534 384.658 182.371 384.641 183.317C384.608 184.095 384.761 184.78 385.1 185.371C385.457 185.963 385.966 186.487 386.628 186.943C387.307 187.383 388.123 187.772 389.074 188.11C390.024 188.447 391.094 188.743 392.283 188.997L396.766 190.011C399.347 190.569 401.622 191.313 403.592 192.242C405.578 193.172 407.243 194.279 408.584 195.564C409.942 196.848 410.97 198.328 411.666 200.001C412.362 201.675 412.718 203.551 412.735 205.63C412.718 208.909 411.886 211.723 410.239 214.073C408.592 216.423 406.224 218.223 403.133 219.474C400.06 220.725 396.35 221.35 392.003 221.35C387.639 221.35 383.835 220.699 380.592 219.398C377.349 218.096 374.827 216.119 373.027 213.465C371.227 210.811 370.302 207.455 370.251 203.399H382.324C382.426 205.072 382.876 206.467 383.674 207.582C384.472 208.698 385.567 209.543 386.959 210.118C388.369 210.693 389.999 210.98 391.85 210.98C393.548 210.98 394.991 210.752 396.18 210.295C397.385 209.839 398.311 209.205 398.956 208.394C399.601 207.582 399.932 206.653 399.949 205.605C399.932 204.624 399.627 203.787 399.032 203.094C398.438 202.384 397.521 201.776 396.282 201.269C395.059 200.745 393.497 200.263 391.595 199.823L386.144 198.556C381.628 197.525 378.07 195.86 375.472 193.561C372.874 191.245 371.584 188.118 371.601 184.179C371.584 180.968 372.45 178.153 374.199 175.736C375.948 173.319 378.368 171.434 381.458 170.082C384.548 168.73 388.072 168.053 392.028 168.053C396.069 168.053 399.576 168.738 402.547 170.107C405.536 171.459 407.854 173.361 409.501 175.812C411.148 178.263 411.988 181.103 412.022 184.332H399.949Z" fill="white"/>
</svg>
