<svg width="111" height="62" viewBox="0 0 111 62" fill="none" xmlns="http://www.w3.org/2000/svg">
<path d="M52.3489 41.4896L47.6298 33.18H46.3046V41.4896H40.7773V19.4772H50.054C51.8426 19.4772 53.3617 19.7803 54.6115 20.3864C55.8829 20.9927 56.831 21.8289 57.4559 22.8951C58.0808 23.9403 58.3933 25.1108 58.3933 26.407C58.3933 27.8703 57.9623 29.1768 57.1003 30.3265C56.2599 31.4763 55.0102 32.2916 53.3509 32.7724L58.5872 41.4896H52.3489ZM46.3046 29.3859H49.7307C50.7436 29.3859 51.4978 29.1455 51.9933 28.6647C52.5105 28.1839 52.7691 27.5045 52.7691 26.6265C52.7691 25.7902 52.5105 25.1318 51.9933 24.651C51.4978 24.1702 50.7436 23.9298 49.7307 23.9298H46.3046V29.3859ZM72.5943 41.709C70.4609 41.709 68.5001 41.2283 66.7115 40.2666C64.9445 39.305 63.533 37.9672 62.4771 36.2529C61.4427 34.5179 60.9255 32.5738 60.9255 30.4206C60.9255 28.2674 61.4427 26.3338 62.4771 24.6197C63.533 22.9054 64.9445 21.5676 66.7115 20.606C68.5001 19.6444 70.4609 19.1636 72.5943 19.1636C74.7275 19.1636 76.6777 19.6444 78.4446 20.606C80.2332 21.5676 81.6338 22.9054 82.6467 24.6197C83.681 26.3338 84.1982 28.2674 84.1982 30.4206C84.1982 32.5738 83.681 34.5179 82.6467 36.2529C81.6123 37.9672 80.2117 39.305 78.4446 40.2666C76.6777 41.2283 74.7275 41.709 72.5943 41.709ZM72.5943 36.8173C74.4043 36.8173 75.848 36.2321 76.9255 35.0614C78.0244 33.8907 78.574 32.3439 78.574 30.4206C78.574 28.4765 78.0244 26.9296 76.9255 25.7799C75.848 24.6092 74.4043 24.0238 72.5943 24.0238C70.7626 24.0238 69.2973 24.5987 68.1983 25.7484C67.1209 26.8982 66.5821 28.4556 66.5821 30.4206C66.5821 32.3647 67.1209 33.9222 68.1983 35.0927C69.2973 36.2425 70.7626 36.8173 72.5943 36.8173ZM101.172 41.4896L96.5495 34.7479L92.4768 41.4896H86.2061L93.4788 30.2952L86.0445 19.4772H92.4768L97.0343 26.1247L101.042 19.4772H107.313L100.105 30.5774L107.604 41.4896H101.172Z" fill="black"/>
<path fill-rule="evenodd" clip-rule="evenodd" d="M108.735 1.62589L36.4855 1.61779H36.3557H34.4589V1.62589H33.1132H3.24242H1.62121V3.24368V53.9535V55.5713H3.24242H33.1132H34.7344V53.9535V46.6613V45.0436H33.1132H16.4107H14.7895V43.4257V34.8271V33.2093H16.4107H30.803H32.4242V31.5915V24.6836V23.0657H30.803H16.4107H14.7895V21.4479V13.7716V12.1537H16.4107H33.1132H34.4589H34.5399H36.3557H36.4855L108.735 12.1618V1.62589ZM34.5399 0V0.00808886H1.62121H0V1.62589V55.5713V57.1891H1.62121H34.7344H36.3557V55.5713V45.0436V43.4257H34.7344H16.4107V34.8271H32.4242H34.0454V33.2093V23.0657V21.4479H32.4242H16.4107V13.7716H34.5399H34.7344H36.1611H36.3557L108.735 13.7796H110.356V12.1618V1.62589V0.00808882H108.735L36.1611 0H34.5399Z" fill="black"/>
<path d="M40.6719 57.4908V43.9636H46.2864C47.3041 43.9636 48.1824 44.1617 48.9212 44.558C49.6646 44.9499 50.2375 45.4981 50.6401 46.2027C51.0428 46.9028 51.2441 47.7175 51.2441 48.6466C51.2441 49.5801 51.0383 50.3969 50.6269 51.097C50.2198 51.7928 49.638 52.3322 48.8815 52.7154C48.1248 53.0984 47.2267 53.2899 46.1869 53.2899H42.7227V50.714H45.5764C46.0719 50.714 46.4856 50.6281 46.8174 50.4564C47.1537 50.2846 47.4081 50.0446 47.5806 49.7364C47.7532 49.4237 47.8394 49.0605 47.8394 48.6466C47.8394 48.2283 47.7532 47.8672 47.5806 47.5634C47.4081 47.2551 47.1537 47.0173 46.8174 46.8499C46.4811 46.6826 46.0675 46.599 45.5764 46.599H43.957V57.4908H40.6719ZM52.8634 57.4908V43.9636H58.478C59.4956 43.9636 60.3738 44.1463 61.1128 44.5117C61.856 44.8728 62.429 45.3925 62.8317 46.0705C63.2342 46.7443 63.4356 47.5435 63.4356 48.4682C63.4356 49.4061 63.2298 50.2032 62.8183 50.8593C62.4069 51.511 61.8228 52.0086 61.0663 52.352C60.3097 52.6911 59.4138 52.8607 58.3784 52.8607H54.8278V50.2846H57.7679C58.2635 50.2846 58.6771 50.2208 59.009 50.0931C59.3451 49.961 59.5995 49.7628 59.7721 49.4987C59.9446 49.2301 60.031 48.8866 60.031 48.4682C60.031 48.0499 59.9446 47.7043 59.7721 47.4313C59.5995 47.1538 59.3451 46.9469 59.009 46.8104C58.6727 46.6695 58.2589 46.599 57.7679 46.599H56.1486V57.4908H52.8634ZM60.5154 51.3084L63.9001 57.4908H60.3164L56.9981 51.3084H60.5154ZM68.5226 43.9636V57.4908H65.2374V43.9636H68.5226ZM82.1526 43.9636V57.4908H79.3651L73.9562 49.6836H73.8701V57.4908H70.5849V43.9636H73.4121L78.7612 51.7576H78.874V43.9636H82.1526ZM83.7735 46.6188V43.9636H95.2616V46.6188H91.1402V57.4908H87.9015V46.6188H83.7735ZM104.213 48.0191C104.169 47.5347 103.972 47.1582 103.622 46.8896C103.277 46.6166 102.784 46.4801 102.142 46.4801C101.717 46.4801 101.363 46.5351 101.08 46.6452C100.797 46.7554 100.585 46.9072 100.443 47.101C100.302 47.2904 100.228 47.5083 100.224 47.7549C100.215 47.9575 100.255 48.1358 100.344 48.2899C100.436 48.444 100.569 48.5805 100.742 48.6994C100.919 48.8139 101.131 48.9152 101.379 49.0032C101.627 49.0913 101.905 49.1684 102.215 49.2345L103.383 49.4987C104.056 49.644 104.649 49.8377 105.162 50.0799C105.679 50.322 106.113 50.6105 106.463 50.9452C106.817 51.2798 107.084 51.6651 107.266 52.101C107.447 52.537 107.54 53.0258 107.544 53.5674C107.54 54.4216 107.323 55.1548 106.894 55.7669C106.465 56.379 105.848 56.8479 105.042 57.1737C104.241 57.4996 103.275 57.6625 102.142 57.6625C101.005 57.6625 100.014 57.4931 99.1689 57.154C98.3238 56.8149 97.6668 56.2997 97.1978 55.6084C96.7288 54.917 96.4877 54.0429 96.4744 52.9861H99.6201C99.6467 53.422 99.764 53.7854 99.9719 54.076C100.18 54.3666 100.465 54.5867 100.828 54.7364C101.195 54.8863 101.62 54.9611 102.102 54.9611C102.545 54.9611 102.921 54.9016 103.23 54.7828C103.545 54.6638 103.786 54.4987 103.954 54.2873C104.122 54.076 104.208 53.8338 104.213 53.5608C104.208 53.3054 104.129 53.0874 103.974 52.9069C103.819 52.7219 103.58 52.5634 103.257 52.4313C102.938 52.2948 102.531 52.1693 102.036 52.0548L100.616 51.7246C99.4388 51.456 98.5118 51.0222 97.835 50.4234C97.158 49.8201 96.8217 49.0055 96.8261 47.9795C96.8217 47.1428 97.0474 46.4096 97.5031 45.7799C97.9588 45.1502 98.5893 44.6593 99.3945 44.307C100.2 43.9548 101.118 43.7786 102.149 43.7786C103.202 43.7786 104.115 43.9569 104.89 44.3136C105.668 44.6658 106.272 45.1613 106.701 45.7998C107.131 46.4383 107.35 47.1781 107.359 48.0191H104.213Z" fill="#00C2FF"/>
</svg>
