<svg width="100" height="110" viewBox="0 0 100 110" fill="none" xmlns="http://www.w3.org/2000/svg">
<path d="M53.6993 0.70427L92.4435 15.2325C94.5541 16.0236 96.3728 17.4405 97.6566 19.2944C98.9404 21.1453 99.6282 23.3475 99.6279 25.5998V55.285C99.6282 64.5365 97.052 73.605 92.1887 81.475C87.3251 89.345 80.3662 95.7036 72.0919 99.8422L53.5278 109.123C52.3748 109.699 51.1034 110 49.8139 110C48.5245 110 47.2531 109.699 46.1001 109.123L27.536 99.8422C19.2617 95.7036 12.3028 89.345 7.43918 81.475C2.57586 73.605 -0.000295099 64.5365 9.49793e-08 55.285V25.5998C-0.000295099 23.3475 0.687509 21.1453 1.97131 19.2944C3.2551 17.4405 5.07379 16.0236 7.18413 15.2325L45.9286 0.70427C48.4336 -0.234757 51.1943 -0.234757 53.6993 0.70427ZM49.8139 11.0702L11.0698 25.5998V55.285C11.0709 62.479 13.0756 69.5312 16.8588 75.6507C20.642 81.7702 26.0544 86.7177 32.4896 89.9324L49.8139 98.6083L67.1383 89.9442C73.575 86.7266 78.9888 81.779 82.772 75.6566C86.5552 69.5371 88.559 62.4819 88.5581 55.285V25.5998L49.8139 11.0702ZM49.8139 32.8351C52.1767 32.8351 54.4777 33.5879 56.3802 34.9901C58.2831 36.3893 59.6879 38.3613 60.3893 40.6195C61.0906 42.8748 61.0517 45.2955 60.2783 47.5301C59.5049 49.7618 58.0374 51.6865 56.0904 53.0267L55.3488 53.4961V71.5799C55.3474 72.991 54.8072 74.3459 53.8386 75.3732C52.8701 76.3976 51.5467 77.0175 50.1384 77.1001C48.73 77.1828 47.3432 76.7223 46.2616 75.819C45.1797 74.9127 44.4845 73.6286 44.3177 72.2264L44.2791 71.5799V53.4961C42.1661 52.2799 40.5142 50.3994 39.5799 48.1471C38.6456 45.8947 38.4812 43.3973 39.112 41.0416C39.7431 38.686 41.1341 36.6048 43.0694 35.12C45.0044 33.6351 47.3754 32.8322 49.8139 32.8351Z" fill="url(#paint0_linear_16_16)"/>
<defs>
<linearGradient id="paint0_linear_16_16" x1="9.49796e-08" y1="54.975" x2="121.767" y2="54.975" gradientUnits="userSpaceOnUse">
<stop stop-color="#4ED5FF"/>
<stop offset="1" stop-color="#12C7FF"/>
</linearGradient>
</defs>
</svg>
