<svg width="110" height="110" viewBox="0 0 110 110" fill="none" xmlns="http://www.w3.org/2000/svg">
<path d="M55.0019 60.5C58.2926 60.4997 61.5078 61.4835 64.2359 63.325C66.964 65.1662 69.0761 67.7811 70.3081 70.8333C71.537 73.8855 71.8262 77.2356 71.1379 80.4535C70.4496 83.6713 68.8153 86.6097 66.4423 88.8909L55.9385 98.9944H71.5024V109.995H38.5013L38.495 100.512L58.8143 80.9601C59.4681 80.3299 59.9583 79.547 60.238 78.6814C60.5146 77.8162 60.5744 76.8949 60.4109 76.0008C60.2475 75.1063 59.864 74.2668 59.2952 73.5571C58.7263 72.8471 57.9908 72.2895 57.1548 71.9337C56.3188 71.5776 55.4042 71.4349 54.499 71.5179C53.5938 71.6009 52.7232 71.907 51.9658 72.4089C51.2083 72.9109 50.586 73.5929 50.1555 74.394C49.7249 75.1955 49.5017 76.0906 49.5017 76.9999H38.5013C38.5013 72.6239 40.2394 68.427 43.3352 65.3327C46.4279 62.2384 50.6269 60.5 55.0019 60.5ZM88.003 60.5V82.4999H99.0034V60.5H110.004V110H99.0034V93.5001H77.0026V60.5H88.003ZM11.0004 55.0001C10.9941 61.5979 12.4744 68.1121 15.3314 74.0596C18.1852 80.0068 22.3465 85.234 27.5009 89.3529V102.641C19.1375 97.8145 12.1915 90.8704 7.36393 82.5071C2.53633 74.1439 -0.00314005 64.6567 2.91386e-06 55.0001H11.0004ZM55.0019 1.55249e-05C83.5211 1.55249e-05 106.974 21.703 109.73 49.5001H98.6639C97.545 40.6312 93.7547 32.3126 87.7925 25.6516C81.8303 18.9909 73.9823 14.3034 65.2888 12.2133C56.5985 10.1232 47.4776 10.7295 39.1393 13.9516C30.8011 17.1736 23.6414 22.8587 18.6126 30.2501H33.0011V41.25H2.91386e-06V8.25002H11.0004V21.9947C16.1203 15.159 22.7613 9.61135 30.3987 5.79231C38.0393 1.97329 46.4624 -0.00639622 55.0019 1.55249e-05Z" fill="url(#paint0_linear_16_17)"/>
<defs>
<linearGradient id="paint0_linear_16_17" x1="3.0309e-06" y1="79.7444" x2="154.003" y2="19.2408" gradientUnits="userSpaceOnUse">
<stop stop-color="#50D6FF"/>
<stop offset="1" stop-color="#00C2FF"/>
</linearGradient>
</defs>
</svg>
