<svg width="152" height="110" viewBox="0 0 152 110" fill="none" xmlns="http://www.w3.org/2000/svg">
<path d="M96.2485 0C110.835 0 124.825 5.79462 135.139 16.1091C145.453 26.4235 151.248 40.4133 151.248 55C151.248 69.5867 145.453 83.5765 135.139 93.8909C124.825 104.205 110.835 110 96.2485 110C81.662 110 67.6724 104.205 57.3582 93.8909C47.0441 83.5765 41.2494 69.5867 41.2494 55C41.2494 40.4133 47.0441 26.4235 57.3582 16.1091C67.6724 5.79462 81.662 0 96.2485 0ZM96.2485 13.75C85.3084 13.75 74.8164 18.0961 67.0806 25.8317C59.3452 33.5676 54.9991 44.0598 54.9991 55C54.9991 65.9402 59.3452 76.4324 67.0806 84.1683C74.8164 91.9039 85.3084 96.25 96.2485 96.25C107.189 96.25 117.681 91.9039 125.416 84.1683C133.152 76.4324 137.498 65.9402 137.498 55C137.498 44.0598 133.152 33.5676 125.416 25.8317C117.681 18.0961 107.189 13.75 96.2485 13.75ZM89.3736 27.5H99.6859V53.4875L115.704 69.5061L108.417 76.7939L89.3736 57.75V27.5ZM6.87489 96.25C5.05149 96.25 3.30287 95.5258 2.0137 94.2363C0.724149 92.9471 0 91.1984 0 89.375C0 87.5516 0.724149 85.8029 2.0137 84.5137C3.30287 83.2242 5.05149 82.5 6.87489 82.5H33.2055C35.3369 87.3811 38.0869 91.9875 41.2494 96.25H6.87489ZM13.7498 61.875C11.9264 61.875 10.1778 61.1508 8.88859 59.8613C7.59904 58.5721 6.87489 56.8234 6.87489 55C6.87489 53.1766 7.59904 51.4279 8.88859 50.1387C10.1778 48.8492 11.9264 48.125 13.7498 48.125H27.8435L27.4996 55L27.8435 61.875H13.7498ZM20.6247 27.5C18.8013 27.5 17.0527 26.7758 15.7635 25.4863C14.4739 24.1971 13.7498 22.4484 13.7498 20.625C13.7498 18.8016 14.4739 17.0529 15.7635 15.7637C17.0527 14.4742 18.8013 13.75 20.6247 13.75H41.2494C38.0869 18.0125 35.3369 22.6189 33.2055 27.5H20.6247Z" fill="url(#paint0_linear_16_18)"/>
<defs>
<linearGradient id="paint0_linear_16_18" x1="-11.9517" y1="72.769" x2="170.815" y2="65.154" gradientUnits="userSpaceOnUse">
<stop stop-color="#77DEFF"/>
<stop offset="1" stop-color="#00C2FF"/>
</linearGradient>
</defs>
</svg>
