<svg width="140" height="110" viewBox="0 0 140 110" fill="none" xmlns="http://www.w3.org/2000/svg">
<path d="M9.99763 49.9951H69.9925V59.9959H9.99763V49.9951ZM0 24.9976H49.9942V34.9984H0V24.9976Z" fill="url(#paint0_linear_13_11)"/>
<path d="M139.585 53.0261L124.586 18.0278C124.201 17.1294 123.562 16.3625 122.743 15.8247C121.928 15.2839 120.971 14.9967 119.993 14.9997H104.994V4.99889C104.994 3.67278 104.468 2.40166 103.53 1.4636C102.592 0.525544 101.321 0 99.9951 0H20.0019V9.99779H94.9962V72.7742C92.7168 74.0972 90.7246 75.8572 89.1297 77.9533C87.5347 80.0494 86.3705 82.442 85.7044 84.9903H54.2908C53.0716 80.2786 50.178 76.172 46.1509 73.4403C42.1207 70.7086 37.2349 69.5383 32.4072 70.1525C27.5795 70.7667 23.1399 73.1194 19.9224 76.7708C16.705 80.4222 14.9297 85.1247 14.9297 89.9922C14.9297 94.8597 16.705 99.5592 19.9224 103.211C23.1399 106.862 27.5795 109.218 32.4072 109.829C37.2349 110.443 42.1207 109.276 46.1509 106.544C50.178 103.809 53.0716 99.7028 54.2908 94.9911H85.7044C86.7922 99.2811 89.2794 103.088 92.7749 105.805C96.2673 108.524 100.566 110 104.994 110C109.421 110 113.72 108.524 117.213 105.805C120.708 103.088 123.196 99.2811 124.28 94.9911H134.99C136.316 94.9911 137.587 94.4655 138.525 93.5275C139.463 92.5894 139.989 91.3183 139.989 89.9922V54.9939C139.989 54.3186 139.851 53.6464 139.585 53.0261ZM35.0014 99.99C33.0245 99.99 31.0902 99.4033 29.4464 98.3064C27.8025 97.2064 26.5192 95.645 25.7645 93.8178C25.0068 91.9905 24.8082 89.98 25.1962 88.0397C25.5812 86.0995 26.5346 84.3181 27.9309 82.9217C29.3304 81.5222 31.1117 80.5689 33.052 80.1839C34.9891 79.7989 36.9996 79.9975 38.8268 80.7522C40.654 81.51 42.2154 82.7903 43.3153 84.4372C44.4153 86.0811 45.002 88.0122 45.002 89.9922C44.9989 92.6414 43.9448 95.1836 42.0687 97.0597C40.1957 98.9328 37.6535 99.9869 35.0014 99.99ZM104.994 24.9975H116.693L127.412 49.995H104.994V24.9975ZM104.994 99.99C103.017 99.99 101.083 99.4033 99.4389 98.3064C97.7951 97.2064 96.5118 95.645 95.7571 93.8178C94.9993 91.9905 94.8007 89.98 95.1857 88.0397C95.5737 86.0995 96.524 84.3181 97.9234 82.9217C99.3228 81.5222 101.104 80.5689 103.044 80.1839C104.982 79.7989 106.992 79.9975 108.819 80.7522C110.647 81.51 112.208 82.7903 113.308 84.4372C114.405 86.0811 114.991 88.0122 114.991 89.9922C114.991 92.6414 113.934 95.1836 112.061 97.0597C110.185 98.9328 107.646 99.9869 104.994 99.99ZM129.991 84.9903H124.28C123.18 80.7095 120.69 76.9144 117.198 74.198C113.708 71.4847 109.415 70.0058 104.994 69.9936V59.9928H129.991V84.9903Z" fill="url(#paint1_linear_13_11)"/>
<defs>
<linearGradient id="paint0_linear_13_11" x1="14.9297" y1="54.975" x2="167.779" y2="54.975" gradientUnits="userSpaceOnUse">
<stop stop-color="#4ED5FF"/>
<stop offset="1" stop-color="#12C7FF"/>
</linearGradient>
<linearGradient id="paint1_linear_13_11" x1="14.9297" y1="54.975" x2="167.779" y2="54.975" gradientUnits="userSpaceOnUse">
<stop stop-color="#4ED5FF"/>
<stop offset="1" stop-color="#12C7FF"/>
</linearGradient>
</defs>
</svg>
