<svg width="136" height="111" viewBox="0 0 136 111" fill="none" xmlns="http://www.w3.org/2000/svg">
<path d="M73.3088 43.1374C74.9995 48.2147 79.6537 51.5993 85.1532 51.5993C92.3466 51.5993 97.8461 46.099 97.8461 38.9068C97.8461 31.7146 92.3466 26.2143 85.1532 26.2143C79.6537 26.2143 74.9995 29.5989 73.3088 34.6762H21.6919C17.0377 34.6762 13.2319 38.4838 13.2319 43.1374V68.5224H0.539062V76.9836H13.2319V102.369C13.2319 107.022 17.0377 110.83 21.6919 110.83H80.9233C85.5774 110.83 89.3832 107.022 89.3832 102.369V85.4455H80.9233V102.369H21.6919V43.1374H73.3088ZM85.1532 34.6762C87.6924 34.6762 89.3832 36.3682 89.3832 38.9068C89.3832 41.4454 87.6924 43.1374 85.1532 43.1374C82.6141 43.1374 80.9233 41.4454 80.9233 38.9068C80.9233 36.3682 82.6141 34.6762 85.1532 34.6762Z" fill="url(#paint0_linear_13_13)"/>
<path d="M123.229 34.6762V9.29138C123.229 4.63755 119.423 0.829834 114.769 0.829834H55.5374C50.8833 0.829834 47.0775 4.63755 47.0775 9.29138V26.2143H55.5374V9.29138H114.769V68.5224H63.1519C61.4611 63.4451 56.807 60.0605 51.3074 60.0605C44.1141 60.0605 38.6146 65.5608 38.6146 72.753C38.6146 79.9453 44.1141 85.4455 51.3074 85.4455C56.807 85.4455 61.4611 82.0609 63.1519 76.9836H114.769C119.423 76.9836 123.229 73.176 123.229 68.5224V43.1374H135.922V34.6762H123.229ZM51.3074 76.9836C48.7683 76.9836 47.0775 75.2916 47.0775 72.753C47.0775 70.2144 48.7683 68.5224 51.3074 68.5224C53.8466 68.5224 55.5374 70.2144 55.5374 72.753C55.5374 75.2916 53.8466 76.9836 51.3074 76.9836Z" fill="url(#paint1_linear_13_13)"/>
<defs>
<linearGradient id="paint0_linear_13_13" x1="0.539062" y1="55.8302" x2="74.2332" y2="51.4183" gradientUnits="userSpaceOnUse">
<stop stop-color="#3FF3FF"/>
<stop offset="1" stop-color="#00C2FF"/>
</linearGradient>
<linearGradient id="paint1_linear_13_13" x1="47.3425" y1="37.1681" x2="142.267" y2="34.6756" gradientUnits="userSpaceOnUse">
<stop stop-color="#71DDFF"/>
<stop offset="1" stop-color="#00B3EB"/>
</linearGradient>
</defs>
</svg>
