<svg width="159" height="110" viewBox="0 0 159 110" fill="none" xmlns="http://www.w3.org/2000/svg">
<path fill-rule="evenodd" clip-rule="evenodd" d="M44.7049 16.8554C44.7049 5.61853 52.5805 0 60.4485 0C68.3165 0 76.1818 5.61853 76.1818 16.8554L60.4485 46.8207L44.7049 16.8554ZM125.13 9.78555C126.508 9.50469 128.154 9.19792 129.851 9.12996L130.072 13.3439C128.868 13.4283 127.44 13.613 126.064 13.9056L125.13 9.78555ZM68.3165 16.8554C68.3165 12.7189 64.7996 9.36415 60.4485 9.36415C56.1051 9.36415 52.5805 12.7189 52.5805 16.8554C52.5805 20.9992 56.1051 24.3468 60.4485 24.3468C64.7996 24.3468 68.3165 20.9992 68.3165 16.8554ZM134.004 13.5546L134.744 9.41107C136.44 9.55847 138.112 10.2419 139.611 11.0029L137.472 14.7018C136.415 14.0978 135.211 13.7956 134.004 13.5546ZM118.561 11.715C119.228 11.4791 119.919 11.2354 120.607 10.9794L122.057 14.9592C120.853 15.3618 119.426 15.8395 118.076 16.3873L116.33 12.5246C117.021 12.2601 117.775 11.9929 118.561 11.715ZM140.276 16.8554L143.643 14.1164C144.773 15.3782 145.512 16.5395 146.347 18.0729L142.388 19.9691C141.849 19.0091 141.159 17.8199 140.276 16.8554ZM110.208 15.3288C110.844 15.0083 111.504 14.6769 112.223 14.3271L114.141 18.1196C113.011 18.6581 111.609 19.3369 110.331 20.0392L108.167 16.3406C108.858 16.0096 109.52 15.6754 110.208 15.3288ZM100.448 20.765C101.701 19.9691 102.979 19.2433 104.283 18.5176L106.545 22.1229C106.35 22.2336 106.157 22.3443 105.962 22.4553C104.922 23.0478 103.872 23.6455 102.856 24.2766L100.448 20.765ZM143.654 23.2519C145.053 23.094 146.475 22.9337 147.871 22.7081C148.043 24.2297 147.823 25.9621 147.576 27.6475L143.274 26.6878C143.52 25.7047 143.595 24.4404 143.495 23.2698L143.654 23.2519ZM94.8801 24.3116C95.4885 23.9078 96.0969 23.504 96.7104 23.106L99.1927 26.5708C98.8667 26.7866 98.5407 27.0007 98.2147 27.2144C97.3367 27.7891 96.4639 28.3616 95.604 28.9587L93.0472 25.5172C93.6633 25.1193 94.2717 24.7154 94.8801 24.3116ZM85.9853 30.5139C87.0173 29.7585 88.2495 28.858 89.4329 28.0457L92.0641 31.4403C91.5481 31.8045 91.0835 32.1394 90.6163 32.4768C89.9745 32.9388 89.3327 33.4032 88.5498 33.9459L85.8698 30.597L85.9853 30.5139ZM139.341 32.8923C140.201 32.0734 141.061 30.9954 141.798 29.9174L145.535 32.1883C144.853 33.2443 143.913 34.3003 142.986 35.3392C142.845 35.5005 142.701 35.6594 142.56 35.8183L139.341 32.8923ZM78.8875 35.8647C79.9451 35.0214 81.149 34.1096 82.353 33.2199L85.1074 36.5199C84.0626 37.2434 82.928 38.1405 81.8113 39.0229L81.6907 39.1183L78.8875 35.8647ZM132.9 37.9938C133.981 37.2923 135.162 36.449 136.291 35.5836L139.12 38.8616C138.014 39.705 136.736 40.6167 135.432 41.46L132.9 37.9938ZM73.2015 40.4236C73.9511 39.8101 74.7006 39.1965 75.4707 38.6025L78.2971 41.834C77.1676 42.7238 76.0612 43.6356 74.9548 44.5498L72.0772 41.3427C72.4545 41.0372 72.8293 40.7316 73.2015 40.4236ZM125.548 42.2789C126.729 41.6703 128.031 40.9443 129.286 40.2427L131.596 43.8483C130.983 44.2369 130.249 44.6183 129.489 45.0143C128.88 45.332 128.254 45.6571 127.664 46.0018L125.548 42.2789ZM65.4157 46.96C66.5221 46.0018 67.6028 45.0656 68.7092 44.1294L71.6587 47.29C71.1196 47.7569 70.5703 48.2262 70.0235 48.6931C69.4767 49.1625 68.93 49.6294 68.3883 50.0987L65.4157 46.96ZM119.734 45.1463C120.386 44.8358 121.038 44.5254 121.688 44.2223L123.705 47.9671C122.922 48.3142 122.222 48.6516 121.48 49.0085C120.918 49.2798 120.332 49.5609 119.673 49.864L117.781 46.0727C118.43 45.7671 119.082 45.4567 119.734 45.1463ZM109.789 49.512C111.165 48.9742 112.469 48.412 113.822 47.8278L115.64 51.6436C114.289 52.2278 112.937 52.8144 111.584 53.3767L109.789 49.512ZM59.2908 52.4307C60.2508 51.5433 61.062 50.7954 62.1684 49.864L65.1924 52.9782C64.4222 53.6113 63.7292 54.2567 62.9744 54.9558C62.669 55.2393 62.3558 55.5302 62.0221 55.8333L58.9006 52.79C59.0341 52.6678 59.1624 52.548 59.2908 52.4307ZM103.729 52.042C104.406 51.7658 105.082 51.492 105.759 51.2207L107.502 55.1073C106.152 55.6695 104.799 56.2318 103.423 56.7695L101.701 52.8609C102.378 52.592 103.054 52.3158 103.729 52.042ZM93.5401 56.1389C94.916 55.6231 96.2689 55.0609 97.6217 54.4987L99.3416 58.4098C98.6665 58.6786 97.9837 58.9524 97.3008 59.2287C96.618 59.5024 95.9351 59.7786 95.26 60.0475L93.5401 56.1389ZM127.32 73.0397C127.32 61.8026 135.185 56.1853 143.053 56.1853C150.918 56.1853 158.786 61.8026 158.786 73.0397L143.053 103.006L127.32 73.0397ZM86.6425 58.9304C87.5461 58.5735 88.519 58.1849 89.4585 57.7767L91.1784 61.6633C89.9488 62.1791 88.5729 62.7388 87.1225 63.3255L85.377 59.4389C85.7748 59.2775 86.201 59.1089 86.6425 58.9304ZM78.8824 62.1473C79.6833 61.8026 80.5278 61.4409 81.2954 61.1011L83.0666 64.9633C82.3607 65.2468 81.6573 65.5597 80.9231 65.8848C80.3276 66.1488 79.7115 66.4226 79.0595 66.6964L77.2395 62.8562C77.7375 62.6411 78.2996 62.3991 78.8824 62.1473ZM69.1507 66.4862C70.3803 65.8995 71.8076 65.2444 73.1835 64.6137L75.0523 68.4295C74.6724 68.6055 74.2745 68.7888 73.8664 68.9746C72.9833 69.3804 72.0515 69.8057 71.1428 70.2555L69.1507 66.4862ZM150.918 73.0397C150.918 68.8964 147.404 65.55 143.053 65.55C138.702 65.55 135.185 68.8964 135.185 73.0397C135.185 77.183 138.702 80.5319 143.053 80.5319C147.404 80.5319 150.918 77.183 150.918 73.0397ZM61.2366 70.5366C62.5637 69.8106 63.8652 69.1066 65.1692 68.4295L67.2588 72.1744C65.9805 72.8295 64.7021 73.4846 63.4468 74.1886L61.2366 70.5366ZM56.6981 73.1961C56.9214 73.0617 57.1473 72.9297 57.3757 72.8075L59.7862 76.3421C58.9288 76.8359 57.8969 77.5032 56.8855 78.1877C56.4619 85.4574 53.0323 91.9621 47.7596 96.5943C47.8803 96.8754 48.0061 97.1565 48.1319 97.4352L44.3532 99.1609C39.8147 102.075 34.3469 103.774 28.4633 103.774C12.7453 103.774 0 91.637 0 76.6697C0 61.7 12.7453 49.5634 28.4633 49.5634C42.949 49.5634 54.9063 59.8666 56.6981 73.1961ZM103.962 82.5926L103.569 78.4003C105.218 78.1681 106.937 78.3319 108.56 78.5641L107.797 82.7099C106.519 82.5217 105.241 82.3799 103.962 82.5926ZM96.0969 84.6508L94.4257 80.7421C95.776 80.2263 97.3265 79.6666 98.8744 79.2437C98.9334 79.4612 98.9925 79.6788 99.049 79.8939C99.357 81.0354 99.6625 82.1721 100.055 83.2941C98.7024 83.6925 97.3752 84.113 96.0969 84.6508ZM110.97 83.9957L113.478 80.5319C114.646 81.1626 115.493 82.0157 116.417 82.9494C116.659 83.1914 116.905 83.4408 117.165 83.6925L113.822 86.4547C113.011 85.4941 112.002 84.7217 110.97 83.9957ZM86.9197 84.4161C88.0133 83.8025 89.112 83.189 90.244 82.639L92.3105 86.3374C91.6611 86.665 91.0116 87.0292 90.3595 87.3959C89.7512 87.7381 89.1402 88.0803 88.5241 88.3981L86.2882 84.7681C86.4987 84.6508 86.7092 84.5334 86.9197 84.4161ZM78.7386 89.3807C79.9682 88.5839 81.1978 87.8114 82.4531 87.039L84.861 90.5516C84.2474 90.9378 83.6391 91.329 83.0307 91.7225C82.4223 92.1136 81.8113 92.5072 81.1978 92.8934L78.7386 89.3807ZM116.279 89.6154L119.993 87.3201C120.571 88.0803 121.03 88.8332 121.511 89.6154C121.785 90.0627 122.065 90.5198 122.378 90.9965L118.543 93.1036C117.829 91.9083 117.067 90.7374 116.279 89.6154ZM74.2848 92.2652C74.5492 92.099 74.8136 91.9352 75.0754 91.769L77.5603 95.2327C77.3088 95.3941 77.0572 95.5505 76.8056 95.7094C75.807 96.34 74.8162 96.9658 73.8715 97.6209L71.4123 94.1107C72.3595 93.4654 73.3196 92.8665 74.2848 92.2652ZM120.73 96.7556L124.565 94.6485L124.665 94.8123C125.323 95.8854 126.008 97.0025 126.801 98.1832L123.089 100.454C122.378 99.376 121.493 98.0194 120.73 96.7556ZM64.0629 98.5107C65.3412 97.8312 66.5452 97.1296 67.7748 96.4036L70.1108 99.9627C68.8555 100.735 67.554 101.461 66.25 102.187L64.0629 98.5107ZM47.2231 103.309L50.2471 100.219C50.9864 100.921 52.0055 101.437 53.0991 101.647L52.1133 105.744C50.2753 105.37 48.5888 104.551 47.2231 103.309ZM56.4901 101.508C57.8147 101.251 59.0931 100.828 60.3253 100.29L62.0478 104.177C60.5615 104.761 59.0777 105.323 57.499 105.626L56.4901 101.508ZM125.818 104.06L129.237 101.415C130.023 102.256 130.957 103.216 132.038 104.013L129.309 107.338C128.18 106.494 126.876 105.299 125.818 104.06ZM134.056 109.608L135.162 105.512C136.34 105.793 137.521 105.908 138.725 105.722L139.267 109.912C137.447 110.1 135.996 109.982 134.056 109.608ZM28.4633 80.8399H41.6013C42.1815 80.8399 42.7385 80.6199 43.1493 80.2288C43.56 79.8377 43.791 79.3072 43.791 78.7548C43.791 78.2024 43.56 77.6719 43.1493 77.2808C42.7385 76.8897 42.1815 76.6697 41.6013 76.6697H30.6529V59.9889C30.6529 59.4364 30.4219 58.906 30.0138 58.5149C29.603 58.1238 29.046 57.9038 28.4633 57.9038C27.8831 57.9038 27.3261 58.1238 26.9153 58.5149C26.5046 58.906 26.2736 59.4364 26.2736 59.9889V78.7548C26.2736 79.3072 26.5046 79.8377 26.9153 80.2288C27.3261 80.6199 27.8831 80.8399 28.4633 80.8399Z" fill="url(#paint0_linear_13_14)"/>
<defs>
<linearGradient id="paint0_linear_13_14" x1="1.51378e-07" y1="54.975" x2="194.072" y2="54.975" gradientUnits="userSpaceOnUse">
<stop stop-color="#4ED5FF"/>
<stop offset="1" stop-color="#12C7FF"/>
</linearGradient>
</defs>
</svg>
