<svg width="25" height="35" viewBox="0 0 25 35" fill="none" xmlns="http://www.w3.org/2000/svg">
<g clip-path="url(#clip0_607_639)">
<path d="M8.15892 2.4752C6.65691 1.10836 4.22166 1.10836 2.71964 2.4752C1.21762 3.84203 1.21762 6.05811 2.71964 7.42495L15.3845 18.9499C16.8865 20.3168 19.3217 20.3168 20.8238 18.9499C22.3258 17.5831 22.3258 15.367 20.8238 14.0002L8.15892 2.4752Z" fill="black"/>
<path d="M20.8251 19.675C22.3271 18.3082 22.3271 16.0921 20.8251 14.7253C19.3231 13.3585 16.8878 13.3585 15.3858 14.7253L2.721 26.2503C1.21898 27.6171 1.21898 29.8332 2.721 31.2C4.22302 32.5669 6.65827 32.5669 8.16028 31.2L20.8251 19.675Z" fill="#A6A6A6"/>
</g>
<defs>
<clipPath id="clip0_607_639">
<rect width="25" height="35" fill="white"/>
</clipPath>
</defs>
</svg>
