<svg width="25" height="35" viewBox="0 0 25 35" fill="none" xmlns="http://www.w3.org/2000/svg">
<g clip-path="url(#clip0_607_636)">
<path d="M15.384 31.1995C16.8861 32.5664 19.3213 32.5664 20.8233 31.1995C22.3253 29.8327 22.3253 27.6166 20.8233 26.2498L8.1585 14.7248C6.65648 13.358 4.22123 13.358 2.71922 14.7248C1.2172 16.0916 1.2172 18.3077 2.71922 19.6746L15.384 31.1995Z" fill="black"/>
<path d="M2.72176 13.9996C1.21975 15.3664 1.21975 17.5825 2.72176 18.9493C4.22378 20.3162 6.65903 20.3162 8.16105 18.9493L20.8259 7.42433C22.3279 6.05749 22.3279 3.84142 20.8259 2.47458C19.3239 1.10775 16.8886 1.10775 15.3866 2.47458L2.72176 13.9996Z" fill="#A6A6A6"/>
</g>
<defs>
<clipPath id="clip0_607_636">
<rect width="25" height="35" fill="white"/>
</clipPath>
</defs>
</svg>
