<svg width="42" height="42" viewBox="0 0 42 42" fill="none" xmlns="http://www.w3.org/2000/svg">
<g clip-path="url(#clip0_607_642)">
<path d="M21 42C32.598 42 42 32.598 42 21C42 9.40202 32.598 0 21 0C9.40202 0 0 9.40202 0 21C0 32.598 9.40202 42 21 42Z" fill="#A6A6A6"/>
<path d="M31.807 31.8071L21 30.4053L30.4052 21L31.807 31.8071Z" fill="black"/>
<path d="M11.4297 11.4302L22.2368 12.832L12.8315 22.2373L11.4297 11.4302Z" fill="black"/>
<g filter="url(#filter0_d_607_642)">
<path d="M18.2426 15.4139C17.4616 14.6329 16.1953 14.6329 15.4142 15.4139C14.6332 16.195 14.6332 17.4613 15.4142 18.2423L26.5979 29.426C27.3789 30.2071 28.6453 30.2071 29.4263 29.426C30.2074 28.645 30.2074 27.3786 29.4263 26.5976L18.2426 15.4139Z" fill="black"/>
</g>
</g>
<defs>
<filter id="filter0_d_607_642" x="10.8281" y="14.8281" width="23.1836" height="23.1837" filterUnits="userSpaceOnUse" color-interpolation-filters="sRGB">
<feFlood flood-opacity="0" result="BackgroundImageFix"/>
<feColorMatrix in="SourceAlpha" type="matrix" values="0 0 0 0 0 0 0 0 0 0 0 0 0 0 0 0 0 0 127 0" result="hardAlpha"/>
<feOffset dy="4"/>
<feGaussianBlur stdDeviation="2"/>
<feComposite in2="hardAlpha" operator="out"/>
<feColorMatrix type="matrix" values="0 0 0 0 0 0 0 0 0 0 0 0 0 0 0 0 0 0 0.25 0"/>
<feBlend mode="normal" in2="BackgroundImageFix" result="effect1_dropShadow_607_642"/>
<feBlend mode="normal" in="SourceGraphic" in2="effect1_dropShadow_607_642" result="shape"/>
</filter>
<clipPath id="clip0_607_642">
<rect width="42" height="42" fill="white"/>
</clipPath>
</defs>
</svg>
